<mxfile host="65bd71144e">
    <diagram id="JC5l0jaOwhtUGoTaB8ZD" name="Page-1">
        <mxGraphModel dx="4440" dy="3313" grid="0" gridSize="10" guides="1" tooltips="1" connect="1" arrows="1" fold="1" page="1" pageScale="1" pageWidth="4681" pageHeight="3300" background="#ffffff" math="0" shadow="0">
            <root>
                <mxCell id="0"/>
                <mxCell id="1" parent="0"/>
                <mxCell id="100" style="edgeStyle=none;html=1;exitX=0.5;exitY=1;exitDx=0;exitDy=0;entryX=0;entryY=0;entryDx=0;entryDy=0;endArrow=none;endFill=0;fillColor=#6a00ff;strokeColor=#3700CC;strokeWidth=3;" parent="1" source="91" target="94" edge="1">
                    <mxGeometry relative="1" as="geometry"/>
                </mxCell>
                <mxCell id="103" style="edgeStyle=none;html=1;exitX=1;exitY=1;exitDx=0;exitDy=0;entryX=0;entryY=0;entryDx=0;entryDy=0;endArrow=none;endFill=0;fillColor=#6a00ff;strokeColor=#3700CC;strokeWidth=3;" parent="1" source="91" target="92" edge="1">
                    <mxGeometry relative="1" as="geometry"/>
                </mxCell>
                <mxCell id="91" value="2" style="ellipse;whiteSpace=wrap;html=1;aspect=fixed;fillColor=#6a00ff;fontColor=#ffffff;strokeColor=#3700CC;fontSize=33;" parent="1" vertex="1">
                    <mxGeometry x="267" y="99" width="80" height="80" as="geometry"/>
                </mxCell>
                <mxCell id="92" value="5" style="ellipse;whiteSpace=wrap;html=1;aspect=fixed;fillColor=#6a00ff;fontColor=#ffffff;strokeColor=#3700CC;fontSize=33;" parent="1" vertex="1">
                    <mxGeometry x="454" y="179" width="80" height="80" as="geometry"/>
                </mxCell>
                <mxCell id="97" style="edgeStyle=none;html=1;exitX=1;exitY=0;exitDx=0;exitDy=0;entryX=0;entryY=1;entryDx=0;entryDy=0;endArrow=none;endFill=0;strokeWidth=3;fillColor=#6a00ff;strokeColor=#3700CC;" parent="1" source="93" target="91" edge="1">
                    <mxGeometry relative="1" as="geometry"/>
                </mxCell>
                <mxCell id="98" style="edgeStyle=none;html=1;exitX=0.5;exitY=1;exitDx=0;exitDy=0;entryX=0;entryY=0;entryDx=0;entryDy=0;endArrow=none;endFill=0;fillColor=#6a00ff;strokeColor=#3700CC;strokeWidth=3;" parent="1" source="93" target="95" edge="1">
                    <mxGeometry relative="1" as="geometry"/>
                </mxCell>
                <mxCell id="93" value="1" style="ellipse;whiteSpace=wrap;html=1;aspect=fixed;fillColor=#6a00ff;fontColor=#ffffff;strokeColor=#3700CC;fontSize=33;" parent="1" vertex="1">
                    <mxGeometry x="80" y="179" width="80" height="80" as="geometry"/>
                </mxCell>
                <mxCell id="101" style="edgeStyle=none;html=1;exitX=1;exitY=0;exitDx=0;exitDy=0;entryX=0.5;entryY=1;entryDx=0;entryDy=0;endArrow=none;endFill=0;strokeWidth=3;fillColor=#6a00ff;strokeColor=#3700CC;" parent="1" source="94" target="92" edge="1">
                    <mxGeometry relative="1" as="geometry"/>
                </mxCell>
                <mxCell id="94" value="4" style="ellipse;whiteSpace=wrap;html=1;aspect=fixed;fillColor=#6a00ff;fontColor=#ffffff;strokeColor=#3700CC;fontSize=33;" parent="1" vertex="1">
                    <mxGeometry x="394" y="325" width="80" height="80" as="geometry"/>
                </mxCell>
                <mxCell id="99" style="edgeStyle=none;html=1;exitX=1;exitY=0;exitDx=0;exitDy=0;entryX=0.5;entryY=1;entryDx=0;entryDy=0;endArrow=none;endFill=0;strokeWidth=3;fillColor=#6a00ff;strokeColor=#3700CC;" parent="1" source="95" target="91" edge="1">
                    <mxGeometry relative="1" as="geometry"/>
                </mxCell>
                <mxCell id="95" value="3" style="ellipse;whiteSpace=wrap;html=1;aspect=fixed;fillColor=#6a00ff;fontColor=#ffffff;strokeColor=#3700CC;fontSize=33;" parent="1" vertex="1">
                    <mxGeometry x="134" y="325" width="80" height="80" as="geometry"/>
                </mxCell>
                <mxCell id="130" value="" style="shape=table;startSize=0;container=1;collapsible=0;childLayout=tableLayout;fontSize=33;fontColor=#F0F0F0;strokeWidth=3;" parent="1" vertex="1">
                    <mxGeometry x="645" y="69" width="400" height="400" as="geometry"/>
                </mxCell>
                <mxCell id="131" value="" style="shape=tableRow;horizontal=0;startSize=0;swimlaneHead=0;swimlaneBody=0;top=0;left=0;bottom=0;right=0;collapsible=0;dropTarget=0;fillColor=none;points=[[0,0.5],[1,0.5]];portConstraint=eastwest;fontSize=33;" parent="130" vertex="1">
                    <mxGeometry width="400" height="80" as="geometry"/>
                </mxCell>
                <mxCell id="132" value="0" style="shape=partialRectangle;html=1;whiteSpace=wrap;connectable=0;overflow=hidden;fillColor=none;top=0;left=0;bottom=0;right=0;pointerEvents=1;fontSize=33;" parent="131" vertex="1">
                    <mxGeometry width="81" height="80" as="geometry">
                        <mxRectangle width="81" height="80" as="alternateBounds"/>
                    </mxGeometry>
                </mxCell>
                <mxCell id="133" value="1" style="shape=partialRectangle;html=1;whiteSpace=wrap;connectable=0;overflow=hidden;fillColor=none;top=0;left=0;bottom=0;right=0;pointerEvents=1;fontSize=33;" parent="131" vertex="1">
                    <mxGeometry x="81" width="81" height="80" as="geometry">
                        <mxRectangle width="81" height="80" as="alternateBounds"/>
                    </mxGeometry>
                </mxCell>
                <mxCell id="134" value="1" style="shape=partialRectangle;html=1;whiteSpace=wrap;connectable=0;overflow=hidden;fillColor=none;top=0;left=0;bottom=0;right=0;pointerEvents=1;fontSize=33;" parent="131" vertex="1">
                    <mxGeometry x="162" width="78" height="80" as="geometry">
                        <mxRectangle width="78" height="80" as="alternateBounds"/>
                    </mxGeometry>
                </mxCell>
                <mxCell id="135" value="0" style="shape=partialRectangle;html=1;whiteSpace=wrap;connectable=0;overflow=hidden;fillColor=none;top=0;left=0;bottom=0;right=0;pointerEvents=1;fontSize=33;" parent="131" vertex="1">
                    <mxGeometry x="240" width="79" height="80" as="geometry">
                        <mxRectangle width="79" height="80" as="alternateBounds"/>
                    </mxGeometry>
                </mxCell>
                <mxCell id="136" value="0" style="shape=partialRectangle;html=1;whiteSpace=wrap;connectable=0;overflow=hidden;fillColor=none;top=0;left=0;bottom=0;right=0;pointerEvents=1;fontSize=33;" parent="131" vertex="1">
                    <mxGeometry x="319" width="81" height="80" as="geometry">
                        <mxRectangle width="81" height="80" as="alternateBounds"/>
                    </mxGeometry>
                </mxCell>
                <mxCell id="137" value="" style="shape=tableRow;horizontal=0;startSize=0;swimlaneHead=0;swimlaneBody=0;top=0;left=0;bottom=0;right=0;collapsible=0;dropTarget=0;fillColor=none;points=[[0,0.5],[1,0.5]];portConstraint=eastwest;fontSize=33;" parent="130" vertex="1">
                    <mxGeometry y="80" width="400" height="80" as="geometry"/>
                </mxCell>
                <mxCell id="138" value="1" style="shape=partialRectangle;html=1;whiteSpace=wrap;connectable=0;overflow=hidden;fillColor=none;top=0;left=0;bottom=0;right=0;pointerEvents=1;fontSize=33;" parent="137" vertex="1">
                    <mxGeometry width="81" height="80" as="geometry">
                        <mxRectangle width="81" height="80" as="alternateBounds"/>
                    </mxGeometry>
                </mxCell>
                <mxCell id="139" value="0" style="shape=partialRectangle;html=1;whiteSpace=wrap;connectable=0;overflow=hidden;fillColor=none;top=0;left=0;bottom=0;right=0;pointerEvents=1;fontSize=33;" parent="137" vertex="1">
                    <mxGeometry x="81" width="81" height="80" as="geometry">
                        <mxRectangle width="81" height="80" as="alternateBounds"/>
                    </mxGeometry>
                </mxCell>
                <mxCell id="140" value="1" style="shape=partialRectangle;html=1;whiteSpace=wrap;connectable=0;overflow=hidden;fillColor=none;top=0;left=0;bottom=0;right=0;pointerEvents=1;fontSize=33;" parent="137" vertex="1">
                    <mxGeometry x="162" width="78" height="80" as="geometry">
                        <mxRectangle width="78" height="80" as="alternateBounds"/>
                    </mxGeometry>
                </mxCell>
                <mxCell id="141" value="1" style="shape=partialRectangle;html=1;whiteSpace=wrap;connectable=0;overflow=hidden;fillColor=none;top=0;left=0;bottom=0;right=0;pointerEvents=1;fontSize=33;" parent="137" vertex="1">
                    <mxGeometry x="240" width="79" height="80" as="geometry">
                        <mxRectangle width="79" height="80" as="alternateBounds"/>
                    </mxGeometry>
                </mxCell>
                <mxCell id="142" value="1" style="shape=partialRectangle;html=1;whiteSpace=wrap;connectable=0;overflow=hidden;fillColor=none;top=0;left=0;bottom=0;right=0;pointerEvents=1;fontSize=33;" parent="137" vertex="1">
                    <mxGeometry x="319" width="81" height="80" as="geometry">
                        <mxRectangle width="81" height="80" as="alternateBounds"/>
                    </mxGeometry>
                </mxCell>
                <mxCell id="143" value="" style="shape=tableRow;horizontal=0;startSize=0;swimlaneHead=0;swimlaneBody=0;top=0;left=0;bottom=0;right=0;collapsible=0;dropTarget=0;fillColor=none;points=[[0,0.5],[1,0.5]];portConstraint=eastwest;fontSize=33;" parent="130" vertex="1">
                    <mxGeometry y="160" width="400" height="80" as="geometry"/>
                </mxCell>
                <mxCell id="144" value="1" style="shape=partialRectangle;html=1;whiteSpace=wrap;connectable=0;overflow=hidden;fillColor=none;top=0;left=0;bottom=0;right=0;pointerEvents=1;fontSize=33;" parent="143" vertex="1">
                    <mxGeometry width="81" height="80" as="geometry">
                        <mxRectangle width="81" height="80" as="alternateBounds"/>
                    </mxGeometry>
                </mxCell>
                <mxCell id="145" value="1" style="shape=partialRectangle;html=1;whiteSpace=wrap;connectable=0;overflow=hidden;fillColor=none;top=0;left=0;bottom=0;right=0;pointerEvents=1;fontSize=33;" parent="143" vertex="1">
                    <mxGeometry x="81" width="81" height="80" as="geometry">
                        <mxRectangle width="81" height="80" as="alternateBounds"/>
                    </mxGeometry>
                </mxCell>
                <mxCell id="146" value="0" style="shape=partialRectangle;html=1;whiteSpace=wrap;connectable=0;overflow=hidden;fillColor=none;top=0;left=0;bottom=0;right=0;pointerEvents=1;fontSize=33;" parent="143" vertex="1">
                    <mxGeometry x="162" width="78" height="80" as="geometry">
                        <mxRectangle width="78" height="80" as="alternateBounds"/>
                    </mxGeometry>
                </mxCell>
                <mxCell id="147" value="0" style="shape=partialRectangle;html=1;whiteSpace=wrap;connectable=0;overflow=hidden;fillColor=none;top=0;left=0;bottom=0;right=0;pointerEvents=1;fontSize=33;" parent="143" vertex="1">
                    <mxGeometry x="240" width="79" height="80" as="geometry">
                        <mxRectangle width="79" height="80" as="alternateBounds"/>
                    </mxGeometry>
                </mxCell>
                <mxCell id="148" value="0" style="shape=partialRectangle;html=1;whiteSpace=wrap;connectable=0;overflow=hidden;fillColor=none;top=0;left=0;bottom=0;right=0;pointerEvents=1;fontSize=33;" parent="143" vertex="1">
                    <mxGeometry x="319" width="81" height="80" as="geometry">
                        <mxRectangle width="81" height="80" as="alternateBounds"/>
                    </mxGeometry>
                </mxCell>
                <mxCell id="149" value="" style="shape=tableRow;horizontal=0;startSize=0;swimlaneHead=0;swimlaneBody=0;top=0;left=0;bottom=0;right=0;collapsible=0;dropTarget=0;fillColor=none;points=[[0,0.5],[1,0.5]];portConstraint=eastwest;fontSize=33;" parent="130" vertex="1">
                    <mxGeometry y="240" width="400" height="80" as="geometry"/>
                </mxCell>
                <mxCell id="150" value="0" style="shape=partialRectangle;html=1;whiteSpace=wrap;connectable=0;overflow=hidden;fillColor=none;top=0;left=0;bottom=0;right=0;pointerEvents=1;fontSize=33;" parent="149" vertex="1">
                    <mxGeometry width="81" height="80" as="geometry">
                        <mxRectangle width="81" height="80" as="alternateBounds"/>
                    </mxGeometry>
                </mxCell>
                <mxCell id="151" value="1" style="shape=partialRectangle;html=1;whiteSpace=wrap;connectable=0;overflow=hidden;fillColor=none;top=0;left=0;bottom=0;right=0;pointerEvents=1;fontSize=33;" parent="149" vertex="1">
                    <mxGeometry x="81" width="81" height="80" as="geometry">
                        <mxRectangle width="81" height="80" as="alternateBounds"/>
                    </mxGeometry>
                </mxCell>
                <mxCell id="152" value="0" style="shape=partialRectangle;html=1;whiteSpace=wrap;connectable=0;overflow=hidden;fillColor=none;top=0;left=0;bottom=0;right=0;pointerEvents=1;fontSize=33;" parent="149" vertex="1">
                    <mxGeometry x="162" width="78" height="80" as="geometry">
                        <mxRectangle width="78" height="80" as="alternateBounds"/>
                    </mxGeometry>
                </mxCell>
                <mxCell id="153" value="0" style="shape=partialRectangle;html=1;whiteSpace=wrap;connectable=0;overflow=hidden;fillColor=none;top=0;left=0;bottom=0;right=0;pointerEvents=1;fontSize=33;" parent="149" vertex="1">
                    <mxGeometry x="240" width="79" height="80" as="geometry">
                        <mxRectangle width="79" height="80" as="alternateBounds"/>
                    </mxGeometry>
                </mxCell>
                <mxCell id="154" value="1" style="shape=partialRectangle;html=1;whiteSpace=wrap;connectable=0;overflow=hidden;fillColor=none;top=0;left=0;bottom=0;right=0;pointerEvents=1;fontSize=33;" parent="149" vertex="1">
                    <mxGeometry x="319" width="81" height="80" as="geometry">
                        <mxRectangle width="81" height="80" as="alternateBounds"/>
                    </mxGeometry>
                </mxCell>
                <mxCell id="155" value="" style="shape=tableRow;horizontal=0;startSize=0;swimlaneHead=0;swimlaneBody=0;top=0;left=0;bottom=0;right=0;collapsible=0;dropTarget=0;fillColor=none;points=[[0,0.5],[1,0.5]];portConstraint=eastwest;fontSize=33;" parent="130" vertex="1">
                    <mxGeometry y="320" width="400" height="80" as="geometry"/>
                </mxCell>
                <mxCell id="156" value="0" style="shape=partialRectangle;html=1;whiteSpace=wrap;connectable=0;overflow=hidden;fillColor=none;top=0;left=0;bottom=0;right=0;pointerEvents=1;fontSize=33;" parent="155" vertex="1">
                    <mxGeometry width="81" height="80" as="geometry">
                        <mxRectangle width="81" height="80" as="alternateBounds"/>
                    </mxGeometry>
                </mxCell>
                <mxCell id="157" value="1" style="shape=partialRectangle;html=1;whiteSpace=wrap;connectable=0;overflow=hidden;fillColor=none;top=0;left=0;bottom=0;right=0;pointerEvents=1;fontSize=33;" parent="155" vertex="1">
                    <mxGeometry x="81" width="81" height="80" as="geometry">
                        <mxRectangle width="81" height="80" as="alternateBounds"/>
                    </mxGeometry>
                </mxCell>
                <mxCell id="158" value="0" style="shape=partialRectangle;html=1;whiteSpace=wrap;connectable=0;overflow=hidden;fillColor=none;top=0;left=0;bottom=0;right=0;pointerEvents=1;fontSize=33;" parent="155" vertex="1">
                    <mxGeometry x="162" width="78" height="80" as="geometry">
                        <mxRectangle width="78" height="80" as="alternateBounds"/>
                    </mxGeometry>
                </mxCell>
                <mxCell id="159" value="1" style="shape=partialRectangle;html=1;whiteSpace=wrap;connectable=0;overflow=hidden;fillColor=none;top=0;left=0;bottom=0;right=0;pointerEvents=1;fontSize=33;" parent="155" vertex="1">
                    <mxGeometry x="240" width="79" height="80" as="geometry">
                        <mxRectangle width="79" height="80" as="alternateBounds"/>
                    </mxGeometry>
                </mxCell>
                <mxCell id="160" value="0" style="shape=partialRectangle;html=1;whiteSpace=wrap;connectable=0;overflow=hidden;fillColor=none;top=0;left=0;bottom=0;right=0;pointerEvents=1;fontSize=33;" parent="155" vertex="1">
                    <mxGeometry x="319" width="81" height="80" as="geometry">
                        <mxRectangle width="81" height="80" as="alternateBounds"/>
                    </mxGeometry>
                </mxCell>
                <mxCell id="167" value="&lt;font color=&quot;#000000&quot;&gt;Adjacency Matrix (5 X 5)&lt;/font&gt;" style="text;html=1;align=center;verticalAlign=middle;resizable=0;points=[];autosize=1;strokeColor=none;fillColor=none;fontSize=33;fontColor=#F0F0F0;" parent="1" vertex="1">
                    <mxGeometry x="656.5" y="476" width="377" height="52" as="geometry"/>
                </mxCell>
                <mxCell id="207" value="" style="shape=table;startSize=0;container=1;collapsible=0;childLayout=tableLayout;strokeWidth=3;fontSize=33;fontColor=#000000;" parent="1" vertex="1">
                    <mxGeometry x="1657.5" y="69" width="400" height="400" as="geometry"/>
                </mxCell>
                <mxCell id="208" value="" style="shape=tableRow;horizontal=0;startSize=0;swimlaneHead=0;swimlaneBody=0;top=0;left=0;bottom=0;right=0;collapsible=0;dropTarget=0;fillColor=none;points=[[0,0.5],[1,0.5]];portConstraint=eastwest;strokeWidth=3;fontSize=33;fontColor=#000000;" parent="207" vertex="1">
                    <mxGeometry width="400" height="80" as="geometry"/>
                </mxCell>
                <mxCell id="209" value="h&lt;sub&gt;1&lt;/sub&gt;" style="shape=partialRectangle;html=1;whiteSpace=wrap;connectable=0;overflow=hidden;fillColor=#647687;top=0;left=0;bottom=0;right=0;pointerEvents=1;strokeWidth=3;fontSize=33;fontColor=#ffffff;strokeColor=#000000;" parent="208" vertex="1">
                    <mxGeometry width="80" height="80" as="geometry">
                        <mxRectangle width="80" height="80" as="alternateBounds"/>
                    </mxGeometry>
                </mxCell>
                <mxCell id="210" value="" style="shape=partialRectangle;html=1;whiteSpace=wrap;connectable=0;overflow=hidden;fillColor=none;top=0;left=0;bottom=0;right=0;pointerEvents=1;strokeWidth=3;fontSize=33;fontColor=#000000;" parent="208" vertex="1">
                    <mxGeometry x="80" width="80" height="80" as="geometry">
                        <mxRectangle width="80" height="80" as="alternateBounds"/>
                    </mxGeometry>
                </mxCell>
                <mxCell id="211" value="" style="shape=partialRectangle;html=1;whiteSpace=wrap;connectable=0;overflow=hidden;fillColor=none;top=0;left=0;bottom=0;right=0;pointerEvents=1;strokeWidth=3;fontSize=33;fontColor=#000000;" parent="208" vertex="1">
                    <mxGeometry x="160" width="80" height="80" as="geometry">
                        <mxRectangle width="80" height="80" as="alternateBounds"/>
                    </mxGeometry>
                </mxCell>
                <mxCell id="212" value="" style="shape=partialRectangle;html=1;whiteSpace=wrap;connectable=0;overflow=hidden;fillColor=none;top=0;left=0;bottom=0;right=0;pointerEvents=1;strokeWidth=3;fontSize=33;fontColor=#000000;" parent="208" vertex="1">
                    <mxGeometry x="240" width="80" height="80" as="geometry">
                        <mxRectangle width="80" height="80" as="alternateBounds"/>
                    </mxGeometry>
                </mxCell>
                <mxCell id="213" value="" style="shape=partialRectangle;html=1;whiteSpace=wrap;connectable=0;overflow=hidden;fillColor=none;top=0;left=0;bottom=0;right=0;pointerEvents=1;strokeWidth=3;fontSize=33;fontColor=#000000;" parent="208" vertex="1">
                    <mxGeometry x="320" width="80" height="80" as="geometry">
                        <mxRectangle width="80" height="80" as="alternateBounds"/>
                    </mxGeometry>
                </mxCell>
                <mxCell id="214" value="" style="shape=tableRow;horizontal=0;startSize=0;swimlaneHead=0;swimlaneBody=0;top=0;left=0;bottom=0;right=0;collapsible=0;dropTarget=0;fillColor=none;points=[[0,0.5],[1,0.5]];portConstraint=eastwest;strokeWidth=3;fontSize=33;fontColor=#000000;" parent="207" vertex="1">
                    <mxGeometry y="80" width="400" height="80" as="geometry"/>
                </mxCell>
                <mxCell id="215" value="h&lt;sub&gt;2&lt;/sub&gt;" style="shape=partialRectangle;html=1;whiteSpace=wrap;connectable=0;overflow=hidden;fillColor=#647687;top=0;left=0;bottom=0;right=0;pointerEvents=1;strokeWidth=3;fontSize=33;fontColor=#ffffff;strokeColor=#000000;" parent="214" vertex="1">
                    <mxGeometry width="80" height="80" as="geometry">
                        <mxRectangle width="80" height="80" as="alternateBounds"/>
                    </mxGeometry>
                </mxCell>
                <mxCell id="216" value="" style="shape=partialRectangle;html=1;whiteSpace=wrap;connectable=0;overflow=hidden;fillColor=none;top=0;left=0;bottom=0;right=0;pointerEvents=1;strokeWidth=3;fontSize=33;fontColor=#000000;" parent="214" vertex="1">
                    <mxGeometry x="80" width="80" height="80" as="geometry">
                        <mxRectangle width="80" height="80" as="alternateBounds"/>
                    </mxGeometry>
                </mxCell>
                <mxCell id="217" value="" style="shape=partialRectangle;html=1;whiteSpace=wrap;connectable=0;overflow=hidden;fillColor=none;top=0;left=0;bottom=0;right=0;pointerEvents=1;strokeWidth=3;fontSize=33;fontColor=#000000;" parent="214" vertex="1">
                    <mxGeometry x="160" width="80" height="80" as="geometry">
                        <mxRectangle width="80" height="80" as="alternateBounds"/>
                    </mxGeometry>
                </mxCell>
                <mxCell id="218" value="" style="shape=partialRectangle;html=1;whiteSpace=wrap;connectable=0;overflow=hidden;fillColor=none;top=0;left=0;bottom=0;right=0;pointerEvents=1;strokeWidth=3;fontSize=33;fontColor=#000000;" parent="214" vertex="1">
                    <mxGeometry x="240" width="80" height="80" as="geometry">
                        <mxRectangle width="80" height="80" as="alternateBounds"/>
                    </mxGeometry>
                </mxCell>
                <mxCell id="219" value="" style="shape=partialRectangle;html=1;whiteSpace=wrap;connectable=0;overflow=hidden;fillColor=none;top=0;left=0;bottom=0;right=0;pointerEvents=1;strokeWidth=3;fontSize=33;fontColor=#000000;" parent="214" vertex="1">
                    <mxGeometry x="320" width="80" height="80" as="geometry">
                        <mxRectangle width="80" height="80" as="alternateBounds"/>
                    </mxGeometry>
                </mxCell>
                <mxCell id="220" value="" style="shape=tableRow;horizontal=0;startSize=0;swimlaneHead=0;swimlaneBody=0;top=0;left=0;bottom=0;right=0;collapsible=0;dropTarget=0;fillColor=none;points=[[0,0.5],[1,0.5]];portConstraint=eastwest;strokeWidth=3;fontSize=33;fontColor=#000000;" parent="207" vertex="1">
                    <mxGeometry y="160" width="400" height="80" as="geometry"/>
                </mxCell>
                <mxCell id="221" value="h&lt;sub&gt;3&lt;/sub&gt;" style="shape=partialRectangle;html=1;whiteSpace=wrap;connectable=0;overflow=hidden;fillColor=#647687;top=0;left=0;bottom=0;right=0;pointerEvents=1;strokeWidth=3;fontSize=33;fontColor=#ffffff;strokeColor=#000000;" parent="220" vertex="1">
                    <mxGeometry width="80" height="80" as="geometry">
                        <mxRectangle width="80" height="80" as="alternateBounds"/>
                    </mxGeometry>
                </mxCell>
                <mxCell id="222" value="" style="shape=partialRectangle;html=1;whiteSpace=wrap;connectable=0;overflow=hidden;fillColor=none;top=0;left=0;bottom=0;right=0;pointerEvents=1;strokeWidth=3;fontSize=33;fontColor=#000000;" parent="220" vertex="1">
                    <mxGeometry x="80" width="80" height="80" as="geometry">
                        <mxRectangle width="80" height="80" as="alternateBounds"/>
                    </mxGeometry>
                </mxCell>
                <mxCell id="223" value="" style="shape=partialRectangle;html=1;whiteSpace=wrap;connectable=0;overflow=hidden;fillColor=none;top=0;left=0;bottom=0;right=0;pointerEvents=1;strokeWidth=3;fontSize=33;fontColor=#000000;" parent="220" vertex="1">
                    <mxGeometry x="160" width="80" height="80" as="geometry">
                        <mxRectangle width="80" height="80" as="alternateBounds"/>
                    </mxGeometry>
                </mxCell>
                <mxCell id="224" value="" style="shape=partialRectangle;html=1;whiteSpace=wrap;connectable=0;overflow=hidden;fillColor=none;top=0;left=0;bottom=0;right=0;pointerEvents=1;strokeWidth=3;fontSize=33;fontColor=#000000;" parent="220" vertex="1">
                    <mxGeometry x="240" width="80" height="80" as="geometry">
                        <mxRectangle width="80" height="80" as="alternateBounds"/>
                    </mxGeometry>
                </mxCell>
                <mxCell id="225" value="" style="shape=partialRectangle;html=1;whiteSpace=wrap;connectable=0;overflow=hidden;fillColor=none;top=0;left=0;bottom=0;right=0;pointerEvents=1;strokeWidth=3;fontSize=33;fontColor=#000000;" parent="220" vertex="1">
                    <mxGeometry x="320" width="80" height="80" as="geometry">
                        <mxRectangle width="80" height="80" as="alternateBounds"/>
                    </mxGeometry>
                </mxCell>
                <mxCell id="226" value="" style="shape=tableRow;horizontal=0;startSize=0;swimlaneHead=0;swimlaneBody=0;top=0;left=0;bottom=0;right=0;collapsible=0;dropTarget=0;fillColor=none;points=[[0,0.5],[1,0.5]];portConstraint=eastwest;strokeWidth=3;fontSize=33;fontColor=#000000;" parent="207" vertex="1">
                    <mxGeometry y="240" width="400" height="80" as="geometry"/>
                </mxCell>
                <mxCell id="227" value="h&lt;sub&gt;4&lt;/sub&gt;" style="shape=partialRectangle;html=1;whiteSpace=wrap;connectable=0;overflow=hidden;fillColor=#647687;top=0;left=0;bottom=0;right=0;pointerEvents=1;strokeWidth=3;fontSize=33;fontColor=#ffffff;strokeColor=#000000;" parent="226" vertex="1">
                    <mxGeometry width="80" height="80" as="geometry">
                        <mxRectangle width="80" height="80" as="alternateBounds"/>
                    </mxGeometry>
                </mxCell>
                <mxCell id="228" value="" style="shape=partialRectangle;html=1;whiteSpace=wrap;connectable=0;overflow=hidden;fillColor=none;top=0;left=0;bottom=0;right=0;pointerEvents=1;strokeWidth=3;fontSize=33;fontColor=#000000;" parent="226" vertex="1">
                    <mxGeometry x="80" width="80" height="80" as="geometry">
                        <mxRectangle width="80" height="80" as="alternateBounds"/>
                    </mxGeometry>
                </mxCell>
                <mxCell id="229" value="" style="shape=partialRectangle;html=1;whiteSpace=wrap;connectable=0;overflow=hidden;fillColor=none;top=0;left=0;bottom=0;right=0;pointerEvents=1;strokeWidth=3;fontSize=33;fontColor=#000000;" parent="226" vertex="1">
                    <mxGeometry x="160" width="80" height="80" as="geometry">
                        <mxRectangle width="80" height="80" as="alternateBounds"/>
                    </mxGeometry>
                </mxCell>
                <mxCell id="230" value="" style="shape=partialRectangle;html=1;whiteSpace=wrap;connectable=0;overflow=hidden;fillColor=none;top=0;left=0;bottom=0;right=0;pointerEvents=1;strokeWidth=3;fontSize=33;fontColor=#000000;" parent="226" vertex="1">
                    <mxGeometry x="240" width="80" height="80" as="geometry">
                        <mxRectangle width="80" height="80" as="alternateBounds"/>
                    </mxGeometry>
                </mxCell>
                <mxCell id="231" value="" style="shape=partialRectangle;html=1;whiteSpace=wrap;connectable=0;overflow=hidden;fillColor=none;top=0;left=0;bottom=0;right=0;pointerEvents=1;strokeWidth=3;fontSize=33;fontColor=#000000;" parent="226" vertex="1">
                    <mxGeometry x="320" width="80" height="80" as="geometry">
                        <mxRectangle width="80" height="80" as="alternateBounds"/>
                    </mxGeometry>
                </mxCell>
                <mxCell id="232" value="" style="shape=tableRow;horizontal=0;startSize=0;swimlaneHead=0;swimlaneBody=0;top=0;left=0;bottom=0;right=0;collapsible=0;dropTarget=0;fillColor=none;points=[[0,0.5],[1,0.5]];portConstraint=eastwest;strokeWidth=3;fontSize=33;fontColor=#000000;" parent="207" vertex="1">
                    <mxGeometry y="320" width="400" height="80" as="geometry"/>
                </mxCell>
                <mxCell id="233" value="h&lt;sub&gt;5&lt;/sub&gt;" style="shape=partialRectangle;html=1;whiteSpace=wrap;connectable=0;overflow=hidden;fillColor=#647687;top=0;left=0;bottom=0;right=0;pointerEvents=1;strokeWidth=3;fontSize=33;fontColor=#ffffff;strokeColor=#000000;" parent="232" vertex="1">
                    <mxGeometry width="80" height="80" as="geometry">
                        <mxRectangle width="80" height="80" as="alternateBounds"/>
                    </mxGeometry>
                </mxCell>
                <mxCell id="234" value="" style="shape=partialRectangle;html=1;whiteSpace=wrap;connectable=0;overflow=hidden;fillColor=none;top=0;left=0;bottom=0;right=0;pointerEvents=1;strokeWidth=3;fontSize=33;fontColor=#000000;" parent="232" vertex="1">
                    <mxGeometry x="80" width="80" height="80" as="geometry">
                        <mxRectangle width="80" height="80" as="alternateBounds"/>
                    </mxGeometry>
                </mxCell>
                <mxCell id="235" value="" style="shape=partialRectangle;html=1;whiteSpace=wrap;connectable=0;overflow=hidden;fillColor=none;top=0;left=0;bottom=0;right=0;pointerEvents=1;strokeWidth=3;fontSize=33;fontColor=#000000;" parent="232" vertex="1">
                    <mxGeometry x="160" width="80" height="80" as="geometry">
                        <mxRectangle width="80" height="80" as="alternateBounds"/>
                    </mxGeometry>
                </mxCell>
                <mxCell id="236" value="" style="shape=partialRectangle;html=1;whiteSpace=wrap;connectable=0;overflow=hidden;fillColor=none;top=0;left=0;bottom=0;right=0;pointerEvents=1;strokeWidth=3;fontSize=33;fontColor=#000000;" parent="232" vertex="1">
                    <mxGeometry x="240" width="80" height="80" as="geometry">
                        <mxRectangle width="80" height="80" as="alternateBounds"/>
                    </mxGeometry>
                </mxCell>
                <mxCell id="237" value="" style="shape=partialRectangle;html=1;whiteSpace=wrap;connectable=0;overflow=hidden;fillColor=none;top=0;left=0;bottom=0;right=0;pointerEvents=1;strokeWidth=3;fontSize=33;fontColor=#000000;" parent="232" vertex="1">
                    <mxGeometry x="320" width="80" height="80" as="geometry">
                        <mxRectangle width="80" height="80" as="alternateBounds"/>
                    </mxGeometry>
                </mxCell>
                <mxCell id="238" value="&lt;font color=&quot;#000000&quot;&gt;Node Feature Matrix (5 X 4)&lt;/font&gt;" style="text;html=1;align=center;verticalAlign=middle;resizable=0;points=[];autosize=1;strokeColor=none;fillColor=none;fontSize=33;fontColor=#F0F0F0;" parent="1" vertex="1">
                    <mxGeometry x="1644" y="479" width="427" height="52" as="geometry"/>
                </mxCell>
                <mxCell id="240" value="&lt;font style=&quot;font-size: 100px;&quot;&gt;&amp;nbsp;h&lt;sub&gt;i&lt;/sub&gt;&lt;sup&gt;'&lt;/sup&gt; = σ(Σ&lt;sub style=&quot;&quot;&gt;(jϵN(i))&lt;/sub&gt;W*h&lt;sub style=&quot;&quot;&gt;j&lt;/sub&gt;)&amp;nbsp;&lt;/font&gt;" style="text;html=1;align=center;verticalAlign=middle;resizable=0;points=[];autosize=1;strokeColor=none;fillColor=none;fontSize=33;fontColor=#000000;labelBorderColor=#000000;" parent="1" vertex="1">
                    <mxGeometry x="190" y="692" width="924" height="166" as="geometry"/>
                </mxCell>
                <mxCell id="241" value="" style="shape=table;startSize=0;container=1;collapsible=0;childLayout=tableLayout;fontSize=33;fontColor=#F0F0F0;strokeWidth=3;" parent="1" vertex="1">
                    <mxGeometry x="1149" y="69" width="400" height="400" as="geometry"/>
                </mxCell>
                <mxCell id="242" value="" style="shape=tableRow;horizontal=0;startSize=0;swimlaneHead=0;swimlaneBody=0;top=0;left=0;bottom=0;right=0;collapsible=0;dropTarget=0;fillColor=none;points=[[0,0.5],[1,0.5]];portConstraint=eastwest;fontSize=33;" parent="241" vertex="1">
                    <mxGeometry width="400" height="80" as="geometry"/>
                </mxCell>
                <mxCell id="243" value="1" style="shape=partialRectangle;html=1;whiteSpace=wrap;connectable=0;overflow=hidden;fillColor=none;top=0;left=0;bottom=0;right=0;pointerEvents=1;fontSize=33;" parent="242" vertex="1">
                    <mxGeometry width="81" height="80" as="geometry">
                        <mxRectangle width="81" height="80" as="alternateBounds"/>
                    </mxGeometry>
                </mxCell>
                <mxCell id="244" value="1" style="shape=partialRectangle;html=1;whiteSpace=wrap;connectable=0;overflow=hidden;fillColor=none;top=0;left=0;bottom=0;right=0;pointerEvents=1;fontSize=33;" parent="242" vertex="1">
                    <mxGeometry x="81" width="81" height="80" as="geometry">
                        <mxRectangle width="81" height="80" as="alternateBounds"/>
                    </mxGeometry>
                </mxCell>
                <mxCell id="245" value="1" style="shape=partialRectangle;html=1;whiteSpace=wrap;connectable=0;overflow=hidden;fillColor=none;top=0;left=0;bottom=0;right=0;pointerEvents=1;fontSize=33;" parent="242" vertex="1">
                    <mxGeometry x="162" width="78" height="80" as="geometry">
                        <mxRectangle width="78" height="80" as="alternateBounds"/>
                    </mxGeometry>
                </mxCell>
                <mxCell id="246" value="0" style="shape=partialRectangle;html=1;whiteSpace=wrap;connectable=0;overflow=hidden;fillColor=none;top=0;left=0;bottom=0;right=0;pointerEvents=1;fontSize=33;" parent="242" vertex="1">
                    <mxGeometry x="240" width="79" height="80" as="geometry">
                        <mxRectangle width="79" height="80" as="alternateBounds"/>
                    </mxGeometry>
                </mxCell>
                <mxCell id="247" value="0" style="shape=partialRectangle;html=1;whiteSpace=wrap;connectable=0;overflow=hidden;fillColor=none;top=0;left=0;bottom=0;right=0;pointerEvents=1;fontSize=33;" parent="242" vertex="1">
                    <mxGeometry x="319" width="81" height="80" as="geometry">
                        <mxRectangle width="81" height="80" as="alternateBounds"/>
                    </mxGeometry>
                </mxCell>
                <mxCell id="248" value="" style="shape=tableRow;horizontal=0;startSize=0;swimlaneHead=0;swimlaneBody=0;top=0;left=0;bottom=0;right=0;collapsible=0;dropTarget=0;fillColor=none;points=[[0,0.5],[1,0.5]];portConstraint=eastwest;fontSize=33;" parent="241" vertex="1">
                    <mxGeometry y="80" width="400" height="80" as="geometry"/>
                </mxCell>
                <mxCell id="249" value="1" style="shape=partialRectangle;html=1;whiteSpace=wrap;connectable=0;overflow=hidden;fillColor=none;top=0;left=0;bottom=0;right=0;pointerEvents=1;fontSize=33;" parent="248" vertex="1">
                    <mxGeometry width="81" height="80" as="geometry">
                        <mxRectangle width="81" height="80" as="alternateBounds"/>
                    </mxGeometry>
                </mxCell>
                <mxCell id="250" value="1" style="shape=partialRectangle;html=1;whiteSpace=wrap;connectable=0;overflow=hidden;fillColor=none;top=0;left=0;bottom=0;right=0;pointerEvents=1;fontSize=33;" parent="248" vertex="1">
                    <mxGeometry x="81" width="81" height="80" as="geometry">
                        <mxRectangle width="81" height="80" as="alternateBounds"/>
                    </mxGeometry>
                </mxCell>
                <mxCell id="251" value="1" style="shape=partialRectangle;html=1;whiteSpace=wrap;connectable=0;overflow=hidden;fillColor=none;top=0;left=0;bottom=0;right=0;pointerEvents=1;fontSize=33;" parent="248" vertex="1">
                    <mxGeometry x="162" width="78" height="80" as="geometry">
                        <mxRectangle width="78" height="80" as="alternateBounds"/>
                    </mxGeometry>
                </mxCell>
                <mxCell id="252" value="1" style="shape=partialRectangle;html=1;whiteSpace=wrap;connectable=0;overflow=hidden;fillColor=none;top=0;left=0;bottom=0;right=0;pointerEvents=1;fontSize=33;" parent="248" vertex="1">
                    <mxGeometry x="240" width="79" height="80" as="geometry">
                        <mxRectangle width="79" height="80" as="alternateBounds"/>
                    </mxGeometry>
                </mxCell>
                <mxCell id="253" value="1" style="shape=partialRectangle;html=1;whiteSpace=wrap;connectable=0;overflow=hidden;fillColor=none;top=0;left=0;bottom=0;right=0;pointerEvents=1;fontSize=33;" parent="248" vertex="1">
                    <mxGeometry x="319" width="81" height="80" as="geometry">
                        <mxRectangle width="81" height="80" as="alternateBounds"/>
                    </mxGeometry>
                </mxCell>
                <mxCell id="254" value="" style="shape=tableRow;horizontal=0;startSize=0;swimlaneHead=0;swimlaneBody=0;top=0;left=0;bottom=0;right=0;collapsible=0;dropTarget=0;fillColor=none;points=[[0,0.5],[1,0.5]];portConstraint=eastwest;fontSize=33;" parent="241" vertex="1">
                    <mxGeometry y="160" width="400" height="80" as="geometry"/>
                </mxCell>
                <mxCell id="255" value="1" style="shape=partialRectangle;html=1;whiteSpace=wrap;connectable=0;overflow=hidden;fillColor=none;top=0;left=0;bottom=0;right=0;pointerEvents=1;fontSize=33;" parent="254" vertex="1">
                    <mxGeometry width="81" height="80" as="geometry">
                        <mxRectangle width="81" height="80" as="alternateBounds"/>
                    </mxGeometry>
                </mxCell>
                <mxCell id="256" value="1" style="shape=partialRectangle;html=1;whiteSpace=wrap;connectable=0;overflow=hidden;fillColor=none;top=0;left=0;bottom=0;right=0;pointerEvents=1;fontSize=33;" parent="254" vertex="1">
                    <mxGeometry x="81" width="81" height="80" as="geometry">
                        <mxRectangle width="81" height="80" as="alternateBounds"/>
                    </mxGeometry>
                </mxCell>
                <mxCell id="257" value="1" style="shape=partialRectangle;html=1;whiteSpace=wrap;connectable=0;overflow=hidden;fillColor=none;top=0;left=0;bottom=0;right=0;pointerEvents=1;fontSize=33;" parent="254" vertex="1">
                    <mxGeometry x="162" width="78" height="80" as="geometry">
                        <mxRectangle width="78" height="80" as="alternateBounds"/>
                    </mxGeometry>
                </mxCell>
                <mxCell id="258" value="0" style="shape=partialRectangle;html=1;whiteSpace=wrap;connectable=0;overflow=hidden;fillColor=none;top=0;left=0;bottom=0;right=0;pointerEvents=1;fontSize=33;" parent="254" vertex="1">
                    <mxGeometry x="240" width="79" height="80" as="geometry">
                        <mxRectangle width="79" height="80" as="alternateBounds"/>
                    </mxGeometry>
                </mxCell>
                <mxCell id="259" value="0" style="shape=partialRectangle;html=1;whiteSpace=wrap;connectable=0;overflow=hidden;fillColor=none;top=0;left=0;bottom=0;right=0;pointerEvents=1;fontSize=33;" parent="254" vertex="1">
                    <mxGeometry x="319" width="81" height="80" as="geometry">
                        <mxRectangle width="81" height="80" as="alternateBounds"/>
                    </mxGeometry>
                </mxCell>
                <mxCell id="260" value="" style="shape=tableRow;horizontal=0;startSize=0;swimlaneHead=0;swimlaneBody=0;top=0;left=0;bottom=0;right=0;collapsible=0;dropTarget=0;fillColor=none;points=[[0,0.5],[1,0.5]];portConstraint=eastwest;fontSize=33;" parent="241" vertex="1">
                    <mxGeometry y="240" width="400" height="80" as="geometry"/>
                </mxCell>
                <mxCell id="261" value="0" style="shape=partialRectangle;html=1;whiteSpace=wrap;connectable=0;overflow=hidden;fillColor=none;top=0;left=0;bottom=0;right=0;pointerEvents=1;fontSize=33;" parent="260" vertex="1">
                    <mxGeometry width="81" height="80" as="geometry">
                        <mxRectangle width="81" height="80" as="alternateBounds"/>
                    </mxGeometry>
                </mxCell>
                <mxCell id="262" value="1" style="shape=partialRectangle;html=1;whiteSpace=wrap;connectable=0;overflow=hidden;fillColor=none;top=0;left=0;bottom=0;right=0;pointerEvents=1;fontSize=33;" parent="260" vertex="1">
                    <mxGeometry x="81" width="81" height="80" as="geometry">
                        <mxRectangle width="81" height="80" as="alternateBounds"/>
                    </mxGeometry>
                </mxCell>
                <mxCell id="263" value="0" style="shape=partialRectangle;html=1;whiteSpace=wrap;connectable=0;overflow=hidden;fillColor=none;top=0;left=0;bottom=0;right=0;pointerEvents=1;fontSize=33;" parent="260" vertex="1">
                    <mxGeometry x="162" width="78" height="80" as="geometry">
                        <mxRectangle width="78" height="80" as="alternateBounds"/>
                    </mxGeometry>
                </mxCell>
                <mxCell id="264" value="1" style="shape=partialRectangle;html=1;whiteSpace=wrap;connectable=0;overflow=hidden;fillColor=none;top=0;left=0;bottom=0;right=0;pointerEvents=1;fontSize=33;" parent="260" vertex="1">
                    <mxGeometry x="240" width="79" height="80" as="geometry">
                        <mxRectangle width="79" height="80" as="alternateBounds"/>
                    </mxGeometry>
                </mxCell>
                <mxCell id="265" value="1" style="shape=partialRectangle;html=1;whiteSpace=wrap;connectable=0;overflow=hidden;fillColor=none;top=0;left=0;bottom=0;right=0;pointerEvents=1;fontSize=33;" parent="260" vertex="1">
                    <mxGeometry x="319" width="81" height="80" as="geometry">
                        <mxRectangle width="81" height="80" as="alternateBounds"/>
                    </mxGeometry>
                </mxCell>
                <mxCell id="266" value="" style="shape=tableRow;horizontal=0;startSize=0;swimlaneHead=0;swimlaneBody=0;top=0;left=0;bottom=0;right=0;collapsible=0;dropTarget=0;fillColor=none;points=[[0,0.5],[1,0.5]];portConstraint=eastwest;fontSize=33;" parent="241" vertex="1">
                    <mxGeometry y="320" width="400" height="80" as="geometry"/>
                </mxCell>
                <mxCell id="267" value="0" style="shape=partialRectangle;html=1;whiteSpace=wrap;connectable=0;overflow=hidden;fillColor=none;top=0;left=0;bottom=0;right=0;pointerEvents=1;fontSize=33;" parent="266" vertex="1">
                    <mxGeometry width="81" height="80" as="geometry">
                        <mxRectangle width="81" height="80" as="alternateBounds"/>
                    </mxGeometry>
                </mxCell>
                <mxCell id="268" value="1" style="shape=partialRectangle;html=1;whiteSpace=wrap;connectable=0;overflow=hidden;fillColor=none;top=0;left=0;bottom=0;right=0;pointerEvents=1;fontSize=33;" parent="266" vertex="1">
                    <mxGeometry x="81" width="81" height="80" as="geometry">
                        <mxRectangle width="81" height="80" as="alternateBounds"/>
                    </mxGeometry>
                </mxCell>
                <mxCell id="269" value="0" style="shape=partialRectangle;html=1;whiteSpace=wrap;connectable=0;overflow=hidden;fillColor=none;top=0;left=0;bottom=0;right=0;pointerEvents=1;fontSize=33;" parent="266" vertex="1">
                    <mxGeometry x="162" width="78" height="80" as="geometry">
                        <mxRectangle width="78" height="80" as="alternateBounds"/>
                    </mxGeometry>
                </mxCell>
                <mxCell id="270" value="1" style="shape=partialRectangle;html=1;whiteSpace=wrap;connectable=0;overflow=hidden;fillColor=none;top=0;left=0;bottom=0;right=0;pointerEvents=1;fontSize=33;" parent="266" vertex="1">
                    <mxGeometry x="240" width="79" height="80" as="geometry">
                        <mxRectangle width="79" height="80" as="alternateBounds"/>
                    </mxGeometry>
                </mxCell>
                <mxCell id="271" value="1" style="shape=partialRectangle;html=1;whiteSpace=wrap;connectable=0;overflow=hidden;fillColor=none;top=0;left=0;bottom=0;right=0;pointerEvents=1;fontSize=33;" parent="266" vertex="1">
                    <mxGeometry x="319" width="81" height="80" as="geometry">
                        <mxRectangle width="81" height="80" as="alternateBounds"/>
                    </mxGeometry>
                </mxCell>
                <mxCell id="272" value="&lt;font color=&quot;#000000&quot;&gt;Adjacency Matrix &lt;br&gt;with Self Loops (5 X 5)&lt;/font&gt;" style="text;html=1;align=center;verticalAlign=middle;resizable=0;points=[];autosize=1;strokeColor=none;fillColor=none;fontSize=33;fontColor=#F0F0F0;" parent="1" vertex="1">
                    <mxGeometry x="1174" y="476" width="350" height="91" as="geometry"/>
                </mxCell>
                <mxCell id="275" value="" style="shape=table;startSize=0;container=1;collapsible=0;childLayout=tableLayout;fontSize=33;fontColor=#F0F0F0;strokeWidth=3;" parent="1" vertex="1">
                    <mxGeometry x="1492" y="1827" width="400" height="400" as="geometry"/>
                </mxCell>
                <mxCell id="276" value="" style="shape=tableRow;horizontal=0;startSize=0;swimlaneHead=0;swimlaneBody=0;top=0;left=0;bottom=0;right=0;collapsible=0;dropTarget=0;fillColor=none;points=[[0,0.5],[1,0.5]];portConstraint=eastwest;fontSize=33;opacity=70;" parent="275" vertex="1">
                    <mxGeometry width="400" height="80" as="geometry"/>
                </mxCell>
                <mxCell id="277" value="1" style="shape=partialRectangle;html=1;whiteSpace=wrap;connectable=0;overflow=hidden;fillColor=#1ba1e2;top=0;left=0;bottom=0;right=0;pointerEvents=1;fontSize=33;fontColor=#ffffff;strokeColor=#006EAF;strokeWidth=3;fillStyle=auto;opacity=70;" parent="276" vertex="1">
                    <mxGeometry width="81" height="80" as="geometry">
                        <mxRectangle width="81" height="80" as="alternateBounds"/>
                    </mxGeometry>
                </mxCell>
                <mxCell id="278" value="1" style="shape=partialRectangle;html=1;whiteSpace=wrap;connectable=0;overflow=hidden;fillColor=#1ba1e2;top=0;left=0;bottom=0;right=0;pointerEvents=1;fontSize=33;fontColor=#ffffff;strokeColor=#006EAF;strokeWidth=3;fillStyle=auto;opacity=70;" parent="276" vertex="1">
                    <mxGeometry x="81" width="81" height="80" as="geometry">
                        <mxRectangle width="81" height="80" as="alternateBounds"/>
                    </mxGeometry>
                </mxCell>
                <mxCell id="279" value="1" style="shape=partialRectangle;html=1;whiteSpace=wrap;connectable=0;overflow=hidden;fillColor=#1ba1e2;top=0;left=0;bottom=0;right=0;pointerEvents=1;fontSize=33;fontColor=#ffffff;strokeColor=#006EAF;strokeWidth=3;fillStyle=auto;opacity=70;" parent="276" vertex="1">
                    <mxGeometry x="162" width="78" height="80" as="geometry">
                        <mxRectangle width="78" height="80" as="alternateBounds"/>
                    </mxGeometry>
                </mxCell>
                <mxCell id="280" value="0" style="shape=partialRectangle;html=1;whiteSpace=wrap;connectable=0;overflow=hidden;fillColor=#1ba1e2;top=0;left=0;bottom=0;right=0;pointerEvents=1;fontSize=33;fontColor=#ffffff;strokeColor=#006EAF;strokeWidth=3;fillStyle=auto;opacity=70;" parent="276" vertex="1">
                    <mxGeometry x="240" width="79" height="80" as="geometry">
                        <mxRectangle width="79" height="80" as="alternateBounds"/>
                    </mxGeometry>
                </mxCell>
                <mxCell id="281" value="0" style="shape=partialRectangle;html=1;whiteSpace=wrap;connectable=0;overflow=hidden;fillColor=#1ba1e2;top=0;left=0;bottom=0;right=0;pointerEvents=1;fontSize=33;fontColor=#ffffff;strokeColor=#006EAF;strokeWidth=3;fillStyle=auto;opacity=70;" parent="276" vertex="1">
                    <mxGeometry x="319" width="81" height="80" as="geometry">
                        <mxRectangle width="81" height="80" as="alternateBounds"/>
                    </mxGeometry>
                </mxCell>
                <mxCell id="282" value="" style="shape=tableRow;horizontal=0;startSize=0;swimlaneHead=0;swimlaneBody=0;top=0;left=0;bottom=0;right=0;collapsible=0;dropTarget=0;fillColor=none;points=[[0,0.5],[1,0.5]];portConstraint=eastwest;fontSize=33;" parent="275" vertex="1">
                    <mxGeometry y="80" width="400" height="80" as="geometry"/>
                </mxCell>
                <mxCell id="283" value="1" style="shape=partialRectangle;html=1;whiteSpace=wrap;connectable=0;overflow=hidden;fillColor=none;top=0;left=0;bottom=0;right=0;pointerEvents=1;fontSize=33;" parent="282" vertex="1">
                    <mxGeometry width="81" height="80" as="geometry">
                        <mxRectangle width="81" height="80" as="alternateBounds"/>
                    </mxGeometry>
                </mxCell>
                <mxCell id="284" value="1" style="shape=partialRectangle;html=1;whiteSpace=wrap;connectable=0;overflow=hidden;fillColor=none;top=0;left=0;bottom=0;right=0;pointerEvents=1;fontSize=33;" parent="282" vertex="1">
                    <mxGeometry x="81" width="81" height="80" as="geometry">
                        <mxRectangle width="81" height="80" as="alternateBounds"/>
                    </mxGeometry>
                </mxCell>
                <mxCell id="285" value="1" style="shape=partialRectangle;html=1;whiteSpace=wrap;connectable=0;overflow=hidden;fillColor=none;top=0;left=0;bottom=0;right=0;pointerEvents=1;fontSize=33;" parent="282" vertex="1">
                    <mxGeometry x="162" width="78" height="80" as="geometry">
                        <mxRectangle width="78" height="80" as="alternateBounds"/>
                    </mxGeometry>
                </mxCell>
                <mxCell id="286" value="1" style="shape=partialRectangle;html=1;whiteSpace=wrap;connectable=0;overflow=hidden;fillColor=none;top=0;left=0;bottom=0;right=0;pointerEvents=1;fontSize=33;" parent="282" vertex="1">
                    <mxGeometry x="240" width="79" height="80" as="geometry">
                        <mxRectangle width="79" height="80" as="alternateBounds"/>
                    </mxGeometry>
                </mxCell>
                <mxCell id="287" value="1" style="shape=partialRectangle;html=1;whiteSpace=wrap;connectable=0;overflow=hidden;fillColor=none;top=0;left=0;bottom=0;right=0;pointerEvents=1;fontSize=33;" parent="282" vertex="1">
                    <mxGeometry x="319" width="81" height="80" as="geometry">
                        <mxRectangle width="81" height="80" as="alternateBounds"/>
                    </mxGeometry>
                </mxCell>
                <mxCell id="288" value="" style="shape=tableRow;horizontal=0;startSize=0;swimlaneHead=0;swimlaneBody=0;top=0;left=0;bottom=0;right=0;collapsible=0;dropTarget=0;fillColor=none;points=[[0,0.5],[1,0.5]];portConstraint=eastwest;fontSize=33;" parent="275" vertex="1">
                    <mxGeometry y="160" width="400" height="80" as="geometry"/>
                </mxCell>
                <mxCell id="289" value="1" style="shape=partialRectangle;html=1;whiteSpace=wrap;connectable=0;overflow=hidden;fillColor=none;top=0;left=0;bottom=0;right=0;pointerEvents=1;fontSize=33;" parent="288" vertex="1">
                    <mxGeometry width="81" height="80" as="geometry">
                        <mxRectangle width="81" height="80" as="alternateBounds"/>
                    </mxGeometry>
                </mxCell>
                <mxCell id="290" value="1" style="shape=partialRectangle;html=1;whiteSpace=wrap;connectable=0;overflow=hidden;fillColor=none;top=0;left=0;bottom=0;right=0;pointerEvents=1;fontSize=33;" parent="288" vertex="1">
                    <mxGeometry x="81" width="81" height="80" as="geometry">
                        <mxRectangle width="81" height="80" as="alternateBounds"/>
                    </mxGeometry>
                </mxCell>
                <mxCell id="291" value="1" style="shape=partialRectangle;html=1;whiteSpace=wrap;connectable=0;overflow=hidden;fillColor=none;top=0;left=0;bottom=0;right=0;pointerEvents=1;fontSize=33;" parent="288" vertex="1">
                    <mxGeometry x="162" width="78" height="80" as="geometry">
                        <mxRectangle width="78" height="80" as="alternateBounds"/>
                    </mxGeometry>
                </mxCell>
                <mxCell id="292" value="0" style="shape=partialRectangle;html=1;whiteSpace=wrap;connectable=0;overflow=hidden;fillColor=none;top=0;left=0;bottom=0;right=0;pointerEvents=1;fontSize=33;" parent="288" vertex="1">
                    <mxGeometry x="240" width="79" height="80" as="geometry">
                        <mxRectangle width="79" height="80" as="alternateBounds"/>
                    </mxGeometry>
                </mxCell>
                <mxCell id="293" value="0" style="shape=partialRectangle;html=1;whiteSpace=wrap;connectable=0;overflow=hidden;fillColor=none;top=0;left=0;bottom=0;right=0;pointerEvents=1;fontSize=33;" parent="288" vertex="1">
                    <mxGeometry x="319" width="81" height="80" as="geometry">
                        <mxRectangle width="81" height="80" as="alternateBounds"/>
                    </mxGeometry>
                </mxCell>
                <mxCell id="294" value="" style="shape=tableRow;horizontal=0;startSize=0;swimlaneHead=0;swimlaneBody=0;top=0;left=0;bottom=0;right=0;collapsible=0;dropTarget=0;fillColor=none;points=[[0,0.5],[1,0.5]];portConstraint=eastwest;fontSize=33;" parent="275" vertex="1">
                    <mxGeometry y="240" width="400" height="80" as="geometry"/>
                </mxCell>
                <mxCell id="295" value="0" style="shape=partialRectangle;html=1;whiteSpace=wrap;connectable=0;overflow=hidden;fillColor=none;top=0;left=0;bottom=0;right=0;pointerEvents=1;fontSize=33;" parent="294" vertex="1">
                    <mxGeometry width="81" height="80" as="geometry">
                        <mxRectangle width="81" height="80" as="alternateBounds"/>
                    </mxGeometry>
                </mxCell>
                <mxCell id="296" value="1" style="shape=partialRectangle;html=1;whiteSpace=wrap;connectable=0;overflow=hidden;fillColor=none;top=0;left=0;bottom=0;right=0;pointerEvents=1;fontSize=33;" parent="294" vertex="1">
                    <mxGeometry x="81" width="81" height="80" as="geometry">
                        <mxRectangle width="81" height="80" as="alternateBounds"/>
                    </mxGeometry>
                </mxCell>
                <mxCell id="297" value="0" style="shape=partialRectangle;html=1;whiteSpace=wrap;connectable=0;overflow=hidden;fillColor=none;top=0;left=0;bottom=0;right=0;pointerEvents=1;fontSize=33;" parent="294" vertex="1">
                    <mxGeometry x="162" width="78" height="80" as="geometry">
                        <mxRectangle width="78" height="80" as="alternateBounds"/>
                    </mxGeometry>
                </mxCell>
                <mxCell id="298" value="1" style="shape=partialRectangle;html=1;whiteSpace=wrap;connectable=0;overflow=hidden;fillColor=none;top=0;left=0;bottom=0;right=0;pointerEvents=1;fontSize=33;" parent="294" vertex="1">
                    <mxGeometry x="240" width="79" height="80" as="geometry">
                        <mxRectangle width="79" height="80" as="alternateBounds"/>
                    </mxGeometry>
                </mxCell>
                <mxCell id="299" value="1" style="shape=partialRectangle;html=1;whiteSpace=wrap;connectable=0;overflow=hidden;fillColor=none;top=0;left=0;bottom=0;right=0;pointerEvents=1;fontSize=33;" parent="294" vertex="1">
                    <mxGeometry x="319" width="81" height="80" as="geometry">
                        <mxRectangle width="81" height="80" as="alternateBounds"/>
                    </mxGeometry>
                </mxCell>
                <mxCell id="300" value="" style="shape=tableRow;horizontal=0;startSize=0;swimlaneHead=0;swimlaneBody=0;top=0;left=0;bottom=0;right=0;collapsible=0;dropTarget=0;fillColor=none;points=[[0,0.5],[1,0.5]];portConstraint=eastwest;fontSize=33;" parent="275" vertex="1">
                    <mxGeometry y="320" width="400" height="80" as="geometry"/>
                </mxCell>
                <mxCell id="301" value="0" style="shape=partialRectangle;html=1;whiteSpace=wrap;connectable=0;overflow=hidden;fillColor=none;top=0;left=0;bottom=0;right=0;pointerEvents=1;fontSize=33;" parent="300" vertex="1">
                    <mxGeometry width="81" height="80" as="geometry">
                        <mxRectangle width="81" height="80" as="alternateBounds"/>
                    </mxGeometry>
                </mxCell>
                <mxCell id="302" value="1" style="shape=partialRectangle;html=1;whiteSpace=wrap;connectable=0;overflow=hidden;fillColor=none;top=0;left=0;bottom=0;right=0;pointerEvents=1;fontSize=33;" parent="300" vertex="1">
                    <mxGeometry x="81" width="81" height="80" as="geometry">
                        <mxRectangle width="81" height="80" as="alternateBounds"/>
                    </mxGeometry>
                </mxCell>
                <mxCell id="303" value="0" style="shape=partialRectangle;html=1;whiteSpace=wrap;connectable=0;overflow=hidden;fillColor=none;top=0;left=0;bottom=0;right=0;pointerEvents=1;fontSize=33;" parent="300" vertex="1">
                    <mxGeometry x="162" width="78" height="80" as="geometry">
                        <mxRectangle width="78" height="80" as="alternateBounds"/>
                    </mxGeometry>
                </mxCell>
                <mxCell id="304" value="1" style="shape=partialRectangle;html=1;whiteSpace=wrap;connectable=0;overflow=hidden;fillColor=none;top=0;left=0;bottom=0;right=0;pointerEvents=1;fontSize=33;" parent="300" vertex="1">
                    <mxGeometry x="240" width="79" height="80" as="geometry">
                        <mxRectangle width="79" height="80" as="alternateBounds"/>
                    </mxGeometry>
                </mxCell>
                <mxCell id="305" value="1" style="shape=partialRectangle;html=1;whiteSpace=wrap;connectable=0;overflow=hidden;fillColor=none;top=0;left=0;bottom=0;right=0;pointerEvents=1;fontSize=33;" parent="300" vertex="1">
                    <mxGeometry x="319" width="81" height="80" as="geometry">
                        <mxRectangle width="81" height="80" as="alternateBounds"/>
                    </mxGeometry>
                </mxCell>
                <mxCell id="826" style="edgeStyle=none;rounded=1;html=1;entryX=-0.002;entryY=-0.025;entryDx=0;entryDy=0;entryPerimeter=0;strokeColor=#005700;strokeWidth=5;fontSize=33;fontColor=#FFFFFF;startArrow=none;startFill=0;endArrow=classic;endFill=1;fillColor=#008a00;" parent="1" source="338" target="611" edge="1">
                    <mxGeometry relative="1" as="geometry"/>
                </mxCell>
                <mxCell id="338" value="" style="shape=table;startSize=0;container=1;collapsible=0;childLayout=tableLayout;strokeWidth=3;fontSize=33;fontColor=#000000;" parent="1" vertex="1">
                    <mxGeometry x="102" y="1021" width="400" height="400" as="geometry"/>
                </mxCell>
                <mxCell id="339" value="" style="shape=tableRow;horizontal=0;startSize=0;swimlaneHead=0;swimlaneBody=0;top=0;left=0;bottom=0;right=0;collapsible=0;dropTarget=0;fillColor=none;points=[[0,0.5],[1,0.5]];portConstraint=eastwest;strokeWidth=3;fontSize=33;fontColor=#000000;" parent="338" vertex="1">
                    <mxGeometry width="400" height="80" as="geometry"/>
                </mxCell>
                <mxCell id="340" value="h&lt;sub&gt;1&lt;/sub&gt;" style="shape=partialRectangle;html=1;whiteSpace=wrap;connectable=0;overflow=hidden;fillColor=#647687;top=0;left=0;bottom=0;right=0;pointerEvents=1;strokeWidth=3;fontSize=33;fontColor=#ffffff;strokeColor=#000000;" parent="339" vertex="1">
                    <mxGeometry width="80" height="80" as="geometry">
                        <mxRectangle width="80" height="80" as="alternateBounds"/>
                    </mxGeometry>
                </mxCell>
                <mxCell id="341" value="" style="shape=partialRectangle;html=1;whiteSpace=wrap;connectable=0;overflow=hidden;fillColor=none;top=0;left=0;bottom=0;right=0;pointerEvents=1;strokeWidth=3;fontSize=33;fontColor=#ffffff;strokeColor=#006EAF;fillStyle=auto;gradientColor=none;opacity=70;" parent="339" vertex="1">
                    <mxGeometry x="80" width="80" height="80" as="geometry">
                        <mxRectangle width="80" height="80" as="alternateBounds"/>
                    </mxGeometry>
                </mxCell>
                <mxCell id="342" value="" style="shape=partialRectangle;html=1;whiteSpace=wrap;connectable=0;overflow=hidden;fillColor=none;top=0;left=0;bottom=0;right=0;pointerEvents=1;strokeWidth=3;fontSize=33;fontColor=#ffffff;strokeColor=#006EAF;fillStyle=auto;gradientColor=none;opacity=70;" parent="339" vertex="1">
                    <mxGeometry x="160" width="80" height="80" as="geometry">
                        <mxRectangle width="80" height="80" as="alternateBounds"/>
                    </mxGeometry>
                </mxCell>
                <mxCell id="343" value="" style="shape=partialRectangle;html=1;whiteSpace=wrap;connectable=0;overflow=hidden;fillColor=none;top=0;left=0;bottom=0;right=0;pointerEvents=1;strokeWidth=3;fontSize=33;fontColor=#ffffff;strokeColor=#006EAF;fillStyle=auto;gradientColor=none;opacity=70;" parent="339" vertex="1">
                    <mxGeometry x="240" width="80" height="80" as="geometry">
                        <mxRectangle width="80" height="80" as="alternateBounds"/>
                    </mxGeometry>
                </mxCell>
                <mxCell id="344" value="" style="shape=partialRectangle;html=1;whiteSpace=wrap;connectable=0;overflow=hidden;fillColor=none;top=0;left=0;bottom=0;right=0;pointerEvents=1;strokeWidth=3;fontSize=33;fontColor=#ffffff;strokeColor=#006EAF;fillStyle=auto;gradientColor=none;opacity=70;" parent="339" vertex="1">
                    <mxGeometry x="320" width="80" height="80" as="geometry">
                        <mxRectangle width="80" height="80" as="alternateBounds"/>
                    </mxGeometry>
                </mxCell>
                <mxCell id="345" value="" style="shape=tableRow;horizontal=0;startSize=0;swimlaneHead=0;swimlaneBody=0;top=0;left=0;bottom=0;right=0;collapsible=0;dropTarget=0;fillColor=none;points=[[0,0.5],[1,0.5]];portConstraint=eastwest;strokeWidth=3;fontSize=33;fontColor=#000000;" parent="338" vertex="1">
                    <mxGeometry y="80" width="400" height="80" as="geometry"/>
                </mxCell>
                <mxCell id="346" value="h&lt;sub&gt;2&lt;/sub&gt;" style="shape=partialRectangle;html=1;whiteSpace=wrap;connectable=0;overflow=hidden;fillColor=#647687;top=0;left=0;bottom=0;right=0;pointerEvents=1;strokeWidth=3;fontSize=33;fontColor=#ffffff;strokeColor=#000000;" parent="345" vertex="1">
                    <mxGeometry width="80" height="80" as="geometry">
                        <mxRectangle width="80" height="80" as="alternateBounds"/>
                    </mxGeometry>
                </mxCell>
                <mxCell id="347" value="" style="shape=partialRectangle;html=1;whiteSpace=wrap;connectable=0;overflow=hidden;fillColor=none;top=0;left=0;bottom=0;right=0;pointerEvents=1;strokeWidth=3;fontSize=33;fontColor=#ffffff;strokeColor=#006EAF;fillStyle=auto;gradientColor=none;opacity=70;" parent="345" vertex="1">
                    <mxGeometry x="80" width="80" height="80" as="geometry">
                        <mxRectangle width="80" height="80" as="alternateBounds"/>
                    </mxGeometry>
                </mxCell>
                <mxCell id="348" value="" style="shape=partialRectangle;html=1;whiteSpace=wrap;connectable=0;overflow=hidden;fillColor=none;top=0;left=0;bottom=0;right=0;pointerEvents=1;strokeWidth=3;fontSize=33;fontColor=#ffffff;strokeColor=#006EAF;fillStyle=auto;gradientColor=none;opacity=70;" parent="345" vertex="1">
                    <mxGeometry x="160" width="80" height="80" as="geometry">
                        <mxRectangle width="80" height="80" as="alternateBounds"/>
                    </mxGeometry>
                </mxCell>
                <mxCell id="349" value="" style="shape=partialRectangle;html=1;whiteSpace=wrap;connectable=0;overflow=hidden;fillColor=none;top=0;left=0;bottom=0;right=0;pointerEvents=1;strokeWidth=3;fontSize=33;fontColor=#ffffff;strokeColor=#006EAF;fillStyle=auto;gradientColor=none;opacity=70;" parent="345" vertex="1">
                    <mxGeometry x="240" width="80" height="80" as="geometry">
                        <mxRectangle width="80" height="80" as="alternateBounds"/>
                    </mxGeometry>
                </mxCell>
                <mxCell id="350" value="" style="shape=partialRectangle;html=1;whiteSpace=wrap;connectable=0;overflow=hidden;fillColor=none;top=0;left=0;bottom=0;right=0;pointerEvents=1;strokeWidth=3;fontSize=33;fontColor=#ffffff;strokeColor=#006EAF;fillStyle=auto;gradientColor=none;opacity=70;" parent="345" vertex="1">
                    <mxGeometry x="320" width="80" height="80" as="geometry">
                        <mxRectangle width="80" height="80" as="alternateBounds"/>
                    </mxGeometry>
                </mxCell>
                <mxCell id="351" value="" style="shape=tableRow;horizontal=0;startSize=0;swimlaneHead=0;swimlaneBody=0;top=0;left=0;bottom=0;right=0;collapsible=0;dropTarget=0;fillColor=none;points=[[0,0.5],[1,0.5]];portConstraint=eastwest;strokeWidth=3;fontSize=33;fontColor=#000000;" parent="338" vertex="1">
                    <mxGeometry y="160" width="400" height="80" as="geometry"/>
                </mxCell>
                <mxCell id="352" value="h&lt;sub&gt;3&lt;/sub&gt;" style="shape=partialRectangle;html=1;whiteSpace=wrap;connectable=0;overflow=hidden;fillColor=#647687;top=0;left=0;bottom=0;right=0;pointerEvents=1;strokeWidth=3;fontSize=33;fontColor=#ffffff;strokeColor=#000000;" parent="351" vertex="1">
                    <mxGeometry width="80" height="80" as="geometry">
                        <mxRectangle width="80" height="80" as="alternateBounds"/>
                    </mxGeometry>
                </mxCell>
                <mxCell id="353" value="" style="shape=partialRectangle;html=1;whiteSpace=wrap;connectable=0;overflow=hidden;fillColor=none;top=0;left=0;bottom=0;right=0;pointerEvents=1;strokeWidth=3;fontSize=33;fontColor=#ffffff;strokeColor=#006EAF;fillStyle=auto;gradientColor=none;opacity=70;" parent="351" vertex="1">
                    <mxGeometry x="80" width="80" height="80" as="geometry">
                        <mxRectangle width="80" height="80" as="alternateBounds"/>
                    </mxGeometry>
                </mxCell>
                <mxCell id="354" value="" style="shape=partialRectangle;html=1;whiteSpace=wrap;connectable=0;overflow=hidden;fillColor=none;top=0;left=0;bottom=0;right=0;pointerEvents=1;strokeWidth=3;fontSize=33;fontColor=#ffffff;strokeColor=#006EAF;fillStyle=auto;gradientColor=none;opacity=70;" parent="351" vertex="1">
                    <mxGeometry x="160" width="80" height="80" as="geometry">
                        <mxRectangle width="80" height="80" as="alternateBounds"/>
                    </mxGeometry>
                </mxCell>
                <mxCell id="355" value="" style="shape=partialRectangle;html=1;whiteSpace=wrap;connectable=0;overflow=hidden;fillColor=none;top=0;left=0;bottom=0;right=0;pointerEvents=1;strokeWidth=3;fontSize=33;fontColor=#ffffff;strokeColor=#006EAF;fillStyle=auto;gradientColor=none;opacity=70;" parent="351" vertex="1">
                    <mxGeometry x="240" width="80" height="80" as="geometry">
                        <mxRectangle width="80" height="80" as="alternateBounds"/>
                    </mxGeometry>
                </mxCell>
                <mxCell id="356" value="" style="shape=partialRectangle;html=1;whiteSpace=wrap;connectable=0;overflow=hidden;fillColor=none;top=0;left=0;bottom=0;right=0;pointerEvents=1;strokeWidth=3;fontSize=33;fontColor=#ffffff;strokeColor=#006EAF;fillStyle=auto;gradientColor=none;opacity=70;" parent="351" vertex="1">
                    <mxGeometry x="320" width="80" height="80" as="geometry">
                        <mxRectangle width="80" height="80" as="alternateBounds"/>
                    </mxGeometry>
                </mxCell>
                <mxCell id="357" value="" style="shape=tableRow;horizontal=0;startSize=0;swimlaneHead=0;swimlaneBody=0;top=0;left=0;bottom=0;right=0;collapsible=0;dropTarget=0;fillColor=none;points=[[0,0.5],[1,0.5]];portConstraint=eastwest;strokeWidth=3;fontSize=33;fontColor=#000000;" parent="338" vertex="1">
                    <mxGeometry y="240" width="400" height="80" as="geometry"/>
                </mxCell>
                <mxCell id="358" value="h&lt;sub&gt;4&lt;/sub&gt;" style="shape=partialRectangle;html=1;whiteSpace=wrap;connectable=0;overflow=hidden;fillColor=#647687;top=0;left=0;bottom=0;right=0;pointerEvents=1;strokeWidth=3;fontSize=33;fontColor=#ffffff;strokeColor=#000000;" parent="357" vertex="1">
                    <mxGeometry width="80" height="80" as="geometry">
                        <mxRectangle width="80" height="80" as="alternateBounds"/>
                    </mxGeometry>
                </mxCell>
                <mxCell id="359" value="" style="shape=partialRectangle;html=1;whiteSpace=wrap;connectable=0;overflow=hidden;fillColor=none;top=0;left=0;bottom=0;right=0;pointerEvents=1;strokeWidth=3;fontSize=33;fontColor=#ffffff;strokeColor=#006EAF;opacity=70;" parent="357" vertex="1">
                    <mxGeometry x="80" width="80" height="80" as="geometry">
                        <mxRectangle width="80" height="80" as="alternateBounds"/>
                    </mxGeometry>
                </mxCell>
                <mxCell id="360" value="" style="shape=partialRectangle;html=1;whiteSpace=wrap;connectable=0;overflow=hidden;fillColor=none;top=0;left=0;bottom=0;right=0;pointerEvents=1;strokeWidth=3;fontSize=33;fontColor=#ffffff;strokeColor=#006EAF;opacity=70;" parent="357" vertex="1">
                    <mxGeometry x="160" width="80" height="80" as="geometry">
                        <mxRectangle width="80" height="80" as="alternateBounds"/>
                    </mxGeometry>
                </mxCell>
                <mxCell id="361" value="" style="shape=partialRectangle;html=1;whiteSpace=wrap;connectable=0;overflow=hidden;fillColor=none;top=0;left=0;bottom=0;right=0;pointerEvents=1;strokeWidth=3;fontSize=33;fontColor=#ffffff;strokeColor=#006EAF;opacity=70;" parent="357" vertex="1">
                    <mxGeometry x="240" width="80" height="80" as="geometry">
                        <mxRectangle width="80" height="80" as="alternateBounds"/>
                    </mxGeometry>
                </mxCell>
                <mxCell id="362" value="" style="shape=partialRectangle;html=1;whiteSpace=wrap;connectable=0;overflow=hidden;fillColor=none;top=0;left=0;bottom=0;right=0;pointerEvents=1;strokeWidth=3;fontSize=33;fontColor=#ffffff;strokeColor=#006EAF;opacity=70;" parent="357" vertex="1">
                    <mxGeometry x="320" width="80" height="80" as="geometry">
                        <mxRectangle width="80" height="80" as="alternateBounds"/>
                    </mxGeometry>
                </mxCell>
                <mxCell id="363" value="" style="shape=tableRow;horizontal=0;startSize=0;swimlaneHead=0;swimlaneBody=0;top=0;left=0;bottom=0;right=0;collapsible=0;dropTarget=0;fillColor=none;points=[[0,0.5],[1,0.5]];portConstraint=eastwest;strokeWidth=3;fontSize=33;fontColor=#000000;" parent="338" vertex="1">
                    <mxGeometry y="320" width="400" height="80" as="geometry"/>
                </mxCell>
                <mxCell id="364" value="h&lt;sub&gt;5&lt;/sub&gt;" style="shape=partialRectangle;html=1;whiteSpace=wrap;connectable=0;overflow=hidden;fillColor=#647687;top=0;left=0;bottom=0;right=0;pointerEvents=1;strokeWidth=3;fontSize=33;fontColor=#ffffff;strokeColor=#000000;" parent="363" vertex="1">
                    <mxGeometry width="80" height="80" as="geometry">
                        <mxRectangle width="80" height="80" as="alternateBounds"/>
                    </mxGeometry>
                </mxCell>
                <mxCell id="365" value="" style="shape=partialRectangle;html=1;whiteSpace=wrap;connectable=0;overflow=hidden;fillColor=none;top=0;left=0;bottom=0;right=0;pointerEvents=1;strokeWidth=3;fontSize=33;fontColor=#ffffff;strokeColor=#006EAF;opacity=70;" parent="363" vertex="1">
                    <mxGeometry x="80" width="80" height="80" as="geometry">
                        <mxRectangle width="80" height="80" as="alternateBounds"/>
                    </mxGeometry>
                </mxCell>
                <mxCell id="366" value="" style="shape=partialRectangle;html=1;whiteSpace=wrap;connectable=0;overflow=hidden;fillColor=none;top=0;left=0;bottom=0;right=0;pointerEvents=1;strokeWidth=3;fontSize=33;fontColor=#ffffff;strokeColor=#006EAF;opacity=70;" parent="363" vertex="1">
                    <mxGeometry x="160" width="80" height="80" as="geometry">
                        <mxRectangle width="80" height="80" as="alternateBounds"/>
                    </mxGeometry>
                </mxCell>
                <mxCell id="367" value="" style="shape=partialRectangle;html=1;whiteSpace=wrap;connectable=0;overflow=hidden;fillColor=none;top=0;left=0;bottom=0;right=0;pointerEvents=1;strokeWidth=3;fontSize=33;fontColor=#ffffff;strokeColor=#006EAF;opacity=70;" parent="363" vertex="1">
                    <mxGeometry x="240" width="80" height="80" as="geometry">
                        <mxRectangle width="80" height="80" as="alternateBounds"/>
                    </mxGeometry>
                </mxCell>
                <mxCell id="368" value="" style="shape=partialRectangle;html=1;whiteSpace=wrap;connectable=0;overflow=hidden;fillColor=none;top=0;left=0;bottom=0;right=0;pointerEvents=1;strokeWidth=3;fontSize=33;fontColor=#ffffff;strokeColor=#006EAF;opacity=70;" parent="363" vertex="1">
                    <mxGeometry x="320" width="80" height="80" as="geometry">
                        <mxRectangle width="80" height="80" as="alternateBounds"/>
                    </mxGeometry>
                </mxCell>
                <mxCell id="833" style="edgeStyle=none;rounded=1;html=1;strokeColor=#005700;strokeWidth=5;fontSize=100;fontColor=#000000;startArrow=none;startFill=0;endArrow=classic;endFill=1;fillColor=#008a00;" parent="1" source="416" edge="1">
                    <mxGeometry relative="1" as="geometry">
                        <mxPoint x="268" y="2579" as="targetPoint"/>
                    </mxGeometry>
                </mxCell>
                <mxCell id="416" value="" style="shape=table;startSize=0;container=1;collapsible=0;childLayout=tableLayout;fillStyle=auto;strokeWidth=3;fontSize=66;html=1;" parent="1" vertex="1">
                    <mxGeometry x="172" y="1777" width="900" height="500" as="geometry"/>
                </mxCell>
                <mxCell id="426" value="" style="shape=tableRow;horizontal=0;startSize=0;swimlaneHead=0;swimlaneBody=0;top=0;left=0;bottom=0;right=0;collapsible=0;dropTarget=0;fillColor=#1ba1e2;points=[[0,0.5],[1,0.5]];portConstraint=eastwest;fillStyle=auto;strokeColor=#006EAF;strokeWidth=3;fontSize=66;fontColor=#ffffff;html=1;opacity=70;" parent="416" vertex="1">
                    <mxGeometry width="900" height="100" as="geometry"/>
                </mxCell>
                <mxCell id="427" value="&lt;font style=&quot;font-size: 33px;&quot;&gt;h&lt;sub&gt;1&lt;/sub&gt;&lt;sup&gt;*&lt;/sup&gt;&lt;/font&gt;" style="shape=partialRectangle;html=1;whiteSpace=wrap;connectable=0;overflow=hidden;top=0;left=0;bottom=0;right=0;pointerEvents=1;fillStyle=auto;strokeWidth=3;fontSize=66;fillColor=#647687;fontColor=#ffffff;strokeColor=#314354;" parent="426" vertex="1">
                    <mxGeometry width="100" height="100" as="geometry">
                        <mxRectangle width="100" height="100" as="alternateBounds"/>
                    </mxGeometry>
                </mxCell>
                <mxCell id="428" value="" style="shape=partialRectangle;html=1;whiteSpace=wrap;connectable=0;overflow=hidden;fillColor=none;top=0;left=0;bottom=0;right=0;pointerEvents=1;fillStyle=auto;strokeColor=#FFFF00;strokeWidth=3;fontSize=66;fontColor=#000000;" parent="426" vertex="1">
                    <mxGeometry x="100" width="100" height="100" as="geometry">
                        <mxRectangle width="100" height="100" as="alternateBounds"/>
                    </mxGeometry>
                </mxCell>
                <mxCell id="762" style="shape=partialRectangle;html=1;whiteSpace=wrap;connectable=0;overflow=hidden;fillColor=none;top=0;left=0;bottom=0;right=0;pointerEvents=1;fillStyle=auto;strokeColor=#FFFF00;strokeWidth=3;fontSize=66;fontColor=#000000;" parent="426" vertex="1">
                    <mxGeometry x="200" width="100" height="100" as="geometry">
                        <mxRectangle width="100" height="100" as="alternateBounds"/>
                    </mxGeometry>
                </mxCell>
                <mxCell id="429" value="" style="shape=partialRectangle;html=1;whiteSpace=wrap;connectable=0;overflow=hidden;fillColor=none;top=0;left=0;bottom=0;right=0;pointerEvents=1;fillStyle=auto;strokeColor=#FFFF00;strokeWidth=3;fontSize=66;fontColor=#000000;" parent="426" vertex="1">
                    <mxGeometry x="300" width="100" height="100" as="geometry">
                        <mxRectangle width="100" height="100" as="alternateBounds"/>
                    </mxGeometry>
                </mxCell>
                <mxCell id="430" value="" style="shape=partialRectangle;html=1;whiteSpace=wrap;connectable=0;overflow=hidden;fillColor=none;top=0;left=0;bottom=0;right=0;pointerEvents=1;fillStyle=auto;strokeColor=#FFFF00;strokeWidth=3;fontSize=66;fontColor=#000000;" parent="426" vertex="1">
                    <mxGeometry x="400" width="100" height="100" as="geometry">
                        <mxRectangle width="100" height="100" as="alternateBounds"/>
                    </mxGeometry>
                </mxCell>
                <mxCell id="431" value="" style="shape=partialRectangle;html=1;whiteSpace=wrap;connectable=0;overflow=hidden;fillColor=none;top=0;left=0;bottom=0;right=0;pointerEvents=1;fillStyle=auto;strokeColor=#FFFF00;strokeWidth=3;fontSize=66;fontColor=#000000;" parent="426" vertex="1">
                    <mxGeometry x="500" width="100" height="100" as="geometry">
                        <mxRectangle width="100" height="100" as="alternateBounds"/>
                    </mxGeometry>
                </mxCell>
                <mxCell id="432" value="" style="shape=partialRectangle;html=1;whiteSpace=wrap;connectable=0;overflow=hidden;fillColor=none;top=0;left=0;bottom=0;right=0;pointerEvents=1;fillStyle=auto;strokeColor=#FFFF00;strokeWidth=3;fontSize=66;fontColor=#000000;" parent="426" vertex="1">
                    <mxGeometry x="600" width="100" height="100" as="geometry">
                        <mxRectangle width="100" height="100" as="alternateBounds"/>
                    </mxGeometry>
                </mxCell>
                <mxCell id="433" value="" style="shape=partialRectangle;html=1;whiteSpace=wrap;connectable=0;overflow=hidden;fillColor=none;top=0;left=0;bottom=0;right=0;pointerEvents=1;fillStyle=auto;strokeColor=#FFFF00;strokeWidth=3;fontSize=66;fontColor=#000000;" parent="426" vertex="1">
                    <mxGeometry x="700" width="100" height="100" as="geometry">
                        <mxRectangle width="100" height="100" as="alternateBounds"/>
                    </mxGeometry>
                </mxCell>
                <mxCell id="434" value="" style="shape=partialRectangle;html=1;whiteSpace=wrap;connectable=0;overflow=hidden;fillColor=none;top=0;left=0;bottom=0;right=0;pointerEvents=1;fillStyle=auto;strokeColor=#FFFF00;strokeWidth=3;fontSize=66;fontColor=#000000;" parent="426" vertex="1">
                    <mxGeometry x="800" width="100" height="100" as="geometry">
                        <mxRectangle width="100" height="100" as="alternateBounds"/>
                    </mxGeometry>
                </mxCell>
                <mxCell id="514" value="" style="shape=tableRow;horizontal=0;startSize=0;swimlaneHead=0;swimlaneBody=0;top=0;left=0;bottom=0;right=0;collapsible=0;dropTarget=0;fillColor=#1ba1e2;points=[[0,0.5],[1,0.5]];portConstraint=eastwest;fillStyle=auto;strokeColor=#006EAF;strokeWidth=3;fontSize=66;fontColor=#ffffff;html=1;opacity=70;" parent="416" vertex="1">
                    <mxGeometry y="100" width="900" height="100" as="geometry"/>
                </mxCell>
                <mxCell id="515" value="h&lt;sub style=&quot;font-size: 33px;&quot;&gt;2&lt;/sub&gt;&lt;sup&gt;*&lt;/sup&gt;" style="shape=partialRectangle;html=1;whiteSpace=wrap;connectable=0;overflow=hidden;top=0;left=0;bottom=0;right=0;pointerEvents=1;fillStyle=auto;strokeWidth=3;fontSize=33;fillColor=#647687;fontColor=#ffffff;strokeColor=#314354;" parent="514" vertex="1">
                    <mxGeometry width="100" height="100" as="geometry">
                        <mxRectangle width="100" height="100" as="alternateBounds"/>
                    </mxGeometry>
                </mxCell>
                <mxCell id="516" value="" style="shape=partialRectangle;html=1;whiteSpace=wrap;connectable=0;overflow=hidden;fillColor=none;top=0;left=0;bottom=0;right=0;pointerEvents=1;fillStyle=auto;strokeColor=#FFFF00;strokeWidth=3;fontSize=66;fontColor=#000000;" parent="514" vertex="1">
                    <mxGeometry x="100" width="100" height="100" as="geometry">
                        <mxRectangle width="100" height="100" as="alternateBounds"/>
                    </mxGeometry>
                </mxCell>
                <mxCell id="763" style="shape=partialRectangle;html=1;whiteSpace=wrap;connectable=0;overflow=hidden;fillColor=none;top=0;left=0;bottom=0;right=0;pointerEvents=1;fillStyle=auto;strokeColor=#FFFF00;strokeWidth=3;fontSize=66;fontColor=#000000;" parent="514" vertex="1">
                    <mxGeometry x="200" width="100" height="100" as="geometry">
                        <mxRectangle width="100" height="100" as="alternateBounds"/>
                    </mxGeometry>
                </mxCell>
                <mxCell id="517" value="" style="shape=partialRectangle;html=1;whiteSpace=wrap;connectable=0;overflow=hidden;fillColor=none;top=0;left=0;bottom=0;right=0;pointerEvents=1;fillStyle=auto;strokeColor=#FFFF00;strokeWidth=3;fontSize=66;fontColor=#000000;" parent="514" vertex="1">
                    <mxGeometry x="300" width="100" height="100" as="geometry">
                        <mxRectangle width="100" height="100" as="alternateBounds"/>
                    </mxGeometry>
                </mxCell>
                <mxCell id="518" value="" style="shape=partialRectangle;html=1;whiteSpace=wrap;connectable=0;overflow=hidden;fillColor=none;top=0;left=0;bottom=0;right=0;pointerEvents=1;fillStyle=auto;strokeColor=#FFFF00;strokeWidth=3;fontSize=66;fontColor=#000000;" parent="514" vertex="1">
                    <mxGeometry x="400" width="100" height="100" as="geometry">
                        <mxRectangle width="100" height="100" as="alternateBounds"/>
                    </mxGeometry>
                </mxCell>
                <mxCell id="519" value="" style="shape=partialRectangle;html=1;whiteSpace=wrap;connectable=0;overflow=hidden;fillColor=none;top=0;left=0;bottom=0;right=0;pointerEvents=1;fillStyle=auto;strokeColor=#FFFF00;strokeWidth=3;fontSize=66;fontColor=#000000;" parent="514" vertex="1">
                    <mxGeometry x="500" width="100" height="100" as="geometry">
                        <mxRectangle width="100" height="100" as="alternateBounds"/>
                    </mxGeometry>
                </mxCell>
                <mxCell id="520" value="" style="shape=partialRectangle;html=1;whiteSpace=wrap;connectable=0;overflow=hidden;fillColor=none;top=0;left=0;bottom=0;right=0;pointerEvents=1;fillStyle=auto;strokeColor=#FFFF00;strokeWidth=3;fontSize=66;fontColor=#000000;" parent="514" vertex="1">
                    <mxGeometry x="600" width="100" height="100" as="geometry">
                        <mxRectangle width="100" height="100" as="alternateBounds"/>
                    </mxGeometry>
                </mxCell>
                <mxCell id="521" value="" style="shape=partialRectangle;html=1;whiteSpace=wrap;connectable=0;overflow=hidden;fillColor=none;top=0;left=0;bottom=0;right=0;pointerEvents=1;fillStyle=auto;strokeColor=#FFFF00;strokeWidth=3;fontSize=66;fontColor=#000000;" parent="514" vertex="1">
                    <mxGeometry x="700" width="100" height="100" as="geometry">
                        <mxRectangle width="100" height="100" as="alternateBounds"/>
                    </mxGeometry>
                </mxCell>
                <mxCell id="522" value="" style="shape=partialRectangle;html=1;whiteSpace=wrap;connectable=0;overflow=hidden;fillColor=none;top=0;left=0;bottom=0;right=0;pointerEvents=1;fillStyle=auto;strokeColor=#FFFF00;strokeWidth=3;fontSize=66;fontColor=#000000;" parent="514" vertex="1">
                    <mxGeometry x="800" width="100" height="100" as="geometry">
                        <mxRectangle width="100" height="100" as="alternateBounds"/>
                    </mxGeometry>
                </mxCell>
                <mxCell id="435" value="" style="shape=tableRow;horizontal=0;startSize=0;swimlaneHead=0;swimlaneBody=0;top=0;left=0;bottom=0;right=0;collapsible=0;dropTarget=0;fillColor=#1ba1e2;points=[[0,0.5],[1,0.5]];portConstraint=eastwest;fillStyle=auto;strokeColor=#006EAF;strokeWidth=3;fontSize=66;fontColor=#ffffff;html=1;opacity=70;" parent="416" vertex="1">
                    <mxGeometry y="200" width="900" height="100" as="geometry"/>
                </mxCell>
                <mxCell id="436" value="h&lt;sub style=&quot;font-size: 33px;&quot;&gt;3&lt;/sub&gt;&lt;sup&gt;*&lt;/sup&gt;" style="shape=partialRectangle;html=1;whiteSpace=wrap;connectable=0;overflow=hidden;top=0;left=0;bottom=0;right=0;pointerEvents=1;fillStyle=auto;strokeWidth=3;fontSize=33;fillColor=#647687;fontColor=#ffffff;strokeColor=#314354;" parent="435" vertex="1">
                    <mxGeometry width="100" height="100" as="geometry">
                        <mxRectangle width="100" height="100" as="alternateBounds"/>
                    </mxGeometry>
                </mxCell>
                <mxCell id="437" value="" style="shape=partialRectangle;html=1;whiteSpace=wrap;connectable=0;overflow=hidden;fillColor=none;top=0;left=0;bottom=0;right=0;pointerEvents=1;fillStyle=auto;strokeColor=#FFFF00;strokeWidth=3;fontSize=66;fontColor=#000000;" parent="435" vertex="1">
                    <mxGeometry x="100" width="100" height="100" as="geometry">
                        <mxRectangle width="100" height="100" as="alternateBounds"/>
                    </mxGeometry>
                </mxCell>
                <mxCell id="764" style="shape=partialRectangle;html=1;whiteSpace=wrap;connectable=0;overflow=hidden;fillColor=none;top=0;left=0;bottom=0;right=0;pointerEvents=1;fillStyle=auto;strokeColor=#FFFF00;strokeWidth=3;fontSize=66;fontColor=#000000;" parent="435" vertex="1">
                    <mxGeometry x="200" width="100" height="100" as="geometry">
                        <mxRectangle width="100" height="100" as="alternateBounds"/>
                    </mxGeometry>
                </mxCell>
                <mxCell id="438" value="" style="shape=partialRectangle;html=1;whiteSpace=wrap;connectable=0;overflow=hidden;fillColor=none;top=0;left=0;bottom=0;right=0;pointerEvents=1;fillStyle=auto;strokeColor=#FFFF00;strokeWidth=3;fontSize=66;fontColor=#000000;" parent="435" vertex="1">
                    <mxGeometry x="300" width="100" height="100" as="geometry">
                        <mxRectangle width="100" height="100" as="alternateBounds"/>
                    </mxGeometry>
                </mxCell>
                <mxCell id="439" value="" style="shape=partialRectangle;html=1;whiteSpace=wrap;connectable=0;overflow=hidden;fillColor=none;top=0;left=0;bottom=0;right=0;pointerEvents=1;fillStyle=auto;strokeColor=#FFFF00;strokeWidth=3;fontSize=66;fontColor=#000000;" parent="435" vertex="1">
                    <mxGeometry x="400" width="100" height="100" as="geometry">
                        <mxRectangle width="100" height="100" as="alternateBounds"/>
                    </mxGeometry>
                </mxCell>
                <mxCell id="440" value="" style="shape=partialRectangle;html=1;whiteSpace=wrap;connectable=0;overflow=hidden;fillColor=none;top=0;left=0;bottom=0;right=0;pointerEvents=1;fillStyle=auto;strokeColor=#FFFF00;strokeWidth=3;fontSize=66;fontColor=#000000;" parent="435" vertex="1">
                    <mxGeometry x="500" width="100" height="100" as="geometry">
                        <mxRectangle width="100" height="100" as="alternateBounds"/>
                    </mxGeometry>
                </mxCell>
                <mxCell id="441" value="" style="shape=partialRectangle;html=1;whiteSpace=wrap;connectable=0;overflow=hidden;fillColor=none;top=0;left=0;bottom=0;right=0;pointerEvents=1;fillStyle=auto;strokeColor=#FFFF00;strokeWidth=3;fontSize=66;fontColor=#000000;" parent="435" vertex="1">
                    <mxGeometry x="600" width="100" height="100" as="geometry">
                        <mxRectangle width="100" height="100" as="alternateBounds"/>
                    </mxGeometry>
                </mxCell>
                <mxCell id="442" value="" style="shape=partialRectangle;html=1;whiteSpace=wrap;connectable=0;overflow=hidden;fillColor=none;top=0;left=0;bottom=0;right=0;pointerEvents=1;fillStyle=auto;strokeColor=#FFFF00;strokeWidth=3;fontSize=66;fontColor=#000000;" parent="435" vertex="1">
                    <mxGeometry x="700" width="100" height="100" as="geometry">
                        <mxRectangle width="100" height="100" as="alternateBounds"/>
                    </mxGeometry>
                </mxCell>
                <mxCell id="443" value="" style="shape=partialRectangle;html=1;whiteSpace=wrap;connectable=0;overflow=hidden;fillColor=none;top=0;left=0;bottom=0;right=0;pointerEvents=1;fillStyle=auto;strokeColor=#FFFF00;strokeWidth=3;fontSize=66;fontColor=#000000;" parent="435" vertex="1">
                    <mxGeometry x="800" width="100" height="100" as="geometry">
                        <mxRectangle width="100" height="100" as="alternateBounds"/>
                    </mxGeometry>
                </mxCell>
                <mxCell id="444" value="" style="shape=tableRow;horizontal=0;startSize=0;swimlaneHead=0;swimlaneBody=0;top=0;left=0;bottom=0;right=0;collapsible=0;dropTarget=0;fillColor=#a20025;points=[[0,0.5],[1,0.5]];portConstraint=eastwest;fillStyle=auto;strokeColor=#6F0000;strokeWidth=3;fontSize=66;fontColor=#ffffff;html=1;opacity=70;" parent="416" vertex="1">
                    <mxGeometry y="300" width="900" height="100" as="geometry"/>
                </mxCell>
                <mxCell id="445" value="h&lt;sub style=&quot;font-size: 33px;&quot;&gt;4&lt;/sub&gt;&lt;sup&gt;*&lt;/sup&gt;" style="shape=partialRectangle;html=1;whiteSpace=wrap;connectable=0;overflow=hidden;top=0;left=0;bottom=0;right=0;pointerEvents=1;fillStyle=auto;strokeWidth=3;fontSize=33;fillColor=#647687;fontColor=#ffffff;strokeColor=#314354;" parent="444" vertex="1">
                    <mxGeometry width="100" height="100" as="geometry">
                        <mxRectangle width="100" height="100" as="alternateBounds"/>
                    </mxGeometry>
                </mxCell>
                <mxCell id="446" value="" style="shape=partialRectangle;html=1;whiteSpace=wrap;connectable=0;overflow=hidden;fillColor=none;top=0;left=0;bottom=0;right=0;pointerEvents=1;fillStyle=auto;strokeColor=#FFFF00;strokeWidth=3;fontSize=66;fontColor=#000000;" parent="444" vertex="1">
                    <mxGeometry x="100" width="100" height="100" as="geometry">
                        <mxRectangle width="100" height="100" as="alternateBounds"/>
                    </mxGeometry>
                </mxCell>
                <mxCell id="765" style="shape=partialRectangle;html=1;whiteSpace=wrap;connectable=0;overflow=hidden;fillColor=none;top=0;left=0;bottom=0;right=0;pointerEvents=1;fillStyle=auto;strokeColor=#FFFF00;strokeWidth=3;fontSize=66;fontColor=#000000;" parent="444" vertex="1">
                    <mxGeometry x="200" width="100" height="100" as="geometry">
                        <mxRectangle width="100" height="100" as="alternateBounds"/>
                    </mxGeometry>
                </mxCell>
                <mxCell id="447" value="" style="shape=partialRectangle;html=1;whiteSpace=wrap;connectable=0;overflow=hidden;fillColor=none;top=0;left=0;bottom=0;right=0;pointerEvents=1;fillStyle=auto;strokeColor=#FFFF00;strokeWidth=3;fontSize=66;fontColor=#000000;" parent="444" vertex="1">
                    <mxGeometry x="300" width="100" height="100" as="geometry">
                        <mxRectangle width="100" height="100" as="alternateBounds"/>
                    </mxGeometry>
                </mxCell>
                <mxCell id="448" value="" style="shape=partialRectangle;html=1;whiteSpace=wrap;connectable=0;overflow=hidden;fillColor=none;top=0;left=0;bottom=0;right=0;pointerEvents=1;fillStyle=auto;strokeColor=#FFFF00;strokeWidth=3;fontSize=66;fontColor=#000000;" parent="444" vertex="1">
                    <mxGeometry x="400" width="100" height="100" as="geometry">
                        <mxRectangle width="100" height="100" as="alternateBounds"/>
                    </mxGeometry>
                </mxCell>
                <mxCell id="449" value="" style="shape=partialRectangle;html=1;whiteSpace=wrap;connectable=0;overflow=hidden;fillColor=none;top=0;left=0;bottom=0;right=0;pointerEvents=1;fillStyle=auto;strokeColor=#FFFF00;strokeWidth=3;fontSize=66;fontColor=#000000;" parent="444" vertex="1">
                    <mxGeometry x="500" width="100" height="100" as="geometry">
                        <mxRectangle width="100" height="100" as="alternateBounds"/>
                    </mxGeometry>
                </mxCell>
                <mxCell id="450" value="" style="shape=partialRectangle;html=1;whiteSpace=wrap;connectable=0;overflow=hidden;fillColor=none;top=0;left=0;bottom=0;right=0;pointerEvents=1;fillStyle=auto;strokeColor=#FFFF00;strokeWidth=3;fontSize=66;fontColor=#000000;" parent="444" vertex="1">
                    <mxGeometry x="600" width="100" height="100" as="geometry">
                        <mxRectangle width="100" height="100" as="alternateBounds"/>
                    </mxGeometry>
                </mxCell>
                <mxCell id="451" value="" style="shape=partialRectangle;html=1;whiteSpace=wrap;connectable=0;overflow=hidden;fillColor=none;top=0;left=0;bottom=0;right=0;pointerEvents=1;fillStyle=auto;strokeColor=#FFFF00;strokeWidth=3;fontSize=66;fontColor=#000000;" parent="444" vertex="1">
                    <mxGeometry x="700" width="100" height="100" as="geometry">
                        <mxRectangle width="100" height="100" as="alternateBounds"/>
                    </mxGeometry>
                </mxCell>
                <mxCell id="452" value="" style="shape=partialRectangle;html=1;whiteSpace=wrap;connectable=0;overflow=hidden;fillColor=none;top=0;left=0;bottom=0;right=0;pointerEvents=1;fillStyle=auto;strokeColor=#FFFF00;strokeWidth=3;fontSize=66;fontColor=#000000;" parent="444" vertex="1">
                    <mxGeometry x="800" width="100" height="100" as="geometry">
                        <mxRectangle width="100" height="100" as="alternateBounds"/>
                    </mxGeometry>
                </mxCell>
                <mxCell id="651" value="" style="shape=tableRow;horizontal=0;startSize=0;swimlaneHead=0;swimlaneBody=0;top=0;left=0;bottom=0;right=0;collapsible=0;dropTarget=0;fillColor=#a20025;points=[[0,0.5],[1,0.5]];portConstraint=eastwest;fillStyle=auto;strokeColor=#6F0000;strokeWidth=3;fontSize=66;fontColor=#ffffff;html=1;opacity=70;" parent="416" vertex="1">
                    <mxGeometry y="400" width="900" height="100" as="geometry"/>
                </mxCell>
                <mxCell id="652" value="h&lt;sub style=&quot;font-size: 33px;&quot;&gt;5&lt;/sub&gt;&lt;sup&gt;*&lt;/sup&gt;" style="shape=partialRectangle;html=1;whiteSpace=wrap;connectable=0;overflow=hidden;top=0;left=0;bottom=0;right=0;pointerEvents=1;fillStyle=auto;strokeWidth=3;fontSize=33;fillColor=#647687;fontColor=#ffffff;strokeColor=#314354;" parent="651" vertex="1">
                    <mxGeometry width="100" height="100" as="geometry">
                        <mxRectangle width="100" height="100" as="alternateBounds"/>
                    </mxGeometry>
                </mxCell>
                <mxCell id="653" value="" style="shape=partialRectangle;html=1;whiteSpace=wrap;connectable=0;overflow=hidden;fillColor=none;top=0;left=0;bottom=0;right=0;pointerEvents=1;fillStyle=auto;strokeColor=#FFFF00;strokeWidth=3;fontSize=66;fontColor=#000000;" parent="651" vertex="1">
                    <mxGeometry x="100" width="100" height="100" as="geometry">
                        <mxRectangle width="100" height="100" as="alternateBounds"/>
                    </mxGeometry>
                </mxCell>
                <mxCell id="766" style="shape=partialRectangle;html=1;whiteSpace=wrap;connectable=0;overflow=hidden;fillColor=none;top=0;left=0;bottom=0;right=0;pointerEvents=1;fillStyle=auto;strokeColor=#FFFF00;strokeWidth=3;fontSize=66;fontColor=#000000;" parent="651" vertex="1">
                    <mxGeometry x="200" width="100" height="100" as="geometry">
                        <mxRectangle width="100" height="100" as="alternateBounds"/>
                    </mxGeometry>
                </mxCell>
                <mxCell id="654" value="" style="shape=partialRectangle;html=1;whiteSpace=wrap;connectable=0;overflow=hidden;fillColor=none;top=0;left=0;bottom=0;right=0;pointerEvents=1;fillStyle=auto;strokeColor=#FFFF00;strokeWidth=3;fontSize=66;fontColor=#000000;" parent="651" vertex="1">
                    <mxGeometry x="300" width="100" height="100" as="geometry">
                        <mxRectangle width="100" height="100" as="alternateBounds"/>
                    </mxGeometry>
                </mxCell>
                <mxCell id="655" value="" style="shape=partialRectangle;html=1;whiteSpace=wrap;connectable=0;overflow=hidden;fillColor=none;top=0;left=0;bottom=0;right=0;pointerEvents=1;fillStyle=auto;strokeColor=#FFFF00;strokeWidth=3;fontSize=66;fontColor=#000000;" parent="651" vertex="1">
                    <mxGeometry x="400" width="100" height="100" as="geometry">
                        <mxRectangle width="100" height="100" as="alternateBounds"/>
                    </mxGeometry>
                </mxCell>
                <mxCell id="656" value="" style="shape=partialRectangle;html=1;whiteSpace=wrap;connectable=0;overflow=hidden;fillColor=none;top=0;left=0;bottom=0;right=0;pointerEvents=1;fillStyle=auto;strokeColor=#FFFF00;strokeWidth=3;fontSize=66;fontColor=#000000;" parent="651" vertex="1">
                    <mxGeometry x="500" width="100" height="100" as="geometry">
                        <mxRectangle width="100" height="100" as="alternateBounds"/>
                    </mxGeometry>
                </mxCell>
                <mxCell id="657" value="" style="shape=partialRectangle;html=1;whiteSpace=wrap;connectable=0;overflow=hidden;fillColor=none;top=0;left=0;bottom=0;right=0;pointerEvents=1;fillStyle=auto;strokeColor=#FFFF00;strokeWidth=3;fontSize=66;fontColor=#000000;" parent="651" vertex="1">
                    <mxGeometry x="600" width="100" height="100" as="geometry">
                        <mxRectangle width="100" height="100" as="alternateBounds"/>
                    </mxGeometry>
                </mxCell>
                <mxCell id="658" value="" style="shape=partialRectangle;html=1;whiteSpace=wrap;connectable=0;overflow=hidden;fillColor=none;top=0;left=0;bottom=0;right=0;pointerEvents=1;fillStyle=auto;strokeColor=#FFFF00;strokeWidth=3;fontSize=66;fontColor=#000000;" parent="651" vertex="1">
                    <mxGeometry x="700" width="100" height="100" as="geometry">
                        <mxRectangle width="100" height="100" as="alternateBounds"/>
                    </mxGeometry>
                </mxCell>
                <mxCell id="659" value="" style="shape=partialRectangle;html=1;whiteSpace=wrap;connectable=0;overflow=hidden;fillColor=none;top=0;left=0;bottom=0;right=0;pointerEvents=1;fillStyle=auto;strokeColor=#FFFF00;strokeWidth=3;fontSize=66;fontColor=#000000;" parent="651" vertex="1">
                    <mxGeometry x="800" width="100" height="100" as="geometry">
                        <mxRectangle width="100" height="100" as="alternateBounds"/>
                    </mxGeometry>
                </mxCell>
                <mxCell id="573" value="" style="shape=table;startSize=0;container=1;collapsible=0;childLayout=tableLayout;fillStyle=auto;strokeWidth=3;fontSize=66;html=1;" parent="1" vertex="1">
                    <mxGeometry x="2169" y="69" width="800" height="400" as="geometry"/>
                </mxCell>
                <mxCell id="574" value="" style="shape=tableRow;horizontal=0;startSize=0;swimlaneHead=0;swimlaneBody=0;top=0;left=0;bottom=0;right=0;collapsible=0;dropTarget=0;fillColor=none;points=[[0,0.5],[1,0.5]];portConstraint=eastwest;fillStyle=auto;strokeColor=#006EAF;strokeWidth=3;fontSize=66;fontColor=#ffffff;html=1;opacity=70;" parent="573" vertex="1">
                    <mxGeometry width="800" height="100" as="geometry"/>
                </mxCell>
                <mxCell id="575" value="" style="shape=partialRectangle;html=1;whiteSpace=wrap;connectable=0;overflow=hidden;fillColor=none;top=0;left=0;bottom=0;right=0;pointerEvents=1;fillStyle=auto;strokeColor=#FFFF00;strokeWidth=3;fontSize=66;fontColor=#000000;" parent="574" vertex="1">
                    <mxGeometry width="100" height="100" as="geometry">
                        <mxRectangle width="100" height="100" as="alternateBounds"/>
                    </mxGeometry>
                </mxCell>
                <mxCell id="576" value="" style="shape=partialRectangle;html=1;whiteSpace=wrap;connectable=0;overflow=hidden;fillColor=none;top=0;left=0;bottom=0;right=0;pointerEvents=1;fillStyle=auto;strokeColor=#FFFF00;strokeWidth=3;fontSize=66;fontColor=#000000;" parent="574" vertex="1">
                    <mxGeometry x="100" width="100" height="100" as="geometry">
                        <mxRectangle width="100" height="100" as="alternateBounds"/>
                    </mxGeometry>
                </mxCell>
                <mxCell id="577" value="" style="shape=partialRectangle;html=1;whiteSpace=wrap;connectable=0;overflow=hidden;fillColor=none;top=0;left=0;bottom=0;right=0;pointerEvents=1;fillStyle=auto;strokeColor=#FFFF00;strokeWidth=3;fontSize=66;fontColor=#000000;" parent="574" vertex="1">
                    <mxGeometry x="200" width="100" height="100" as="geometry">
                        <mxRectangle width="100" height="100" as="alternateBounds"/>
                    </mxGeometry>
                </mxCell>
                <mxCell id="578" value="" style="shape=partialRectangle;html=1;whiteSpace=wrap;connectable=0;overflow=hidden;fillColor=none;top=0;left=0;bottom=0;right=0;pointerEvents=1;fillStyle=auto;strokeColor=#FFFF00;strokeWidth=3;fontSize=66;fontColor=#000000;" parent="574" vertex="1">
                    <mxGeometry x="300" width="100" height="100" as="geometry">
                        <mxRectangle width="100" height="100" as="alternateBounds"/>
                    </mxGeometry>
                </mxCell>
                <mxCell id="579" value="" style="shape=partialRectangle;html=1;whiteSpace=wrap;connectable=0;overflow=hidden;fillColor=none;top=0;left=0;bottom=0;right=0;pointerEvents=1;fillStyle=auto;strokeColor=#FFFF00;strokeWidth=3;fontSize=66;fontColor=#000000;" parent="574" vertex="1">
                    <mxGeometry x="400" width="100" height="100" as="geometry">
                        <mxRectangle width="100" height="100" as="alternateBounds"/>
                    </mxGeometry>
                </mxCell>
                <mxCell id="580" value="" style="shape=partialRectangle;html=1;whiteSpace=wrap;connectable=0;overflow=hidden;fillColor=none;top=0;left=0;bottom=0;right=0;pointerEvents=1;fillStyle=auto;strokeColor=#FFFF00;strokeWidth=3;fontSize=66;fontColor=#000000;" parent="574" vertex="1">
                    <mxGeometry x="500" width="100" height="100" as="geometry">
                        <mxRectangle width="100" height="100" as="alternateBounds"/>
                    </mxGeometry>
                </mxCell>
                <mxCell id="581" value="" style="shape=partialRectangle;html=1;whiteSpace=wrap;connectable=0;overflow=hidden;fillColor=none;top=0;left=0;bottom=0;right=0;pointerEvents=1;fillStyle=auto;strokeColor=#FFFF00;strokeWidth=3;fontSize=66;fontColor=#000000;" parent="574" vertex="1">
                    <mxGeometry x="600" width="100" height="100" as="geometry">
                        <mxRectangle width="100" height="100" as="alternateBounds"/>
                    </mxGeometry>
                </mxCell>
                <mxCell id="582" value="" style="shape=partialRectangle;html=1;whiteSpace=wrap;connectable=0;overflow=hidden;fillColor=none;top=0;left=0;bottom=0;right=0;pointerEvents=1;fillStyle=auto;strokeColor=#FFFF00;strokeWidth=3;fontSize=66;fontColor=#000000;" parent="574" vertex="1">
                    <mxGeometry x="700" width="100" height="100" as="geometry">
                        <mxRectangle width="100" height="100" as="alternateBounds"/>
                    </mxGeometry>
                </mxCell>
                <mxCell id="583" value="" style="shape=tableRow;horizontal=0;startSize=0;swimlaneHead=0;swimlaneBody=0;top=0;left=0;bottom=0;right=0;collapsible=0;dropTarget=0;fillColor=none;points=[[0,0.5],[1,0.5]];portConstraint=eastwest;fillStyle=auto;strokeColor=#006EAF;strokeWidth=3;fontSize=66;fontColor=#ffffff;html=1;opacity=70;" parent="573" vertex="1">
                    <mxGeometry y="100" width="800" height="100" as="geometry"/>
                </mxCell>
                <mxCell id="584" value="" style="shape=partialRectangle;html=1;whiteSpace=wrap;connectable=0;overflow=hidden;fillColor=none;top=0;left=0;bottom=0;right=0;pointerEvents=1;fillStyle=auto;strokeColor=#FFFF00;strokeWidth=3;fontSize=66;fontColor=#000000;" parent="583" vertex="1">
                    <mxGeometry width="100" height="100" as="geometry">
                        <mxRectangle width="100" height="100" as="alternateBounds"/>
                    </mxGeometry>
                </mxCell>
                <mxCell id="585" value="" style="shape=partialRectangle;html=1;whiteSpace=wrap;connectable=0;overflow=hidden;fillColor=none;top=0;left=0;bottom=0;right=0;pointerEvents=1;fillStyle=auto;strokeColor=#FFFF00;strokeWidth=3;fontSize=66;fontColor=#000000;" parent="583" vertex="1">
                    <mxGeometry x="100" width="100" height="100" as="geometry">
                        <mxRectangle width="100" height="100" as="alternateBounds"/>
                    </mxGeometry>
                </mxCell>
                <mxCell id="586" value="" style="shape=partialRectangle;html=1;whiteSpace=wrap;connectable=0;overflow=hidden;fillColor=none;top=0;left=0;bottom=0;right=0;pointerEvents=1;fillStyle=auto;strokeColor=#FFFF00;strokeWidth=3;fontSize=66;fontColor=#000000;" parent="583" vertex="1">
                    <mxGeometry x="200" width="100" height="100" as="geometry">
                        <mxRectangle width="100" height="100" as="alternateBounds"/>
                    </mxGeometry>
                </mxCell>
                <mxCell id="587" value="" style="shape=partialRectangle;html=1;whiteSpace=wrap;connectable=0;overflow=hidden;fillColor=none;top=0;left=0;bottom=0;right=0;pointerEvents=1;fillStyle=auto;strokeColor=#FFFF00;strokeWidth=3;fontSize=66;fontColor=#000000;" parent="583" vertex="1">
                    <mxGeometry x="300" width="100" height="100" as="geometry">
                        <mxRectangle width="100" height="100" as="alternateBounds"/>
                    </mxGeometry>
                </mxCell>
                <mxCell id="588" value="" style="shape=partialRectangle;html=1;whiteSpace=wrap;connectable=0;overflow=hidden;fillColor=none;top=0;left=0;bottom=0;right=0;pointerEvents=1;fillStyle=auto;strokeColor=#FFFF00;strokeWidth=3;fontSize=66;fontColor=#000000;" parent="583" vertex="1">
                    <mxGeometry x="400" width="100" height="100" as="geometry">
                        <mxRectangle width="100" height="100" as="alternateBounds"/>
                    </mxGeometry>
                </mxCell>
                <mxCell id="589" value="" style="shape=partialRectangle;html=1;whiteSpace=wrap;connectable=0;overflow=hidden;fillColor=none;top=0;left=0;bottom=0;right=0;pointerEvents=1;fillStyle=auto;strokeColor=#FFFF00;strokeWidth=3;fontSize=66;fontColor=#000000;" parent="583" vertex="1">
                    <mxGeometry x="500" width="100" height="100" as="geometry">
                        <mxRectangle width="100" height="100" as="alternateBounds"/>
                    </mxGeometry>
                </mxCell>
                <mxCell id="590" value="" style="shape=partialRectangle;html=1;whiteSpace=wrap;connectable=0;overflow=hidden;fillColor=none;top=0;left=0;bottom=0;right=0;pointerEvents=1;fillStyle=auto;strokeColor=#FFFF00;strokeWidth=3;fontSize=66;fontColor=#000000;" parent="583" vertex="1">
                    <mxGeometry x="600" width="100" height="100" as="geometry">
                        <mxRectangle width="100" height="100" as="alternateBounds"/>
                    </mxGeometry>
                </mxCell>
                <mxCell id="591" value="" style="shape=partialRectangle;html=1;whiteSpace=wrap;connectable=0;overflow=hidden;fillColor=none;top=0;left=0;bottom=0;right=0;pointerEvents=1;fillStyle=auto;strokeColor=#FFFF00;strokeWidth=3;fontSize=66;fontColor=#000000;" parent="583" vertex="1">
                    <mxGeometry x="700" width="100" height="100" as="geometry">
                        <mxRectangle width="100" height="100" as="alternateBounds"/>
                    </mxGeometry>
                </mxCell>
                <mxCell id="592" value="" style="shape=tableRow;horizontal=0;startSize=0;swimlaneHead=0;swimlaneBody=0;top=0;left=0;bottom=0;right=0;collapsible=0;dropTarget=0;fillColor=none;points=[[0,0.5],[1,0.5]];portConstraint=eastwest;fillStyle=auto;strokeColor=#006EAF;strokeWidth=3;fontSize=66;fontColor=#ffffff;html=1;opacity=70;" parent="573" vertex="1">
                    <mxGeometry y="200" width="800" height="100" as="geometry"/>
                </mxCell>
                <mxCell id="593" value="" style="shape=partialRectangle;html=1;whiteSpace=wrap;connectable=0;overflow=hidden;fillColor=none;top=0;left=0;bottom=0;right=0;pointerEvents=1;fillStyle=auto;strokeColor=#FFFF00;strokeWidth=3;fontSize=66;fontColor=#000000;" parent="592" vertex="1">
                    <mxGeometry width="100" height="100" as="geometry">
                        <mxRectangle width="100" height="100" as="alternateBounds"/>
                    </mxGeometry>
                </mxCell>
                <mxCell id="594" value="" style="shape=partialRectangle;html=1;whiteSpace=wrap;connectable=0;overflow=hidden;fillColor=none;top=0;left=0;bottom=0;right=0;pointerEvents=1;fillStyle=auto;strokeColor=#FFFF00;strokeWidth=3;fontSize=66;fontColor=#000000;" parent="592" vertex="1">
                    <mxGeometry x="100" width="100" height="100" as="geometry">
                        <mxRectangle width="100" height="100" as="alternateBounds"/>
                    </mxGeometry>
                </mxCell>
                <mxCell id="595" value="" style="shape=partialRectangle;html=1;whiteSpace=wrap;connectable=0;overflow=hidden;fillColor=none;top=0;left=0;bottom=0;right=0;pointerEvents=1;fillStyle=auto;strokeColor=#FFFF00;strokeWidth=3;fontSize=66;fontColor=#000000;" parent="592" vertex="1">
                    <mxGeometry x="200" width="100" height="100" as="geometry">
                        <mxRectangle width="100" height="100" as="alternateBounds"/>
                    </mxGeometry>
                </mxCell>
                <mxCell id="596" value="" style="shape=partialRectangle;html=1;whiteSpace=wrap;connectable=0;overflow=hidden;fillColor=none;top=0;left=0;bottom=0;right=0;pointerEvents=1;fillStyle=auto;strokeColor=#FFFF00;strokeWidth=3;fontSize=66;fontColor=#000000;" parent="592" vertex="1">
                    <mxGeometry x="300" width="100" height="100" as="geometry">
                        <mxRectangle width="100" height="100" as="alternateBounds"/>
                    </mxGeometry>
                </mxCell>
                <mxCell id="597" value="" style="shape=partialRectangle;html=1;whiteSpace=wrap;connectable=0;overflow=hidden;fillColor=none;top=0;left=0;bottom=0;right=0;pointerEvents=1;fillStyle=auto;strokeColor=#FFFF00;strokeWidth=3;fontSize=66;fontColor=#000000;" parent="592" vertex="1">
                    <mxGeometry x="400" width="100" height="100" as="geometry">
                        <mxRectangle width="100" height="100" as="alternateBounds"/>
                    </mxGeometry>
                </mxCell>
                <mxCell id="598" value="" style="shape=partialRectangle;html=1;whiteSpace=wrap;connectable=0;overflow=hidden;fillColor=none;top=0;left=0;bottom=0;right=0;pointerEvents=1;fillStyle=auto;strokeColor=#FFFF00;strokeWidth=3;fontSize=66;fontColor=#000000;" parent="592" vertex="1">
                    <mxGeometry x="500" width="100" height="100" as="geometry">
                        <mxRectangle width="100" height="100" as="alternateBounds"/>
                    </mxGeometry>
                </mxCell>
                <mxCell id="599" value="" style="shape=partialRectangle;html=1;whiteSpace=wrap;connectable=0;overflow=hidden;fillColor=none;top=0;left=0;bottom=0;right=0;pointerEvents=1;fillStyle=auto;strokeColor=#FFFF00;strokeWidth=3;fontSize=66;fontColor=#000000;" parent="592" vertex="1">
                    <mxGeometry x="600" width="100" height="100" as="geometry">
                        <mxRectangle width="100" height="100" as="alternateBounds"/>
                    </mxGeometry>
                </mxCell>
                <mxCell id="600" value="" style="shape=partialRectangle;html=1;whiteSpace=wrap;connectable=0;overflow=hidden;fillColor=none;top=0;left=0;bottom=0;right=0;pointerEvents=1;fillStyle=auto;strokeColor=#FFFF00;strokeWidth=3;fontSize=66;fontColor=#000000;" parent="592" vertex="1">
                    <mxGeometry x="700" width="100" height="100" as="geometry">
                        <mxRectangle width="100" height="100" as="alternateBounds"/>
                    </mxGeometry>
                </mxCell>
                <mxCell id="601" value="" style="shape=tableRow;horizontal=0;startSize=0;swimlaneHead=0;swimlaneBody=0;top=0;left=0;bottom=0;right=0;collapsible=0;dropTarget=0;fillColor=none;points=[[0,0.5],[1,0.5]];portConstraint=eastwest;fillStyle=auto;strokeColor=#006EAF;strokeWidth=3;fontSize=66;fontColor=#ffffff;html=1;opacity=70;" parent="573" vertex="1">
                    <mxGeometry y="300" width="800" height="100" as="geometry"/>
                </mxCell>
                <mxCell id="602" value="" style="shape=partialRectangle;html=1;whiteSpace=wrap;connectable=0;overflow=hidden;fillColor=none;top=0;left=0;bottom=0;right=0;pointerEvents=1;fillStyle=auto;strokeColor=#FFFF00;strokeWidth=3;fontSize=66;fontColor=#000000;" parent="601" vertex="1">
                    <mxGeometry width="100" height="100" as="geometry">
                        <mxRectangle width="100" height="100" as="alternateBounds"/>
                    </mxGeometry>
                </mxCell>
                <mxCell id="603" value="" style="shape=partialRectangle;html=1;whiteSpace=wrap;connectable=0;overflow=hidden;fillColor=none;top=0;left=0;bottom=0;right=0;pointerEvents=1;fillStyle=auto;strokeColor=#FFFF00;strokeWidth=3;fontSize=66;fontColor=#000000;" parent="601" vertex="1">
                    <mxGeometry x="100" width="100" height="100" as="geometry">
                        <mxRectangle width="100" height="100" as="alternateBounds"/>
                    </mxGeometry>
                </mxCell>
                <mxCell id="604" value="" style="shape=partialRectangle;html=1;whiteSpace=wrap;connectable=0;overflow=hidden;fillColor=none;top=0;left=0;bottom=0;right=0;pointerEvents=1;fillStyle=auto;strokeColor=#FFFF00;strokeWidth=3;fontSize=66;fontColor=#000000;" parent="601" vertex="1">
                    <mxGeometry x="200" width="100" height="100" as="geometry">
                        <mxRectangle width="100" height="100" as="alternateBounds"/>
                    </mxGeometry>
                </mxCell>
                <mxCell id="605" value="" style="shape=partialRectangle;html=1;whiteSpace=wrap;connectable=0;overflow=hidden;fillColor=none;top=0;left=0;bottom=0;right=0;pointerEvents=1;fillStyle=auto;strokeColor=#FFFF00;strokeWidth=3;fontSize=66;fontColor=#000000;" parent="601" vertex="1">
                    <mxGeometry x="300" width="100" height="100" as="geometry">
                        <mxRectangle width="100" height="100" as="alternateBounds"/>
                    </mxGeometry>
                </mxCell>
                <mxCell id="606" value="" style="shape=partialRectangle;html=1;whiteSpace=wrap;connectable=0;overflow=hidden;fillColor=none;top=0;left=0;bottom=0;right=0;pointerEvents=1;fillStyle=auto;strokeColor=#FFFF00;strokeWidth=3;fontSize=66;fontColor=#000000;" parent="601" vertex="1">
                    <mxGeometry x="400" width="100" height="100" as="geometry">
                        <mxRectangle width="100" height="100" as="alternateBounds"/>
                    </mxGeometry>
                </mxCell>
                <mxCell id="607" value="" style="shape=partialRectangle;html=1;whiteSpace=wrap;connectable=0;overflow=hidden;fillColor=none;top=0;left=0;bottom=0;right=0;pointerEvents=1;fillStyle=auto;strokeColor=#FFFF00;strokeWidth=3;fontSize=66;fontColor=#000000;" parent="601" vertex="1">
                    <mxGeometry x="500" width="100" height="100" as="geometry">
                        <mxRectangle width="100" height="100" as="alternateBounds"/>
                    </mxGeometry>
                </mxCell>
                <mxCell id="608" value="" style="shape=partialRectangle;html=1;whiteSpace=wrap;connectable=0;overflow=hidden;fillColor=none;top=0;left=0;bottom=0;right=0;pointerEvents=1;fillStyle=auto;strokeColor=#FFFF00;strokeWidth=3;fontSize=66;fontColor=#000000;" parent="601" vertex="1">
                    <mxGeometry x="600" width="100" height="100" as="geometry">
                        <mxRectangle width="100" height="100" as="alternateBounds"/>
                    </mxGeometry>
                </mxCell>
                <mxCell id="609" value="" style="shape=partialRectangle;html=1;whiteSpace=wrap;connectable=0;overflow=hidden;fillColor=none;top=0;left=0;bottom=0;right=0;pointerEvents=1;fillStyle=auto;strokeColor=#FFFF00;strokeWidth=3;fontSize=66;fontColor=#000000;" parent="601" vertex="1">
                    <mxGeometry x="700" width="100" height="100" as="geometry">
                        <mxRectangle width="100" height="100" as="alternateBounds"/>
                    </mxGeometry>
                </mxCell>
                <mxCell id="610" value="&lt;font color=&quot;#000000&quot;&gt;Weight Matrix&amp;nbsp;(4 X 8)&lt;/font&gt;" style="text;html=1;align=center;verticalAlign=middle;resizable=0;points=[];autosize=1;strokeColor=none;fillColor=none;fontSize=33;fontColor=#F0F0F0;" parent="1" vertex="1">
                    <mxGeometry x="2413" y="479" width="327" height="52" as="geometry"/>
                </mxCell>
                <mxCell id="828" style="edgeStyle=none;rounded=1;html=1;entryX=0.453;entryY=0.01;entryDx=0;entryDy=0;entryPerimeter=0;strokeColor=#005700;strokeWidth=5;fontSize=33;fontColor=#FFFFFF;startArrow=none;startFill=0;endArrow=classic;endFill=1;fillColor=#008a00;" parent="1" source="611" target="426" edge="1">
                    <mxGeometry relative="1" as="geometry"/>
                </mxCell>
                <mxCell id="611" value="&lt;font style=&quot;font-size: 66px;&quot;&gt;&amp;nbsp;h&lt;sub&gt;j&lt;/sub&gt;* = W*h&lt;sub style=&quot;&quot;&gt;j&amp;nbsp;&lt;/sub&gt;&lt;/font&gt;" style="text;html=1;align=center;verticalAlign=middle;resizable=0;points=[];autosize=1;strokeColor=none;fillColor=none;fontSize=33;fontColor=#000000;labelBorderColor=#000000;spacingLeft=0;" parent="1" vertex="1">
                    <mxGeometry x="410.5" y="1548" width="336" height="102" as="geometry"/>
                </mxCell>
                <mxCell id="827" style="edgeStyle=none;rounded=1;html=1;entryX=1.011;entryY=0.016;entryDx=0;entryDy=0;entryPerimeter=0;strokeColor=#005700;strokeWidth=5;fontSize=33;fontColor=#FFFFFF;startArrow=none;startFill=0;endArrow=classic;endFill=1;fillColor=#008a00;" parent="1" source="614" target="611" edge="1">
                    <mxGeometry relative="1" as="geometry"/>
                </mxCell>
                <mxCell id="614" value="" style="shape=table;startSize=0;container=1;collapsible=0;childLayout=tableLayout;fillStyle=auto;strokeWidth=3;fontSize=66;html=1;" parent="1" vertex="1">
                    <mxGeometry x="628.5" y="1021" width="800" height="400" as="geometry"/>
                </mxCell>
                <mxCell id="615" value="" style="shape=tableRow;horizontal=0;startSize=0;swimlaneHead=0;swimlaneBody=0;top=0;left=0;bottom=0;right=0;collapsible=0;dropTarget=0;fillColor=none;points=[[0,0.5],[1,0.5]];portConstraint=eastwest;fillStyle=auto;strokeColor=#006EAF;strokeWidth=3;fontSize=66;fontColor=#ffffff;html=1;opacity=70;" parent="614" vertex="1">
                    <mxGeometry width="800" height="100" as="geometry"/>
                </mxCell>
                <mxCell id="616" value="" style="shape=partialRectangle;html=1;whiteSpace=wrap;connectable=0;overflow=hidden;fillColor=none;top=0;left=0;bottom=0;right=0;pointerEvents=1;fillStyle=auto;strokeColor=#FFFF00;strokeWidth=3;fontSize=66;fontColor=#000000;" parent="615" vertex="1">
                    <mxGeometry width="100" height="100" as="geometry">
                        <mxRectangle width="100" height="100" as="alternateBounds"/>
                    </mxGeometry>
                </mxCell>
                <mxCell id="617" value="" style="shape=partialRectangle;html=1;whiteSpace=wrap;connectable=0;overflow=hidden;fillColor=none;top=0;left=0;bottom=0;right=0;pointerEvents=1;fillStyle=auto;strokeColor=#FFFF00;strokeWidth=3;fontSize=66;fontColor=#000000;" parent="615" vertex="1">
                    <mxGeometry x="100" width="100" height="100" as="geometry">
                        <mxRectangle width="100" height="100" as="alternateBounds"/>
                    </mxGeometry>
                </mxCell>
                <mxCell id="618" value="" style="shape=partialRectangle;html=1;whiteSpace=wrap;connectable=0;overflow=hidden;fillColor=none;top=0;left=0;bottom=0;right=0;pointerEvents=1;fillStyle=auto;strokeColor=#FFFF00;strokeWidth=3;fontSize=66;fontColor=#000000;" parent="615" vertex="1">
                    <mxGeometry x="200" width="100" height="100" as="geometry">
                        <mxRectangle width="100" height="100" as="alternateBounds"/>
                    </mxGeometry>
                </mxCell>
                <mxCell id="619" value="" style="shape=partialRectangle;html=1;whiteSpace=wrap;connectable=0;overflow=hidden;fillColor=none;top=0;left=0;bottom=0;right=0;pointerEvents=1;fillStyle=auto;strokeColor=#FFFF00;strokeWidth=3;fontSize=66;fontColor=#000000;" parent="615" vertex="1">
                    <mxGeometry x="300" width="100" height="100" as="geometry">
                        <mxRectangle width="100" height="100" as="alternateBounds"/>
                    </mxGeometry>
                </mxCell>
                <mxCell id="620" value="" style="shape=partialRectangle;html=1;whiteSpace=wrap;connectable=0;overflow=hidden;fillColor=none;top=0;left=0;bottom=0;right=0;pointerEvents=1;fillStyle=auto;strokeColor=#FFFF00;strokeWidth=3;fontSize=66;fontColor=#000000;" parent="615" vertex="1">
                    <mxGeometry x="400" width="100" height="100" as="geometry">
                        <mxRectangle width="100" height="100" as="alternateBounds"/>
                    </mxGeometry>
                </mxCell>
                <mxCell id="621" value="" style="shape=partialRectangle;html=1;whiteSpace=wrap;connectable=0;overflow=hidden;fillColor=none;top=0;left=0;bottom=0;right=0;pointerEvents=1;fillStyle=auto;strokeColor=#FFFF00;strokeWidth=3;fontSize=66;fontColor=#000000;" parent="615" vertex="1">
                    <mxGeometry x="500" width="100" height="100" as="geometry">
                        <mxRectangle width="100" height="100" as="alternateBounds"/>
                    </mxGeometry>
                </mxCell>
                <mxCell id="622" value="" style="shape=partialRectangle;html=1;whiteSpace=wrap;connectable=0;overflow=hidden;fillColor=none;top=0;left=0;bottom=0;right=0;pointerEvents=1;fillStyle=auto;strokeColor=#FFFF00;strokeWidth=3;fontSize=66;fontColor=#000000;" parent="615" vertex="1">
                    <mxGeometry x="600" width="100" height="100" as="geometry">
                        <mxRectangle width="100" height="100" as="alternateBounds"/>
                    </mxGeometry>
                </mxCell>
                <mxCell id="623" value="" style="shape=partialRectangle;html=1;whiteSpace=wrap;connectable=0;overflow=hidden;fillColor=none;top=0;left=0;bottom=0;right=0;pointerEvents=1;fillStyle=auto;strokeColor=#FFFF00;strokeWidth=3;fontSize=66;fontColor=#000000;" parent="615" vertex="1">
                    <mxGeometry x="700" width="100" height="100" as="geometry">
                        <mxRectangle width="100" height="100" as="alternateBounds"/>
                    </mxGeometry>
                </mxCell>
                <mxCell id="624" value="" style="shape=tableRow;horizontal=0;startSize=0;swimlaneHead=0;swimlaneBody=0;top=0;left=0;bottom=0;right=0;collapsible=0;dropTarget=0;fillColor=none;points=[[0,0.5],[1,0.5]];portConstraint=eastwest;fillStyle=auto;strokeColor=#006EAF;strokeWidth=3;fontSize=66;fontColor=#ffffff;html=1;opacity=70;" parent="614" vertex="1">
                    <mxGeometry y="100" width="800" height="100" as="geometry"/>
                </mxCell>
                <mxCell id="625" value="" style="shape=partialRectangle;html=1;whiteSpace=wrap;connectable=0;overflow=hidden;fillColor=none;top=0;left=0;bottom=0;right=0;pointerEvents=1;fillStyle=auto;strokeColor=#FFFF00;strokeWidth=3;fontSize=66;fontColor=#000000;" parent="624" vertex="1">
                    <mxGeometry width="100" height="100" as="geometry">
                        <mxRectangle width="100" height="100" as="alternateBounds"/>
                    </mxGeometry>
                </mxCell>
                <mxCell id="626" value="" style="shape=partialRectangle;html=1;whiteSpace=wrap;connectable=0;overflow=hidden;fillColor=none;top=0;left=0;bottom=0;right=0;pointerEvents=1;fillStyle=auto;strokeColor=#FFFF00;strokeWidth=3;fontSize=66;fontColor=#000000;" parent="624" vertex="1">
                    <mxGeometry x="100" width="100" height="100" as="geometry">
                        <mxRectangle width="100" height="100" as="alternateBounds"/>
                    </mxGeometry>
                </mxCell>
                <mxCell id="627" value="" style="shape=partialRectangle;html=1;whiteSpace=wrap;connectable=0;overflow=hidden;fillColor=none;top=0;left=0;bottom=0;right=0;pointerEvents=1;fillStyle=auto;strokeColor=#FFFF00;strokeWidth=3;fontSize=66;fontColor=#000000;" parent="624" vertex="1">
                    <mxGeometry x="200" width="100" height="100" as="geometry">
                        <mxRectangle width="100" height="100" as="alternateBounds"/>
                    </mxGeometry>
                </mxCell>
                <mxCell id="628" value="" style="shape=partialRectangle;html=1;whiteSpace=wrap;connectable=0;overflow=hidden;fillColor=none;top=0;left=0;bottom=0;right=0;pointerEvents=1;fillStyle=auto;strokeColor=#FFFF00;strokeWidth=3;fontSize=66;fontColor=#000000;" parent="624" vertex="1">
                    <mxGeometry x="300" width="100" height="100" as="geometry">
                        <mxRectangle width="100" height="100" as="alternateBounds"/>
                    </mxGeometry>
                </mxCell>
                <mxCell id="629" value="" style="shape=partialRectangle;html=1;whiteSpace=wrap;connectable=0;overflow=hidden;fillColor=none;top=0;left=0;bottom=0;right=0;pointerEvents=1;fillStyle=auto;strokeColor=#FFFF00;strokeWidth=3;fontSize=66;fontColor=#000000;" parent="624" vertex="1">
                    <mxGeometry x="400" width="100" height="100" as="geometry">
                        <mxRectangle width="100" height="100" as="alternateBounds"/>
                    </mxGeometry>
                </mxCell>
                <mxCell id="630" value="" style="shape=partialRectangle;html=1;whiteSpace=wrap;connectable=0;overflow=hidden;fillColor=none;top=0;left=0;bottom=0;right=0;pointerEvents=1;fillStyle=auto;strokeColor=#FFFF00;strokeWidth=3;fontSize=66;fontColor=#000000;" parent="624" vertex="1">
                    <mxGeometry x="500" width="100" height="100" as="geometry">
                        <mxRectangle width="100" height="100" as="alternateBounds"/>
                    </mxGeometry>
                </mxCell>
                <mxCell id="631" value="" style="shape=partialRectangle;html=1;whiteSpace=wrap;connectable=0;overflow=hidden;fillColor=none;top=0;left=0;bottom=0;right=0;pointerEvents=1;fillStyle=auto;strokeColor=#FFFF00;strokeWidth=3;fontSize=66;fontColor=#000000;" parent="624" vertex="1">
                    <mxGeometry x="600" width="100" height="100" as="geometry">
                        <mxRectangle width="100" height="100" as="alternateBounds"/>
                    </mxGeometry>
                </mxCell>
                <mxCell id="632" value="" style="shape=partialRectangle;html=1;whiteSpace=wrap;connectable=0;overflow=hidden;fillColor=none;top=0;left=0;bottom=0;right=0;pointerEvents=1;fillStyle=auto;strokeColor=#FFFF00;strokeWidth=3;fontSize=66;fontColor=#000000;" parent="624" vertex="1">
                    <mxGeometry x="700" width="100" height="100" as="geometry">
                        <mxRectangle width="100" height="100" as="alternateBounds"/>
                    </mxGeometry>
                </mxCell>
                <mxCell id="633" value="" style="shape=tableRow;horizontal=0;startSize=0;swimlaneHead=0;swimlaneBody=0;top=0;left=0;bottom=0;right=0;collapsible=0;dropTarget=0;fillColor=none;points=[[0,0.5],[1,0.5]];portConstraint=eastwest;fillStyle=auto;strokeColor=#006EAF;strokeWidth=3;fontSize=66;fontColor=#ffffff;html=1;opacity=70;" parent="614" vertex="1">
                    <mxGeometry y="200" width="800" height="100" as="geometry"/>
                </mxCell>
                <mxCell id="634" value="" style="shape=partialRectangle;html=1;whiteSpace=wrap;connectable=0;overflow=hidden;fillColor=none;top=0;left=0;bottom=0;right=0;pointerEvents=1;fillStyle=auto;strokeColor=#FFFF00;strokeWidth=3;fontSize=66;fontColor=#000000;" parent="633" vertex="1">
                    <mxGeometry width="100" height="100" as="geometry">
                        <mxRectangle width="100" height="100" as="alternateBounds"/>
                    </mxGeometry>
                </mxCell>
                <mxCell id="635" value="" style="shape=partialRectangle;html=1;whiteSpace=wrap;connectable=0;overflow=hidden;fillColor=none;top=0;left=0;bottom=0;right=0;pointerEvents=1;fillStyle=auto;strokeColor=#FFFF00;strokeWidth=3;fontSize=66;fontColor=#000000;" parent="633" vertex="1">
                    <mxGeometry x="100" width="100" height="100" as="geometry">
                        <mxRectangle width="100" height="100" as="alternateBounds"/>
                    </mxGeometry>
                </mxCell>
                <mxCell id="636" value="" style="shape=partialRectangle;html=1;whiteSpace=wrap;connectable=0;overflow=hidden;fillColor=none;top=0;left=0;bottom=0;right=0;pointerEvents=1;fillStyle=auto;strokeColor=#FFFF00;strokeWidth=3;fontSize=66;fontColor=#000000;" parent="633" vertex="1">
                    <mxGeometry x="200" width="100" height="100" as="geometry">
                        <mxRectangle width="100" height="100" as="alternateBounds"/>
                    </mxGeometry>
                </mxCell>
                <mxCell id="637" value="" style="shape=partialRectangle;html=1;whiteSpace=wrap;connectable=0;overflow=hidden;fillColor=none;top=0;left=0;bottom=0;right=0;pointerEvents=1;fillStyle=auto;strokeColor=#FFFF00;strokeWidth=3;fontSize=66;fontColor=#000000;" parent="633" vertex="1">
                    <mxGeometry x="300" width="100" height="100" as="geometry">
                        <mxRectangle width="100" height="100" as="alternateBounds"/>
                    </mxGeometry>
                </mxCell>
                <mxCell id="638" value="" style="shape=partialRectangle;html=1;whiteSpace=wrap;connectable=0;overflow=hidden;fillColor=none;top=0;left=0;bottom=0;right=0;pointerEvents=1;fillStyle=auto;strokeColor=#FFFF00;strokeWidth=3;fontSize=66;fontColor=#000000;" parent="633" vertex="1">
                    <mxGeometry x="400" width="100" height="100" as="geometry">
                        <mxRectangle width="100" height="100" as="alternateBounds"/>
                    </mxGeometry>
                </mxCell>
                <mxCell id="639" value="" style="shape=partialRectangle;html=1;whiteSpace=wrap;connectable=0;overflow=hidden;fillColor=none;top=0;left=0;bottom=0;right=0;pointerEvents=1;fillStyle=auto;strokeColor=#FFFF00;strokeWidth=3;fontSize=66;fontColor=#000000;" parent="633" vertex="1">
                    <mxGeometry x="500" width="100" height="100" as="geometry">
                        <mxRectangle width="100" height="100" as="alternateBounds"/>
                    </mxGeometry>
                </mxCell>
                <mxCell id="640" value="" style="shape=partialRectangle;html=1;whiteSpace=wrap;connectable=0;overflow=hidden;fillColor=none;top=0;left=0;bottom=0;right=0;pointerEvents=1;fillStyle=auto;strokeColor=#FFFF00;strokeWidth=3;fontSize=66;fontColor=#000000;" parent="633" vertex="1">
                    <mxGeometry x="600" width="100" height="100" as="geometry">
                        <mxRectangle width="100" height="100" as="alternateBounds"/>
                    </mxGeometry>
                </mxCell>
                <mxCell id="641" value="" style="shape=partialRectangle;html=1;whiteSpace=wrap;connectable=0;overflow=hidden;fillColor=none;top=0;left=0;bottom=0;right=0;pointerEvents=1;fillStyle=auto;strokeColor=#FFFF00;strokeWidth=3;fontSize=66;fontColor=#000000;" parent="633" vertex="1">
                    <mxGeometry x="700" width="100" height="100" as="geometry">
                        <mxRectangle width="100" height="100" as="alternateBounds"/>
                    </mxGeometry>
                </mxCell>
                <mxCell id="642" value="" style="shape=tableRow;horizontal=0;startSize=0;swimlaneHead=0;swimlaneBody=0;top=0;left=0;bottom=0;right=0;collapsible=0;dropTarget=0;fillColor=none;points=[[0,0.5],[1,0.5]];portConstraint=eastwest;fillStyle=auto;strokeColor=#006EAF;strokeWidth=3;fontSize=66;fontColor=#ffffff;html=1;opacity=70;" parent="614" vertex="1">
                    <mxGeometry y="300" width="800" height="100" as="geometry"/>
                </mxCell>
                <mxCell id="643" value="" style="shape=partialRectangle;html=1;whiteSpace=wrap;connectable=0;overflow=hidden;fillColor=none;top=0;left=0;bottom=0;right=0;pointerEvents=1;fillStyle=auto;strokeColor=#FFFF00;strokeWidth=3;fontSize=66;fontColor=#000000;" parent="642" vertex="1">
                    <mxGeometry width="100" height="100" as="geometry">
                        <mxRectangle width="100" height="100" as="alternateBounds"/>
                    </mxGeometry>
                </mxCell>
                <mxCell id="644" value="" style="shape=partialRectangle;html=1;whiteSpace=wrap;connectable=0;overflow=hidden;fillColor=none;top=0;left=0;bottom=0;right=0;pointerEvents=1;fillStyle=auto;strokeColor=#FFFF00;strokeWidth=3;fontSize=66;fontColor=#000000;" parent="642" vertex="1">
                    <mxGeometry x="100" width="100" height="100" as="geometry">
                        <mxRectangle width="100" height="100" as="alternateBounds"/>
                    </mxGeometry>
                </mxCell>
                <mxCell id="645" value="" style="shape=partialRectangle;html=1;whiteSpace=wrap;connectable=0;overflow=hidden;fillColor=none;top=0;left=0;bottom=0;right=0;pointerEvents=1;fillStyle=auto;strokeColor=#FFFF00;strokeWidth=3;fontSize=66;fontColor=#000000;" parent="642" vertex="1">
                    <mxGeometry x="200" width="100" height="100" as="geometry">
                        <mxRectangle width="100" height="100" as="alternateBounds"/>
                    </mxGeometry>
                </mxCell>
                <mxCell id="646" value="" style="shape=partialRectangle;html=1;whiteSpace=wrap;connectable=0;overflow=hidden;fillColor=none;top=0;left=0;bottom=0;right=0;pointerEvents=1;fillStyle=auto;strokeColor=#FFFF00;strokeWidth=3;fontSize=66;fontColor=#000000;" parent="642" vertex="1">
                    <mxGeometry x="300" width="100" height="100" as="geometry">
                        <mxRectangle width="100" height="100" as="alternateBounds"/>
                    </mxGeometry>
                </mxCell>
                <mxCell id="647" value="" style="shape=partialRectangle;html=1;whiteSpace=wrap;connectable=0;overflow=hidden;fillColor=none;top=0;left=0;bottom=0;right=0;pointerEvents=1;fillStyle=auto;strokeColor=#FFFF00;strokeWidth=3;fontSize=66;fontColor=#000000;" parent="642" vertex="1">
                    <mxGeometry x="400" width="100" height="100" as="geometry">
                        <mxRectangle width="100" height="100" as="alternateBounds"/>
                    </mxGeometry>
                </mxCell>
                <mxCell id="648" value="" style="shape=partialRectangle;html=1;whiteSpace=wrap;connectable=0;overflow=hidden;fillColor=none;top=0;left=0;bottom=0;right=0;pointerEvents=1;fillStyle=auto;strokeColor=#FFFF00;strokeWidth=3;fontSize=66;fontColor=#000000;" parent="642" vertex="1">
                    <mxGeometry x="500" width="100" height="100" as="geometry">
                        <mxRectangle width="100" height="100" as="alternateBounds"/>
                    </mxGeometry>
                </mxCell>
                <mxCell id="649" value="" style="shape=partialRectangle;html=1;whiteSpace=wrap;connectable=0;overflow=hidden;fillColor=none;top=0;left=0;bottom=0;right=0;pointerEvents=1;fillStyle=auto;strokeColor=#FFFF00;strokeWidth=3;fontSize=66;fontColor=#000000;" parent="642" vertex="1">
                    <mxGeometry x="600" width="100" height="100" as="geometry">
                        <mxRectangle width="100" height="100" as="alternateBounds"/>
                    </mxGeometry>
                </mxCell>
                <mxCell id="650" value="" style="shape=partialRectangle;html=1;whiteSpace=wrap;connectable=0;overflow=hidden;fillColor=none;top=0;left=0;bottom=0;right=0;pointerEvents=1;fillStyle=auto;strokeColor=#FFFF00;strokeWidth=3;fontSize=66;fontColor=#000000;" parent="642" vertex="1">
                    <mxGeometry x="700" width="100" height="100" as="geometry">
                        <mxRectangle width="100" height="100" as="alternateBounds"/>
                    </mxGeometry>
                </mxCell>
                <mxCell id="666" value="" style="shape=table;startSize=0;container=1;collapsible=0;childLayout=tableLayout;rounded=0;fillStyle=auto;strokeWidth=5;fontSize=40;html=1;fillColor=default;strokeColor=default;gradientColor=none;swimlaneFillColor=default;swimlaneLine=1;fontColor=#FFFFFF;" parent="1" vertex="1">
                    <mxGeometry x="1174" y="1777" width="100" height="500" as="geometry"/>
                </mxCell>
                <mxCell id="667" value="" style="shape=tableRow;horizontal=0;startSize=0;swimlaneHead=0;swimlaneBody=0;top=0;left=0;bottom=0;right=0;collapsible=0;dropTarget=0;fillColor=none;points=[[0,0.5],[1,0.5]];portConstraint=eastwest;rounded=0;fillStyle=auto;strokeColor=#FF3399;strokeWidth=5;fontSize=40;fontColor=#000000;opacity=70;html=1;" parent="666" vertex="1">
                    <mxGeometry width="100" height="100" as="geometry"/>
                </mxCell>
                <mxCell id="668" value="&lt;font color=&quot;#ffffff&quot;&gt;1&lt;/font&gt;" style="shape=partialRectangle;html=1;whiteSpace=wrap;connectable=0;overflow=hidden;fillColor=none;top=0;left=0;bottom=0;right=0;pointerEvents=1;rounded=0;fillStyle=auto;strokeColor=#FF3399;strokeWidth=5;fontSize=40;fontColor=#000000;opacity=70;" parent="667" vertex="1">
                    <mxGeometry width="100" height="100" as="geometry">
                        <mxRectangle width="100" height="100" as="alternateBounds"/>
                    </mxGeometry>
                </mxCell>
                <mxCell id="669" value="" style="shape=tableRow;horizontal=0;startSize=0;swimlaneHead=0;swimlaneBody=0;top=0;left=0;bottom=0;right=0;collapsible=0;dropTarget=0;fillColor=none;points=[[0,0.5],[1,0.5]];portConstraint=eastwest;rounded=0;fillStyle=auto;strokeColor=#FF3399;strokeWidth=5;fontSize=40;fontColor=#000000;opacity=70;html=1;" parent="666" vertex="1">
                    <mxGeometry y="100" width="100" height="100" as="geometry"/>
                </mxCell>
                <mxCell id="670" value="1" style="shape=partialRectangle;html=1;whiteSpace=wrap;connectable=0;overflow=hidden;fillColor=none;top=0;left=0;bottom=0;right=0;pointerEvents=1;rounded=0;fillStyle=auto;strokeColor=#FF3399;strokeWidth=5;fontSize=40;fontColor=#FFFFFF;opacity=70;" parent="669" vertex="1">
                    <mxGeometry width="100" height="100" as="geometry">
                        <mxRectangle width="100" height="100" as="alternateBounds"/>
                    </mxGeometry>
                </mxCell>
                <mxCell id="671" value="" style="shape=tableRow;horizontal=0;startSize=0;swimlaneHead=0;swimlaneBody=0;top=0;left=0;bottom=0;right=0;collapsible=0;dropTarget=0;fillColor=none;points=[[0,0.5],[1,0.5]];portConstraint=eastwest;rounded=0;fillStyle=auto;strokeColor=#FF3399;strokeWidth=5;fontSize=40;fontColor=#000000;opacity=70;html=1;" parent="666" vertex="1">
                    <mxGeometry y="200" width="100" height="100" as="geometry"/>
                </mxCell>
                <mxCell id="672" value="1" style="shape=partialRectangle;html=1;whiteSpace=wrap;connectable=0;overflow=hidden;fillColor=none;top=0;left=0;bottom=0;right=0;pointerEvents=1;rounded=0;fillStyle=auto;strokeColor=#FF3399;strokeWidth=5;fontSize=40;fontColor=#FFFFFF;opacity=70;" parent="671" vertex="1">
                    <mxGeometry width="100" height="100" as="geometry">
                        <mxRectangle width="100" height="100" as="alternateBounds"/>
                    </mxGeometry>
                </mxCell>
                <mxCell id="673" value="" style="shape=tableRow;horizontal=0;startSize=0;swimlaneHead=0;swimlaneBody=0;top=0;left=0;bottom=0;right=0;collapsible=0;dropTarget=0;fillColor=none;points=[[0,0.5],[1,0.5]];portConstraint=eastwest;rounded=0;fillStyle=auto;strokeColor=#FF3399;strokeWidth=5;fontSize=40;fontColor=#000000;opacity=70;html=1;" parent="666" vertex="1">
                    <mxGeometry y="300" width="100" height="100" as="geometry"/>
                </mxCell>
                <mxCell id="674" value="0" style="shape=partialRectangle;html=1;whiteSpace=wrap;connectable=0;overflow=hidden;fillColor=none;top=0;left=0;bottom=0;right=0;pointerEvents=1;rounded=0;fillStyle=auto;strokeColor=#FF3399;strokeWidth=5;fontSize=40;fontColor=#FFFFFF;opacity=70;" parent="673" vertex="1">
                    <mxGeometry width="100" height="100" as="geometry">
                        <mxRectangle width="100" height="100" as="alternateBounds"/>
                    </mxGeometry>
                </mxCell>
                <mxCell id="675" value="" style="shape=tableRow;horizontal=0;startSize=0;swimlaneHead=0;swimlaneBody=0;top=0;left=0;bottom=0;right=0;collapsible=0;dropTarget=0;fillColor=none;points=[[0,0.5],[1,0.5]];portConstraint=eastwest;rounded=0;fillStyle=auto;strokeColor=#FF3399;strokeWidth=5;fontSize=40;fontColor=#000000;opacity=70;html=1;" parent="666" vertex="1">
                    <mxGeometry y="400" width="100" height="100" as="geometry"/>
                </mxCell>
                <mxCell id="676" value="0" style="shape=partialRectangle;html=1;whiteSpace=wrap;connectable=0;overflow=hidden;fillColor=none;top=0;left=0;bottom=0;right=0;pointerEvents=1;rounded=0;fillStyle=auto;strokeColor=#FF3399;strokeWidth=5;fontSize=40;fontColor=#FFFFFF;opacity=70;" parent="675" vertex="1">
                    <mxGeometry width="100" height="100" as="geometry">
                        <mxRectangle width="100" height="100" as="alternateBounds"/>
                    </mxGeometry>
                </mxCell>
                <mxCell id="677" value="" style="shape=curlyBracket;whiteSpace=wrap;html=1;rounded=1;flipH=1;labelPosition=right;verticalLabelPosition=middle;align=left;verticalAlign=middle;fillStyle=auto;strokeColor=#006EAF;strokeWidth=5;fontSize=40;fontColor=#ffffff;fillColor=#1ba1e2;opacity=70;size=0.5;" parent="1" vertex="1">
                    <mxGeometry x="1282" y="1768" width="60" height="521" as="geometry"/>
                </mxCell>
                <mxCell id="719" value="" style="shape=table;startSize=0;container=1;collapsible=0;childLayout=tableLayout;fillStyle=auto;strokeColor=#C73500;strokeWidth=3;fontSize=66;fontColor=#000000;fillColor=#fa6800;html=1;" parent="1" vertex="1">
                    <mxGeometry x="638" y="2434" width="800" height="100" as="geometry"/>
                </mxCell>
                <mxCell id="720" value="" style="shape=tableRow;horizontal=0;startSize=0;swimlaneHead=0;swimlaneBody=0;top=0;left=0;bottom=0;right=0;collapsible=0;dropTarget=0;fillColor=none;points=[[0,0.5],[1,0.5]];portConstraint=eastwest;fillStyle=auto;strokeColor=#FFFF00;strokeWidth=3;fontSize=66;fontColor=#000000;html=1;" parent="719" vertex="1">
                    <mxGeometry width="800" height="100" as="geometry"/>
                </mxCell>
                <mxCell id="721" value="" style="shape=partialRectangle;html=1;whiteSpace=wrap;connectable=0;overflow=hidden;fillColor=none;top=0;left=0;bottom=0;right=0;pointerEvents=1;fillStyle=auto;strokeColor=#FFFF00;strokeWidth=3;fontSize=66;fontColor=#000000;" parent="720" vertex="1">
                    <mxGeometry width="100" height="100" as="geometry">
                        <mxRectangle width="100" height="100" as="alternateBounds"/>
                    </mxGeometry>
                </mxCell>
                <mxCell id="722" value="" style="shape=partialRectangle;html=1;whiteSpace=wrap;connectable=0;overflow=hidden;fillColor=none;top=0;left=0;bottom=0;right=0;pointerEvents=1;fillStyle=auto;strokeColor=#FFFF00;strokeWidth=3;fontSize=66;fontColor=#000000;" parent="720" vertex="1">
                    <mxGeometry x="100" width="100" height="100" as="geometry">
                        <mxRectangle width="100" height="100" as="alternateBounds"/>
                    </mxGeometry>
                </mxCell>
                <mxCell id="723" value="" style="shape=partialRectangle;html=1;whiteSpace=wrap;connectable=0;overflow=hidden;fillColor=none;top=0;left=0;bottom=0;right=0;pointerEvents=1;fillStyle=auto;strokeColor=#FFFF00;strokeWidth=3;fontSize=66;fontColor=#000000;" parent="720" vertex="1">
                    <mxGeometry x="200" width="100" height="100" as="geometry">
                        <mxRectangle width="100" height="100" as="alternateBounds"/>
                    </mxGeometry>
                </mxCell>
                <mxCell id="724" value="" style="shape=partialRectangle;html=1;whiteSpace=wrap;connectable=0;overflow=hidden;fillColor=none;top=0;left=0;bottom=0;right=0;pointerEvents=1;fillStyle=auto;strokeColor=#FFFF00;strokeWidth=3;fontSize=66;fontColor=#000000;" parent="720" vertex="1">
                    <mxGeometry x="300" width="100" height="100" as="geometry">
                        <mxRectangle width="100" height="100" as="alternateBounds"/>
                    </mxGeometry>
                </mxCell>
                <mxCell id="725" value="" style="shape=partialRectangle;html=1;whiteSpace=wrap;connectable=0;overflow=hidden;fillColor=none;top=0;left=0;bottom=0;right=0;pointerEvents=1;fillStyle=auto;strokeColor=#FFFF00;strokeWidth=3;fontSize=66;fontColor=#000000;" parent="720" vertex="1">
                    <mxGeometry x="400" width="100" height="100" as="geometry">
                        <mxRectangle width="100" height="100" as="alternateBounds"/>
                    </mxGeometry>
                </mxCell>
                <mxCell id="726" value="" style="shape=partialRectangle;html=1;whiteSpace=wrap;connectable=0;overflow=hidden;fillColor=none;top=0;left=0;bottom=0;right=0;pointerEvents=1;fillStyle=auto;strokeColor=#FFFF00;strokeWidth=3;fontSize=66;fontColor=#000000;" parent="720" vertex="1">
                    <mxGeometry x="500" width="100" height="100" as="geometry">
                        <mxRectangle width="100" height="100" as="alternateBounds"/>
                    </mxGeometry>
                </mxCell>
                <mxCell id="727" value="" style="shape=partialRectangle;html=1;whiteSpace=wrap;connectable=0;overflow=hidden;fillColor=none;top=0;left=0;bottom=0;right=0;pointerEvents=1;fillStyle=auto;strokeColor=#FFFF00;strokeWidth=3;fontSize=66;fontColor=#000000;" parent="720" vertex="1">
                    <mxGeometry x="600" width="100" height="100" as="geometry">
                        <mxRectangle width="100" height="100" as="alternateBounds"/>
                    </mxGeometry>
                </mxCell>
                <mxCell id="728" value="" style="shape=partialRectangle;html=1;whiteSpace=wrap;connectable=0;overflow=hidden;fillColor=none;top=0;left=0;bottom=0;right=0;pointerEvents=1;fillStyle=auto;strokeColor=#FFFF00;strokeWidth=3;fontSize=66;fontColor=#000000;" parent="720" vertex="1">
                    <mxGeometry x="700" width="100" height="100" as="geometry">
                        <mxRectangle width="100" height="100" as="alternateBounds"/>
                    </mxGeometry>
                </mxCell>
                <mxCell id="729" value="" style="shape=table;startSize=0;container=1;collapsible=0;childLayout=tableLayout;fillStyle=auto;strokeColor=#C73500;strokeWidth=3;fontSize=66;fontColor=#000000;fillColor=#fa6800;html=1;" parent="1" vertex="1">
                    <mxGeometry x="638" y="2567" width="800" height="100" as="geometry"/>
                </mxCell>
                <mxCell id="730" value="" style="shape=tableRow;horizontal=0;startSize=0;swimlaneHead=0;swimlaneBody=0;top=0;left=0;bottom=0;right=0;collapsible=0;dropTarget=0;fillColor=none;points=[[0,0.5],[1,0.5]];portConstraint=eastwest;fillStyle=auto;strokeColor=#FFFF00;strokeWidth=3;fontSize=66;fontColor=#000000;html=1;" parent="729" vertex="1">
                    <mxGeometry width="800" height="100" as="geometry"/>
                </mxCell>
                <mxCell id="731" value="" style="shape=partialRectangle;html=1;whiteSpace=wrap;connectable=0;overflow=hidden;fillColor=none;top=0;left=0;bottom=0;right=0;pointerEvents=1;fillStyle=auto;strokeColor=#FFFF00;strokeWidth=3;fontSize=66;fontColor=#000000;" parent="730" vertex="1">
                    <mxGeometry width="100" height="100" as="geometry">
                        <mxRectangle width="100" height="100" as="alternateBounds"/>
                    </mxGeometry>
                </mxCell>
                <mxCell id="732" value="" style="shape=partialRectangle;html=1;whiteSpace=wrap;connectable=0;overflow=hidden;fillColor=none;top=0;left=0;bottom=0;right=0;pointerEvents=1;fillStyle=auto;strokeColor=#FFFF00;strokeWidth=3;fontSize=66;fontColor=#000000;" parent="730" vertex="1">
                    <mxGeometry x="100" width="100" height="100" as="geometry">
                        <mxRectangle width="100" height="100" as="alternateBounds"/>
                    </mxGeometry>
                </mxCell>
                <mxCell id="733" value="" style="shape=partialRectangle;html=1;whiteSpace=wrap;connectable=0;overflow=hidden;fillColor=none;top=0;left=0;bottom=0;right=0;pointerEvents=1;fillStyle=auto;strokeColor=#FFFF00;strokeWidth=3;fontSize=66;fontColor=#000000;" parent="730" vertex="1">
                    <mxGeometry x="200" width="100" height="100" as="geometry">
                        <mxRectangle width="100" height="100" as="alternateBounds"/>
                    </mxGeometry>
                </mxCell>
                <mxCell id="734" value="" style="shape=partialRectangle;html=1;whiteSpace=wrap;connectable=0;overflow=hidden;fillColor=none;top=0;left=0;bottom=0;right=0;pointerEvents=1;fillStyle=auto;strokeColor=#FFFF00;strokeWidth=3;fontSize=66;fontColor=#000000;" parent="730" vertex="1">
                    <mxGeometry x="300" width="100" height="100" as="geometry">
                        <mxRectangle width="100" height="100" as="alternateBounds"/>
                    </mxGeometry>
                </mxCell>
                <mxCell id="735" value="" style="shape=partialRectangle;html=1;whiteSpace=wrap;connectable=0;overflow=hidden;fillColor=none;top=0;left=0;bottom=0;right=0;pointerEvents=1;fillStyle=auto;strokeColor=#FFFF00;strokeWidth=3;fontSize=66;fontColor=#000000;" parent="730" vertex="1">
                    <mxGeometry x="400" width="100" height="100" as="geometry">
                        <mxRectangle width="100" height="100" as="alternateBounds"/>
                    </mxGeometry>
                </mxCell>
                <mxCell id="736" value="" style="shape=partialRectangle;html=1;whiteSpace=wrap;connectable=0;overflow=hidden;fillColor=none;top=0;left=0;bottom=0;right=0;pointerEvents=1;fillStyle=auto;strokeColor=#FFFF00;strokeWidth=3;fontSize=66;fontColor=#000000;" parent="730" vertex="1">
                    <mxGeometry x="500" width="100" height="100" as="geometry">
                        <mxRectangle width="100" height="100" as="alternateBounds"/>
                    </mxGeometry>
                </mxCell>
                <mxCell id="737" value="" style="shape=partialRectangle;html=1;whiteSpace=wrap;connectable=0;overflow=hidden;fillColor=none;top=0;left=0;bottom=0;right=0;pointerEvents=1;fillStyle=auto;strokeColor=#FFFF00;strokeWidth=3;fontSize=66;fontColor=#000000;" parent="730" vertex="1">
                    <mxGeometry x="600" width="100" height="100" as="geometry">
                        <mxRectangle width="100" height="100" as="alternateBounds"/>
                    </mxGeometry>
                </mxCell>
                <mxCell id="738" value="" style="shape=partialRectangle;html=1;whiteSpace=wrap;connectable=0;overflow=hidden;fillColor=none;top=0;left=0;bottom=0;right=0;pointerEvents=1;fillStyle=auto;strokeColor=#FFFF00;strokeWidth=3;fontSize=66;fontColor=#000000;" parent="730" vertex="1">
                    <mxGeometry x="700" width="100" height="100" as="geometry">
                        <mxRectangle width="100" height="100" as="alternateBounds"/>
                    </mxGeometry>
                </mxCell>
                <mxCell id="739" value="" style="shape=table;startSize=0;container=1;collapsible=0;childLayout=tableLayout;fillStyle=auto;strokeColor=#C73500;strokeWidth=3;fontSize=66;fontColor=#000000;fillColor=#fa6800;html=1;" parent="1" vertex="1">
                    <mxGeometry x="638" y="2707" width="800" height="100" as="geometry"/>
                </mxCell>
                <mxCell id="740" value="" style="shape=tableRow;horizontal=0;startSize=0;swimlaneHead=0;swimlaneBody=0;top=0;left=0;bottom=0;right=0;collapsible=0;dropTarget=0;fillColor=none;points=[[0,0.5],[1,0.5]];portConstraint=eastwest;fillStyle=auto;strokeColor=#FFFF00;strokeWidth=3;fontSize=66;fontColor=#000000;html=1;" parent="739" vertex="1">
                    <mxGeometry width="800" height="100" as="geometry"/>
                </mxCell>
                <mxCell id="741" value="" style="shape=partialRectangle;html=1;whiteSpace=wrap;connectable=0;overflow=hidden;fillColor=none;top=0;left=0;bottom=0;right=0;pointerEvents=1;fillStyle=auto;strokeColor=#FFFF00;strokeWidth=3;fontSize=66;fontColor=#000000;" parent="740" vertex="1">
                    <mxGeometry width="100" height="100" as="geometry">
                        <mxRectangle width="100" height="100" as="alternateBounds"/>
                    </mxGeometry>
                </mxCell>
                <mxCell id="742" value="" style="shape=partialRectangle;html=1;whiteSpace=wrap;connectable=0;overflow=hidden;fillColor=none;top=0;left=0;bottom=0;right=0;pointerEvents=1;fillStyle=auto;strokeColor=#FFFF00;strokeWidth=3;fontSize=66;fontColor=#000000;" parent="740" vertex="1">
                    <mxGeometry x="100" width="100" height="100" as="geometry">
                        <mxRectangle width="100" height="100" as="alternateBounds"/>
                    </mxGeometry>
                </mxCell>
                <mxCell id="743" value="" style="shape=partialRectangle;html=1;whiteSpace=wrap;connectable=0;overflow=hidden;fillColor=none;top=0;left=0;bottom=0;right=0;pointerEvents=1;fillStyle=auto;strokeColor=#FFFF00;strokeWidth=3;fontSize=66;fontColor=#000000;" parent="740" vertex="1">
                    <mxGeometry x="200" width="100" height="100" as="geometry">
                        <mxRectangle width="100" height="100" as="alternateBounds"/>
                    </mxGeometry>
                </mxCell>
                <mxCell id="744" value="" style="shape=partialRectangle;html=1;whiteSpace=wrap;connectable=0;overflow=hidden;fillColor=none;top=0;left=0;bottom=0;right=0;pointerEvents=1;fillStyle=auto;strokeColor=#FFFF00;strokeWidth=3;fontSize=66;fontColor=#000000;" parent="740" vertex="1">
                    <mxGeometry x="300" width="100" height="100" as="geometry">
                        <mxRectangle width="100" height="100" as="alternateBounds"/>
                    </mxGeometry>
                </mxCell>
                <mxCell id="745" value="" style="shape=partialRectangle;html=1;whiteSpace=wrap;connectable=0;overflow=hidden;fillColor=none;top=0;left=0;bottom=0;right=0;pointerEvents=1;fillStyle=auto;strokeColor=#FFFF00;strokeWidth=3;fontSize=66;fontColor=#000000;" parent="740" vertex="1">
                    <mxGeometry x="400" width="100" height="100" as="geometry">
                        <mxRectangle width="100" height="100" as="alternateBounds"/>
                    </mxGeometry>
                </mxCell>
                <mxCell id="746" value="" style="shape=partialRectangle;html=1;whiteSpace=wrap;connectable=0;overflow=hidden;fillColor=none;top=0;left=0;bottom=0;right=0;pointerEvents=1;fillStyle=auto;strokeColor=#FFFF00;strokeWidth=3;fontSize=66;fontColor=#000000;" parent="740" vertex="1">
                    <mxGeometry x="500" width="100" height="100" as="geometry">
                        <mxRectangle width="100" height="100" as="alternateBounds"/>
                    </mxGeometry>
                </mxCell>
                <mxCell id="747" value="" style="shape=partialRectangle;html=1;whiteSpace=wrap;connectable=0;overflow=hidden;fillColor=none;top=0;left=0;bottom=0;right=0;pointerEvents=1;fillStyle=auto;strokeColor=#FFFF00;strokeWidth=3;fontSize=66;fontColor=#000000;" parent="740" vertex="1">
                    <mxGeometry x="600" width="100" height="100" as="geometry">
                        <mxRectangle width="100" height="100" as="alternateBounds"/>
                    </mxGeometry>
                </mxCell>
                <mxCell id="748" value="" style="shape=partialRectangle;html=1;whiteSpace=wrap;connectable=0;overflow=hidden;fillColor=none;top=0;left=0;bottom=0;right=0;pointerEvents=1;fillStyle=auto;strokeColor=#FFFF00;strokeWidth=3;fontSize=66;fontColor=#000000;" parent="740" vertex="1">
                    <mxGeometry x="700" width="100" height="100" as="geometry">
                        <mxRectangle width="100" height="100" as="alternateBounds"/>
                    </mxGeometry>
                </mxCell>
                <mxCell id="749" value="&amp;nbsp;Σ&lt;sub&gt;(jϵN(i))&amp;nbsp;&lt;/sub&gt;" style="text;html=1;align=center;verticalAlign=middle;resizable=0;points=[];autosize=1;strokeColor=none;fillColor=none;fontSize=66;fontColor=#000000;labelBorderColor=#000000;spacingBottom=0;" parent="1" vertex="1">
                    <mxGeometry x="127" y="2571" width="257" height="100" as="geometry"/>
                </mxCell>
                <mxCell id="750" value="h&lt;sub&gt;1&lt;/sub&gt;*" style="text;html=1;align=center;verticalAlign=middle;resizable=0;points=[];autosize=1;strokeColor=none;fillColor=none;fontSize=66;fontColor=#000000;" parent="1" vertex="1">
                    <mxGeometry x="515" y="2434" width="111" height="102" as="geometry"/>
                </mxCell>
                <mxCell id="832" style="edgeStyle=none;rounded=1;html=1;entryX=1.026;entryY=0.497;entryDx=0;entryDy=0;entryPerimeter=0;strokeColor=#009FFC;strokeWidth=5;fontSize=100;fontColor=#000000;startArrow=none;startFill=0;endArrow=none;endFill=0;" parent="1" source="751" target="749" edge="1">
                    <mxGeometry relative="1" as="geometry"/>
                </mxCell>
                <mxCell id="751" value="h&lt;sub&gt;2&lt;/sub&gt;*" style="text;html=1;align=center;verticalAlign=middle;resizable=0;points=[];autosize=1;strokeColor=none;fillColor=none;fontSize=66;fontColor=#000000;" parent="1" vertex="1">
                    <mxGeometry x="515" y="2567" width="111" height="102" as="geometry"/>
                </mxCell>
                <mxCell id="831" style="edgeStyle=none;rounded=1;html=1;entryX=1.026;entryY=0.509;entryDx=0;entryDy=0;entryPerimeter=0;strokeColor=#009FFC;strokeWidth=5;fontSize=100;fontColor=#000000;startArrow=none;startFill=0;endArrow=none;endFill=0;" parent="1" source="752" target="749" edge="1">
                    <mxGeometry relative="1" as="geometry"/>
                </mxCell>
                <mxCell id="752" value="h&lt;span style=&quot;font-size: 55px;&quot;&gt;&lt;sub&gt;3&lt;/sub&gt;&lt;/span&gt;*" style="text;html=1;align=center;verticalAlign=middle;resizable=0;points=[];autosize=1;strokeColor=none;fillColor=none;fontSize=66;fontColor=#000000;" parent="1" vertex="1">
                    <mxGeometry x="518" y="2710" width="106" height="97" as="geometry"/>
                </mxCell>
                <mxCell id="753" value="" style="endArrow=none;html=1;strokeColor=#009FFC;strokeWidth=5;fontSize=66;fontColor=#000000;exitX=1.028;exitY=0.461;exitDx=0;exitDy=0;exitPerimeter=0;" parent="1" source="749" edge="1">
                    <mxGeometry width="50" height="50" relative="1" as="geometry">
                        <mxPoint x="468" y="2538.5" as="sourcePoint"/>
                        <mxPoint x="518" y="2488.5" as="targetPoint"/>
                    </mxGeometry>
                </mxCell>
                <mxCell id="756" style="edgeStyle=none;rounded=1;html=1;exitX=0;exitY=0.5;exitDx=0;exitDy=0;entryX=1;entryY=0.5;entryDx=0;entryDy=0;strokeColor=#009FFC;strokeWidth=5;fontSize=40;fontColor=#FFFFFF;startArrow=none;startFill=0;endArrow=classic;endFill=1;" parent="1" source="667" target="426" edge="1">
                    <mxGeometry relative="1" as="geometry"/>
                </mxCell>
                <mxCell id="757" style="edgeStyle=none;rounded=1;html=1;exitX=0;exitY=0.5;exitDx=0;exitDy=0;entryX=1.002;entryY=0.302;entryDx=0;entryDy=0;entryPerimeter=0;strokeColor=#009FFC;strokeWidth=5;fontSize=40;fontColor=#FFFFFF;startArrow=none;startFill=0;endArrow=classic;endFill=1;" parent="1" source="669" target="416" edge="1">
                    <mxGeometry relative="1" as="geometry"/>
                </mxCell>
                <mxCell id="758" style="edgeStyle=none;rounded=1;html=1;exitX=1;exitY=0.5;exitDx=0;exitDy=0;entryX=0;entryY=0.5;entryDx=0;entryDy=0;strokeColor=#009FFC;strokeWidth=5;fontSize=40;fontColor=#FFFFFF;startArrow=classic;startFill=1;endArrow=none;endFill=0;" parent="1" source="435" target="666" edge="1">
                    <mxGeometry relative="1" as="geometry"/>
                </mxCell>
                <mxCell id="760" style="edgeStyle=none;rounded=1;html=1;exitX=1;exitY=0.5;exitDx=0;exitDy=0;strokeColor=#6F0000;strokeWidth=5;fontSize=40;fontColor=#FFFFFF;startArrow=classic;startFill=1;endArrow=none;endFill=0;fillColor=#a20025;" parent="1" source="651" edge="1">
                    <mxGeometry relative="1" as="geometry">
                        <mxPoint x="1174" y="2227" as="targetPoint"/>
                    </mxGeometry>
                </mxCell>
                <mxCell id="761" style="edgeStyle=none;rounded=1;html=1;exitX=1;exitY=0.5;exitDx=0;exitDy=0;entryX=0;entryY=0.5;entryDx=0;entryDy=0;strokeColor=#6F0000;strokeWidth=5;fontSize=40;fontColor=#FFFFFF;startArrow=classic;startFill=1;endArrow=none;endFill=0;fillColor=#a20025;" parent="1" source="444" target="673" edge="1">
                    <mxGeometry relative="1" as="geometry"/>
                </mxCell>
                <mxCell id="767" value="" style="shape=table;startSize=0;container=1;collapsible=0;childLayout=tableLayout;rounded=0;fillStyle=auto;strokeColor=#00A0FF;strokeWidth=5;fontSize=33;fontColor=#FFFFFF;fillColor=default;gradientColor=none;html=1;" parent="1" vertex="1">
                    <mxGeometry x="1665" y="2374" width="800" height="500" as="geometry"/>
                </mxCell>
                <mxCell id="768" value="" style="shape=tableRow;horizontal=0;startSize=0;swimlaneHead=0;swimlaneBody=0;top=0;left=0;bottom=0;right=0;collapsible=0;dropTarget=0;fillColor=#1ba1e2;points=[[0,0.5],[1,0.5]];portConstraint=eastwest;rounded=0;fillStyle=auto;strokeColor=#006EAF;strokeWidth=5;fontSize=33;fontColor=#ffffff;html=1;opacity=70;" parent="767" vertex="1">
                    <mxGeometry width="800" height="100" as="geometry"/>
                </mxCell>
                <mxCell id="769" value="" style="shape=partialRectangle;html=1;whiteSpace=wrap;connectable=0;overflow=hidden;fillColor=none;top=0;left=0;bottom=0;right=0;pointerEvents=1;rounded=0;fillStyle=auto;strokeColor=#00A0FF;strokeWidth=5;fontSize=33;fontColor=#FFFFFF;" parent="768" vertex="1">
                    <mxGeometry width="100" height="100" as="geometry">
                        <mxRectangle width="100" height="100" as="alternateBounds"/>
                    </mxGeometry>
                </mxCell>
                <mxCell id="770" value="" style="shape=partialRectangle;html=1;whiteSpace=wrap;connectable=0;overflow=hidden;fillColor=none;top=0;left=0;bottom=0;right=0;pointerEvents=1;rounded=0;fillStyle=auto;strokeColor=#00A0FF;strokeWidth=5;fontSize=33;fontColor=#FFFFFF;" parent="768" vertex="1">
                    <mxGeometry x="100" width="100" height="100" as="geometry">
                        <mxRectangle width="100" height="100" as="alternateBounds"/>
                    </mxGeometry>
                </mxCell>
                <mxCell id="771" value="" style="shape=partialRectangle;html=1;whiteSpace=wrap;connectable=0;overflow=hidden;fillColor=none;top=0;left=0;bottom=0;right=0;pointerEvents=1;rounded=0;fillStyle=auto;strokeColor=#00A0FF;strokeWidth=5;fontSize=33;fontColor=#FFFFFF;" parent="768" vertex="1">
                    <mxGeometry x="200" width="100" height="100" as="geometry">
                        <mxRectangle width="100" height="100" as="alternateBounds"/>
                    </mxGeometry>
                </mxCell>
                <mxCell id="772" value="" style="shape=partialRectangle;html=1;whiteSpace=wrap;connectable=0;overflow=hidden;fillColor=none;top=0;left=0;bottom=0;right=0;pointerEvents=1;rounded=0;fillStyle=auto;strokeColor=#00A0FF;strokeWidth=5;fontSize=33;fontColor=#FFFFFF;" parent="768" vertex="1">
                    <mxGeometry x="300" width="100" height="100" as="geometry">
                        <mxRectangle width="100" height="100" as="alternateBounds"/>
                    </mxGeometry>
                </mxCell>
                <mxCell id="773" value="" style="shape=partialRectangle;html=1;whiteSpace=wrap;connectable=0;overflow=hidden;fillColor=none;top=0;left=0;bottom=0;right=0;pointerEvents=1;rounded=0;fillStyle=auto;strokeColor=#00A0FF;strokeWidth=5;fontSize=33;fontColor=#FFFFFF;" parent="768" vertex="1">
                    <mxGeometry x="400" width="100" height="100" as="geometry">
                        <mxRectangle width="100" height="100" as="alternateBounds"/>
                    </mxGeometry>
                </mxCell>
                <mxCell id="774" value="" style="shape=partialRectangle;html=1;whiteSpace=wrap;connectable=0;overflow=hidden;fillColor=none;top=0;left=0;bottom=0;right=0;pointerEvents=1;rounded=0;fillStyle=auto;strokeColor=#00A0FF;strokeWidth=5;fontSize=33;fontColor=#FFFFFF;" parent="768" vertex="1">
                    <mxGeometry x="500" width="100" height="100" as="geometry">
                        <mxRectangle width="100" height="100" as="alternateBounds"/>
                    </mxGeometry>
                </mxCell>
                <mxCell id="775" value="" style="shape=partialRectangle;html=1;whiteSpace=wrap;connectable=0;overflow=hidden;fillColor=none;top=0;left=0;bottom=0;right=0;pointerEvents=1;rounded=0;fillStyle=auto;strokeColor=#00A0FF;strokeWidth=5;fontSize=33;fontColor=#FFFFFF;" parent="768" vertex="1">
                    <mxGeometry x="600" width="100" height="100" as="geometry">
                        <mxRectangle width="100" height="100" as="alternateBounds"/>
                    </mxGeometry>
                </mxCell>
                <mxCell id="776" value="" style="shape=partialRectangle;html=1;whiteSpace=wrap;connectable=0;overflow=hidden;fillColor=none;top=0;left=0;bottom=0;right=0;pointerEvents=1;rounded=0;fillStyle=auto;strokeColor=#00A0FF;strokeWidth=5;fontSize=33;fontColor=#FFFFFF;" parent="768" vertex="1">
                    <mxGeometry x="700" width="100" height="100" as="geometry">
                        <mxRectangle width="100" height="100" as="alternateBounds"/>
                    </mxGeometry>
                </mxCell>
                <mxCell id="777" value="" style="shape=tableRow;horizontal=0;startSize=0;swimlaneHead=0;swimlaneBody=0;top=0;left=0;bottom=0;right=0;collapsible=0;dropTarget=0;fillColor=none;points=[[0,0.5],[1,0.5]];portConstraint=eastwest;rounded=0;fillStyle=auto;strokeColor=#00A0FF;strokeWidth=5;fontSize=33;fontColor=#FFFFFF;html=1;" parent="767" vertex="1">
                    <mxGeometry y="100" width="800" height="100" as="geometry"/>
                </mxCell>
                <mxCell id="778" value="" style="shape=partialRectangle;html=1;whiteSpace=wrap;connectable=0;overflow=hidden;fillColor=none;top=0;left=0;bottom=0;right=0;pointerEvents=1;rounded=0;fillStyle=auto;strokeColor=#00A0FF;strokeWidth=5;fontSize=33;fontColor=#FFFFFF;" parent="777" vertex="1">
                    <mxGeometry width="100" height="100" as="geometry">
                        <mxRectangle width="100" height="100" as="alternateBounds"/>
                    </mxGeometry>
                </mxCell>
                <mxCell id="779" value="" style="shape=partialRectangle;html=1;whiteSpace=wrap;connectable=0;overflow=hidden;fillColor=none;top=0;left=0;bottom=0;right=0;pointerEvents=1;rounded=0;fillStyle=auto;strokeColor=#00A0FF;strokeWidth=5;fontSize=33;fontColor=#FFFFFF;" parent="777" vertex="1">
                    <mxGeometry x="100" width="100" height="100" as="geometry">
                        <mxRectangle width="100" height="100" as="alternateBounds"/>
                    </mxGeometry>
                </mxCell>
                <mxCell id="780" value="" style="shape=partialRectangle;html=1;whiteSpace=wrap;connectable=0;overflow=hidden;fillColor=none;top=0;left=0;bottom=0;right=0;pointerEvents=1;rounded=0;fillStyle=auto;strokeColor=#00A0FF;strokeWidth=5;fontSize=33;fontColor=#FFFFFF;" parent="777" vertex="1">
                    <mxGeometry x="200" width="100" height="100" as="geometry">
                        <mxRectangle width="100" height="100" as="alternateBounds"/>
                    </mxGeometry>
                </mxCell>
                <mxCell id="781" value="" style="shape=partialRectangle;html=1;whiteSpace=wrap;connectable=0;overflow=hidden;fillColor=none;top=0;left=0;bottom=0;right=0;pointerEvents=1;rounded=0;fillStyle=auto;strokeColor=#00A0FF;strokeWidth=5;fontSize=33;fontColor=#FFFFFF;" parent="777" vertex="1">
                    <mxGeometry x="300" width="100" height="100" as="geometry">
                        <mxRectangle width="100" height="100" as="alternateBounds"/>
                    </mxGeometry>
                </mxCell>
                <mxCell id="782" value="" style="shape=partialRectangle;html=1;whiteSpace=wrap;connectable=0;overflow=hidden;fillColor=none;top=0;left=0;bottom=0;right=0;pointerEvents=1;rounded=0;fillStyle=auto;strokeColor=#00A0FF;strokeWidth=5;fontSize=33;fontColor=#FFFFFF;" parent="777" vertex="1">
                    <mxGeometry x="400" width="100" height="100" as="geometry">
                        <mxRectangle width="100" height="100" as="alternateBounds"/>
                    </mxGeometry>
                </mxCell>
                <mxCell id="783" value="" style="shape=partialRectangle;html=1;whiteSpace=wrap;connectable=0;overflow=hidden;fillColor=none;top=0;left=0;bottom=0;right=0;pointerEvents=1;rounded=0;fillStyle=auto;strokeColor=#00A0FF;strokeWidth=5;fontSize=33;fontColor=#FFFFFF;" parent="777" vertex="1">
                    <mxGeometry x="500" width="100" height="100" as="geometry">
                        <mxRectangle width="100" height="100" as="alternateBounds"/>
                    </mxGeometry>
                </mxCell>
                <mxCell id="784" value="" style="shape=partialRectangle;html=1;whiteSpace=wrap;connectable=0;overflow=hidden;fillColor=none;top=0;left=0;bottom=0;right=0;pointerEvents=1;rounded=0;fillStyle=auto;strokeColor=#00A0FF;strokeWidth=5;fontSize=33;fontColor=#FFFFFF;" parent="777" vertex="1">
                    <mxGeometry x="600" width="100" height="100" as="geometry">
                        <mxRectangle width="100" height="100" as="alternateBounds"/>
                    </mxGeometry>
                </mxCell>
                <mxCell id="785" value="" style="shape=partialRectangle;html=1;whiteSpace=wrap;connectable=0;overflow=hidden;fillColor=none;top=0;left=0;bottom=0;right=0;pointerEvents=1;rounded=0;fillStyle=auto;strokeColor=#00A0FF;strokeWidth=5;fontSize=33;fontColor=#FFFFFF;" parent="777" vertex="1">
                    <mxGeometry x="700" width="100" height="100" as="geometry">
                        <mxRectangle width="100" height="100" as="alternateBounds"/>
                    </mxGeometry>
                </mxCell>
                <mxCell id="786" value="" style="shape=tableRow;horizontal=0;startSize=0;swimlaneHead=0;swimlaneBody=0;top=0;left=0;bottom=0;right=0;collapsible=0;dropTarget=0;fillColor=none;points=[[0,0.5],[1,0.5]];portConstraint=eastwest;rounded=0;fillStyle=auto;strokeColor=#00A0FF;strokeWidth=5;fontSize=33;fontColor=#FFFFFF;html=1;" parent="767" vertex="1">
                    <mxGeometry y="200" width="800" height="100" as="geometry"/>
                </mxCell>
                <mxCell id="787" value="" style="shape=partialRectangle;html=1;whiteSpace=wrap;connectable=0;overflow=hidden;fillColor=none;top=0;left=0;bottom=0;right=0;pointerEvents=1;rounded=0;fillStyle=auto;strokeColor=#00A0FF;strokeWidth=5;fontSize=33;fontColor=#FFFFFF;" parent="786" vertex="1">
                    <mxGeometry width="100" height="100" as="geometry">
                        <mxRectangle width="100" height="100" as="alternateBounds"/>
                    </mxGeometry>
                </mxCell>
                <mxCell id="788" value="" style="shape=partialRectangle;html=1;whiteSpace=wrap;connectable=0;overflow=hidden;fillColor=none;top=0;left=0;bottom=0;right=0;pointerEvents=1;rounded=0;fillStyle=auto;strokeColor=#00A0FF;strokeWidth=5;fontSize=33;fontColor=#FFFFFF;" parent="786" vertex="1">
                    <mxGeometry x="100" width="100" height="100" as="geometry">
                        <mxRectangle width="100" height="100" as="alternateBounds"/>
                    </mxGeometry>
                </mxCell>
                <mxCell id="789" value="" style="shape=partialRectangle;html=1;whiteSpace=wrap;connectable=0;overflow=hidden;fillColor=none;top=0;left=0;bottom=0;right=0;pointerEvents=1;rounded=0;fillStyle=auto;strokeColor=#00A0FF;strokeWidth=5;fontSize=33;fontColor=#FFFFFF;" parent="786" vertex="1">
                    <mxGeometry x="200" width="100" height="100" as="geometry">
                        <mxRectangle width="100" height="100" as="alternateBounds"/>
                    </mxGeometry>
                </mxCell>
                <mxCell id="790" value="" style="shape=partialRectangle;html=1;whiteSpace=wrap;connectable=0;overflow=hidden;fillColor=none;top=0;left=0;bottom=0;right=0;pointerEvents=1;rounded=0;fillStyle=auto;strokeColor=#00A0FF;strokeWidth=5;fontSize=33;fontColor=#FFFFFF;" parent="786" vertex="1">
                    <mxGeometry x="300" width="100" height="100" as="geometry">
                        <mxRectangle width="100" height="100" as="alternateBounds"/>
                    </mxGeometry>
                </mxCell>
                <mxCell id="791" value="" style="shape=partialRectangle;html=1;whiteSpace=wrap;connectable=0;overflow=hidden;fillColor=none;top=0;left=0;bottom=0;right=0;pointerEvents=1;rounded=0;fillStyle=auto;strokeColor=#00A0FF;strokeWidth=5;fontSize=33;fontColor=#FFFFFF;" parent="786" vertex="1">
                    <mxGeometry x="400" width="100" height="100" as="geometry">
                        <mxRectangle width="100" height="100" as="alternateBounds"/>
                    </mxGeometry>
                </mxCell>
                <mxCell id="792" value="" style="shape=partialRectangle;html=1;whiteSpace=wrap;connectable=0;overflow=hidden;fillColor=none;top=0;left=0;bottom=0;right=0;pointerEvents=1;rounded=0;fillStyle=auto;strokeColor=#00A0FF;strokeWidth=5;fontSize=33;fontColor=#FFFFFF;" parent="786" vertex="1">
                    <mxGeometry x="500" width="100" height="100" as="geometry">
                        <mxRectangle width="100" height="100" as="alternateBounds"/>
                    </mxGeometry>
                </mxCell>
                <mxCell id="793" value="" style="shape=partialRectangle;html=1;whiteSpace=wrap;connectable=0;overflow=hidden;fillColor=none;top=0;left=0;bottom=0;right=0;pointerEvents=1;rounded=0;fillStyle=auto;strokeColor=#00A0FF;strokeWidth=5;fontSize=33;fontColor=#FFFFFF;" parent="786" vertex="1">
                    <mxGeometry x="600" width="100" height="100" as="geometry">
                        <mxRectangle width="100" height="100" as="alternateBounds"/>
                    </mxGeometry>
                </mxCell>
                <mxCell id="794" value="" style="shape=partialRectangle;html=1;whiteSpace=wrap;connectable=0;overflow=hidden;fillColor=none;top=0;left=0;bottom=0;right=0;pointerEvents=1;rounded=0;fillStyle=auto;strokeColor=#00A0FF;strokeWidth=5;fontSize=33;fontColor=#FFFFFF;" parent="786" vertex="1">
                    <mxGeometry x="700" width="100" height="100" as="geometry">
                        <mxRectangle width="100" height="100" as="alternateBounds"/>
                    </mxGeometry>
                </mxCell>
                <mxCell id="795" value="" style="shape=tableRow;horizontal=0;startSize=0;swimlaneHead=0;swimlaneBody=0;top=0;left=0;bottom=0;right=0;collapsible=0;dropTarget=0;fillColor=none;points=[[0,0.5],[1,0.5]];portConstraint=eastwest;rounded=0;fillStyle=auto;strokeColor=#00A0FF;strokeWidth=5;fontSize=33;fontColor=#FFFFFF;html=1;" parent="767" vertex="1">
                    <mxGeometry y="300" width="800" height="100" as="geometry"/>
                </mxCell>
                <mxCell id="796" value="" style="shape=partialRectangle;html=1;whiteSpace=wrap;connectable=0;overflow=hidden;fillColor=none;top=0;left=0;bottom=0;right=0;pointerEvents=1;rounded=0;fillStyle=auto;strokeColor=#00A0FF;strokeWidth=5;fontSize=33;fontColor=#FFFFFF;" parent="795" vertex="1">
                    <mxGeometry width="100" height="100" as="geometry">
                        <mxRectangle width="100" height="100" as="alternateBounds"/>
                    </mxGeometry>
                </mxCell>
                <mxCell id="797" value="" style="shape=partialRectangle;html=1;whiteSpace=wrap;connectable=0;overflow=hidden;fillColor=none;top=0;left=0;bottom=0;right=0;pointerEvents=1;rounded=0;fillStyle=auto;strokeColor=#00A0FF;strokeWidth=5;fontSize=33;fontColor=#FFFFFF;" parent="795" vertex="1">
                    <mxGeometry x="100" width="100" height="100" as="geometry">
                        <mxRectangle width="100" height="100" as="alternateBounds"/>
                    </mxGeometry>
                </mxCell>
                <mxCell id="798" value="" style="shape=partialRectangle;html=1;whiteSpace=wrap;connectable=0;overflow=hidden;fillColor=none;top=0;left=0;bottom=0;right=0;pointerEvents=1;rounded=0;fillStyle=auto;strokeColor=#00A0FF;strokeWidth=5;fontSize=33;fontColor=#FFFFFF;" parent="795" vertex="1">
                    <mxGeometry x="200" width="100" height="100" as="geometry">
                        <mxRectangle width="100" height="100" as="alternateBounds"/>
                    </mxGeometry>
                </mxCell>
                <mxCell id="799" value="" style="shape=partialRectangle;html=1;whiteSpace=wrap;connectable=0;overflow=hidden;fillColor=none;top=0;left=0;bottom=0;right=0;pointerEvents=1;rounded=0;fillStyle=auto;strokeColor=#00A0FF;strokeWidth=5;fontSize=33;fontColor=#FFFFFF;" parent="795" vertex="1">
                    <mxGeometry x="300" width="100" height="100" as="geometry">
                        <mxRectangle width="100" height="100" as="alternateBounds"/>
                    </mxGeometry>
                </mxCell>
                <mxCell id="800" value="" style="shape=partialRectangle;html=1;whiteSpace=wrap;connectable=0;overflow=hidden;fillColor=none;top=0;left=0;bottom=0;right=0;pointerEvents=1;rounded=0;fillStyle=auto;strokeColor=#00A0FF;strokeWidth=5;fontSize=33;fontColor=#FFFFFF;" parent="795" vertex="1">
                    <mxGeometry x="400" width="100" height="100" as="geometry">
                        <mxRectangle width="100" height="100" as="alternateBounds"/>
                    </mxGeometry>
                </mxCell>
                <mxCell id="801" value="" style="shape=partialRectangle;html=1;whiteSpace=wrap;connectable=0;overflow=hidden;fillColor=none;top=0;left=0;bottom=0;right=0;pointerEvents=1;rounded=0;fillStyle=auto;strokeColor=#00A0FF;strokeWidth=5;fontSize=33;fontColor=#FFFFFF;" parent="795" vertex="1">
                    <mxGeometry x="500" width="100" height="100" as="geometry">
                        <mxRectangle width="100" height="100" as="alternateBounds"/>
                    </mxGeometry>
                </mxCell>
                <mxCell id="802" value="" style="shape=partialRectangle;html=1;whiteSpace=wrap;connectable=0;overflow=hidden;fillColor=none;top=0;left=0;bottom=0;right=0;pointerEvents=1;rounded=0;fillStyle=auto;strokeColor=#00A0FF;strokeWidth=5;fontSize=33;fontColor=#FFFFFF;" parent="795" vertex="1">
                    <mxGeometry x="600" width="100" height="100" as="geometry">
                        <mxRectangle width="100" height="100" as="alternateBounds"/>
                    </mxGeometry>
                </mxCell>
                <mxCell id="803" value="" style="shape=partialRectangle;html=1;whiteSpace=wrap;connectable=0;overflow=hidden;fillColor=none;top=0;left=0;bottom=0;right=0;pointerEvents=1;rounded=0;fillStyle=auto;strokeColor=#00A0FF;strokeWidth=5;fontSize=33;fontColor=#FFFFFF;" parent="795" vertex="1">
                    <mxGeometry x="700" width="100" height="100" as="geometry">
                        <mxRectangle width="100" height="100" as="alternateBounds"/>
                    </mxGeometry>
                </mxCell>
                <mxCell id="804" value="" style="shape=tableRow;horizontal=0;startSize=0;swimlaneHead=0;swimlaneBody=0;top=0;left=0;bottom=0;right=0;collapsible=0;dropTarget=0;fillColor=none;points=[[0,0.5],[1,0.5]];portConstraint=eastwest;rounded=0;fillStyle=auto;strokeColor=#00A0FF;strokeWidth=5;fontSize=33;fontColor=#FFFFFF;html=1;" parent="767" vertex="1">
                    <mxGeometry y="400" width="800" height="100" as="geometry"/>
                </mxCell>
                <mxCell id="805" value="" style="shape=partialRectangle;html=1;whiteSpace=wrap;connectable=0;overflow=hidden;fillColor=none;top=0;left=0;bottom=0;right=0;pointerEvents=1;rounded=0;fillStyle=auto;strokeColor=#00A0FF;strokeWidth=5;fontSize=33;fontColor=#FFFFFF;" parent="804" vertex="1">
                    <mxGeometry width="100" height="100" as="geometry">
                        <mxRectangle width="100" height="100" as="alternateBounds"/>
                    </mxGeometry>
                </mxCell>
                <mxCell id="806" value="" style="shape=partialRectangle;html=1;whiteSpace=wrap;connectable=0;overflow=hidden;fillColor=none;top=0;left=0;bottom=0;right=0;pointerEvents=1;rounded=0;fillStyle=auto;strokeColor=#00A0FF;strokeWidth=5;fontSize=33;fontColor=#FFFFFF;" parent="804" vertex="1">
                    <mxGeometry x="100" width="100" height="100" as="geometry">
                        <mxRectangle width="100" height="100" as="alternateBounds"/>
                    </mxGeometry>
                </mxCell>
                <mxCell id="807" value="" style="shape=partialRectangle;html=1;whiteSpace=wrap;connectable=0;overflow=hidden;fillColor=none;top=0;left=0;bottom=0;right=0;pointerEvents=1;rounded=0;fillStyle=auto;strokeColor=#00A0FF;strokeWidth=5;fontSize=33;fontColor=#FFFFFF;" parent="804" vertex="1">
                    <mxGeometry x="200" width="100" height="100" as="geometry">
                        <mxRectangle width="100" height="100" as="alternateBounds"/>
                    </mxGeometry>
                </mxCell>
                <mxCell id="808" value="" style="shape=partialRectangle;html=1;whiteSpace=wrap;connectable=0;overflow=hidden;fillColor=none;top=0;left=0;bottom=0;right=0;pointerEvents=1;rounded=0;fillStyle=auto;strokeColor=#00A0FF;strokeWidth=5;fontSize=33;fontColor=#FFFFFF;" parent="804" vertex="1">
                    <mxGeometry x="300" width="100" height="100" as="geometry">
                        <mxRectangle width="100" height="100" as="alternateBounds"/>
                    </mxGeometry>
                </mxCell>
                <mxCell id="809" value="" style="shape=partialRectangle;html=1;whiteSpace=wrap;connectable=0;overflow=hidden;fillColor=none;top=0;left=0;bottom=0;right=0;pointerEvents=1;rounded=0;fillStyle=auto;strokeColor=#00A0FF;strokeWidth=5;fontSize=33;fontColor=#FFFFFF;" parent="804" vertex="1">
                    <mxGeometry x="400" width="100" height="100" as="geometry">
                        <mxRectangle width="100" height="100" as="alternateBounds"/>
                    </mxGeometry>
                </mxCell>
                <mxCell id="810" value="" style="shape=partialRectangle;html=1;whiteSpace=wrap;connectable=0;overflow=hidden;fillColor=none;top=0;left=0;bottom=0;right=0;pointerEvents=1;rounded=0;fillStyle=auto;strokeColor=#00A0FF;strokeWidth=5;fontSize=33;fontColor=#FFFFFF;" parent="804" vertex="1">
                    <mxGeometry x="500" width="100" height="100" as="geometry">
                        <mxRectangle width="100" height="100" as="alternateBounds"/>
                    </mxGeometry>
                </mxCell>
                <mxCell id="811" value="" style="shape=partialRectangle;html=1;whiteSpace=wrap;connectable=0;overflow=hidden;fillColor=none;top=0;left=0;bottom=0;right=0;pointerEvents=1;rounded=0;fillStyle=auto;strokeColor=#00A0FF;strokeWidth=5;fontSize=33;fontColor=#FFFFFF;" parent="804" vertex="1">
                    <mxGeometry x="600" width="100" height="100" as="geometry">
                        <mxRectangle width="100" height="100" as="alternateBounds"/>
                    </mxGeometry>
                </mxCell>
                <mxCell id="812" value="" style="shape=partialRectangle;html=1;whiteSpace=wrap;connectable=0;overflow=hidden;fillColor=none;top=0;left=0;bottom=0;right=0;pointerEvents=1;rounded=0;fillStyle=auto;strokeColor=#00A0FF;strokeWidth=5;fontSize=33;fontColor=#FFFFFF;" parent="804" vertex="1">
                    <mxGeometry x="700" width="100" height="100" as="geometry">
                        <mxRectangle width="100" height="100" as="alternateBounds"/>
                    </mxGeometry>
                </mxCell>
                <mxCell id="816" style="edgeStyle=none;rounded=1;html=1;exitX=0.1;exitY=0.5;exitDx=0;exitDy=0;exitPerimeter=0;entryX=0;entryY=0.5;entryDx=0;entryDy=0;strokeColor=#005700;strokeWidth=5;fontSize=33;fontColor=#FFFFFF;startArrow=none;startFill=0;endArrow=classic;endFill=1;fillColor=#008a00;" parent="1" source="814" target="768" edge="1">
                    <mxGeometry relative="1" as="geometry">
                        <mxPoint x="1631" y="2423.5" as="targetPoint"/>
                    </mxGeometry>
                </mxCell>
                <mxCell id="814" value="" style="shape=curlyBracket;whiteSpace=wrap;html=1;rounded=1;flipH=1;labelPosition=right;verticalLabelPosition=middle;align=left;verticalAlign=middle;fillStyle=auto;strokeColor=#00A0FF;strokeWidth=5;fontSize=33;fontColor=#FFFFFF;fillColor=default;gradientColor=none;opacity=70;" parent="1" vertex="1">
                    <mxGeometry x="1454" y="2408" width="20" height="420" as="geometry"/>
                </mxCell>
                <mxCell id="824" style="edgeStyle=none;rounded=1;html=1;exitX=0.1;exitY=0.5;exitDx=0;exitDy=0;exitPerimeter=0;entryX=0.1;entryY=0.5;entryDx=0;entryDy=0;entryPerimeter=0;strokeColor=#006EAF;strokeWidth=5;fontSize=33;fontColor=#FFFFFF;startArrow=none;startFill=0;endArrow=none;endFill=0;fillColor=#1ba1e2;" parent="1" source="817" target="677" edge="1">
                    <mxGeometry relative="1" as="geometry"/>
                </mxCell>
                <mxCell id="817" value="" style="shape=curlyBracket;whiteSpace=wrap;html=1;rounded=1;labelPosition=left;verticalLabelPosition=middle;align=right;verticalAlign=middle;fillStyle=auto;strokeColor=#006EAF;strokeWidth=5;fontSize=33;fontColor=#ffffff;fillColor=#1ba1e2;opacity=70;" parent="1" vertex="1">
                    <mxGeometry x="1464" y="1812" width="20" height="118" as="geometry"/>
                </mxCell>
                <mxCell id="835" value="&lt;font style=&quot;font-size: 33px;&quot;&gt;Node Feature Matrix&lt;/font&gt;" style="text;html=1;align=center;verticalAlign=middle;resizable=0;points=[];autosize=1;strokeColor=none;fillColor=none;fontSize=100;fontColor=#000000;" parent="1" vertex="1">
                    <mxGeometry x="142.5" y="892" width="319" height="132" as="geometry"/>
                </mxCell>
                <mxCell id="836" value="&lt;font style=&quot;font-size: 33px;&quot;&gt;Weight Matrix&lt;/font&gt;" style="text;html=1;align=center;verticalAlign=middle;resizable=0;points=[];autosize=1;strokeColor=none;fillColor=none;fontSize=100;fontColor=#000000;" parent="1" vertex="1">
                    <mxGeometry x="928.5" y="889" width="219" height="132" as="geometry"/>
                </mxCell>
                <mxCell id="837" value="Updated Node Feature Matrix" style="text;html=1;align=right;verticalAlign=middle;resizable=0;points=[];autosize=1;strokeColor=none;fillColor=none;fontSize=33;fontColor=#000000;rotation=0;" parent="1" vertex="1">
                    <mxGeometry x="616" y="1721" width="453" height="52" as="geometry"/>
                </mxCell>
                <mxCell id="838" value="Updated Node Feature For Node 1" style="text;html=1;align=center;verticalAlign=middle;resizable=0;points=[];autosize=1;strokeColor=none;fillColor=none;fontSize=33;fontColor=#000000;rotation=0;" parent="1" vertex="1">
                    <mxGeometry x="1801" y="2306" width="528" height="52" as="geometry"/>
                </mxCell>
                <mxCell id="839" value="Adjacency Matrix" style="text;html=1;align=center;verticalAlign=middle;resizable=0;points=[];autosize=1;strokeColor=none;fillColor=none;fontSize=33;fontColor=#000000;rotation=0;" parent="1" vertex="1">
                    <mxGeometry x="1556" y="2240" width="269" height="52" as="geometry"/>
                </mxCell>
            </root>
        </mxGraphModel>
    </diagram>
</mxfile>